<svg width="46" height="47" viewBox="0 0 46 47" fill="none" xmlns="http://www.w3.org/2000/svg">
<g clip-path="url(#clip0_201_95)">
<path d="M15.3385 0.00794983C17.1412 0.00794983 18.8342 0.00794983 20.5193 0.00794983C20.9269 0.00794983 20.9739 0.246448 21.0053 0.556495C21.1307 1.74899 21.2796 2.94148 21.3972 4.14192C21.4071 4.32771 21.4757 4.50533 21.5928 4.6485C21.71 4.79168 21.8695 4.8928 22.0477 4.93691C23.0275 5.31851 23.9758 5.7796 24.9555 6.15325C25.0735 6.1801 25.1956 6.18196 25.3143 6.1587C25.433 6.13545 25.5457 6.08758 25.6452 6.0181C26.7504 5.18336 27.8242 4.30886 28.9371 3.43437L32.856 7.46499C32.1193 8.42693 31.3668 9.43657 30.583 10.4224C30.2539 10.8437 29.956 11.2174 30.3322 11.8613L25.708 11.9885C25.2399 11.721 24.8012 11.4039 24.3991 11.0425C22.5372 9.37441 20.1093 8.50534 17.6277 8.61866C15.1461 8.73198 12.8049 9.81884 11.0984 11.6498C9.39188 13.4808 8.45346 15.9127 8.48123 18.4322C8.50899 20.9517 9.50078 23.3617 11.2472 25.1536C11.4085 25.2949 11.5314 25.4758 11.6041 25.679C11.6769 25.8822 11.697 26.1009 11.6627 26.3143C11.5294 27.7214 11.4824 29.1445 11.4118 30.4244C11.0972 30.5279 10.7949 30.6666 10.5105 30.8378C9.42886 31.6328 8.37858 32.5152 7.31264 33.3579L3.39374 29.383C4.17752 28.3336 4.9613 27.2524 5.83913 26.203C5.99344 26.0525 6.08882 25.8504 6.10755 25.6341C6.12628 25.4177 6.0671 25.2019 5.94103 25.0264C5.54311 24.234 5.21022 23.4097 4.94566 22.5619C4.88375 22.302 4.73694 22.071 4.52918 21.9065C4.32142 21.7419 4.06491 21.6535 3.80132 21.6556L0.0078125 21.2502V19.2388C0.0078125 18.2133 0.0078125 17.1957 0.0078125 16.1702C0.0078125 15.7091 0.164574 15.5183 0.650517 15.4785C1.82619 15.3831 3.00185 15.248 4.16968 15.0651C4.30603 15.0256 4.43283 14.9579 4.5421 14.8662C4.65136 14.7746 4.74076 14.6609 4.80459 14.5325C5.19648 13.6659 5.46292 12.7437 5.894 11.8931C6.03754 11.6597 6.09652 11.3828 6.06077 11.1101C6.02501 10.8374 5.89675 10.5858 5.69806 10.3985C4.91428 9.43657 4.1305 8.43488 3.34672 7.44909L7.35967 3.42642C8.21398 4.11806 9.11536 4.80971 9.98535 5.54905C10.8553 6.2884 10.9337 6.34405 12.0389 5.80345C12.7023 5.47276 13.3951 5.20657 14.108 5.00846C14.6018 4.85741 14.837 4.66661 14.8918 4.11807C14.9859 2.71093 15.1739 1.39124 15.3385 0.00794983Z" fill="#1A3BFF"/>
<path d="M29.4073 15.7329C32.7044 15.7292 35.9007 16.8852 38.4515 19.0041C41.0023 21.123 42.7498 24.0735 43.396 27.3529C44.0423 30.6322 43.5474 34.0374 41.9957 36.9881C40.4439 39.9388 37.9314 42.2523 34.8863 43.5345C31.8412 44.8166 28.4519 44.988 25.2962 44.0194C22.1405 43.0507 19.4136 41.0021 17.5803 38.2226C15.7469 35.443 14.9206 32.1046 15.2421 28.7764C15.5637 25.4481 17.0132 22.3359 19.3436 19.9702C20.6603 18.6225 22.2282 17.5538 23.9559 16.8263C25.6836 16.0989 27.5367 15.7272 29.4073 15.7329ZM29.4073 13.3479C25.5655 13.3503 21.8433 14.7035 18.8748 17.1771C15.9063 19.6507 13.875 23.0917 13.127 26.9139C12.3789 30.7361 12.9605 34.7031 14.7724 38.1392C16.5844 41.5753 19.5148 44.268 23.0645 45.7586C26.6141 47.2492 30.5634 47.4455 34.2397 46.314C37.916 45.1825 41.0919 42.7933 43.2264 39.5533C45.3609 36.3133 46.322 32.423 45.9459 28.5449C45.5699 24.6668 43.8799 21.0409 41.164 18.2848C39.6239 16.7139 37.7916 15.4686 35.7735 14.6211C33.7554 13.7737 31.5915 13.3409 29.4073 13.3479Z" fill="#1A3BFF"/>
<path d="M24.5713 34.1688V26.1712C24.6183 25.559 24.2186 25.3762 23.5837 25.3762H22.0161V23.2218H25.308V20.5188H27.1656V23.2218H28.6234V20.5188H30.4888V23.2536L31.6802 23.3092C33.3731 23.4046 34.5566 23.6908 35.3091 25.3603C35.5121 25.8207 35.6188 26.3187 35.6225 26.8231C35.632 27.3725 35.4732 27.9114 35.168 28.3654C34.8462 28.8873 34.3684 29.2912 33.8042 29.5181C38.2404 30.0825 37.4252 36.4822 32.7774 36.9751C32.3855 37.0228 31.4293 37.0705 30.481 37.1023V39.8371H28.6234V37.1421H27.1656V39.8371H25.3002V37.1421H22.0083L22.4708 35.0513H23.9364C24.4067 35.1228 24.5713 34.781 24.5321 34.1688H24.5713ZM30.5202 25.7657V28.9457C32.7383 28.4051 32.5894 26.3938 30.5202 25.7657ZM30.5202 30.8378V34.7253C30.7553 34.7253 30.9591 34.6776 31.1315 34.6458C33.3731 34.2165 33.8904 31.5533 31.2099 30.9491C31.0139 30.9093 30.7867 30.8696 30.5202 30.8378ZM28.6626 34.8128V30.7424H27.8788V34.773L28.6626 34.8128ZM28.6626 29.065V25.5908H27.8788V29.0252L28.6626 29.065Z" fill="#1A3BFF"/>
</g>
<defs>
<clipPath id="clip0_201_95">
<rect width="46" height="47" fill="white"/>
</clipPath>
</defs>
</svg>
