<svg width="51" height="46" viewBox="0 0 51 46" fill="none" xmlns="http://www.w3.org/2000/svg">
<g clip-path="url(#clip0_201_104)">
<path fill-rule="evenodd" clip-rule="evenodd" d="M8.64112 17.3474V14.9938C8.64001 14.4639 8.85396 13.9553 9.23601 13.5795C9.61806 13.2037 10.137 12.9914 10.679 12.9892H12.4927C12.7747 11.7976 13.2348 10.6532 13.8582 9.59279L12.613 8.37543C12.2324 8.00132 12.0187 7.49507 12.0187 6.96735C12.0187 6.43964 12.2324 5.93338 12.613 5.55927L14.3105 3.8996C14.6932 3.52741 15.211 3.31848 15.7507 3.31848C16.2905 3.31848 16.8083 3.52741 17.1909 3.8996L18.3904 5.07233C19.4839 4.44681 20.6656 3.98194 21.8975 3.69265V1.97211C21.8996 1.44435 22.1151 0.938819 22.4967 0.565631C22.8784 0.192443 23.3955 -0.0181575 23.9353 -0.0202942H26.3425C26.8823 -0.0181575 27.3994 0.192443 27.7811 0.565631C28.1628 0.938819 28.3782 1.44435 28.3804 1.97211V3.82251C29.5526 4.14316 30.671 4.62839 31.7007 5.26305L33.1118 3.88337C33.302 3.6959 33.5283 3.5471 33.7776 3.44556C34.027 3.34402 34.2944 3.29174 34.5645 3.29174C34.8345 3.29174 35.102 3.34402 35.3513 3.44556C35.6006 3.5471 35.8269 3.6959 36.0171 3.88337L37.7105 5.54304C38.0911 5.91715 38.3048 6.4234 38.3048 6.95112C38.3048 7.47884 38.0911 7.98509 37.7105 8.3592L36.1416 9.89307C36.6764 10.864 37.0783 11.8996 37.3369 12.973H39.686C40.228 12.9719 40.7482 13.1811 41.1326 13.5546C41.517 13.9282 41.7341 14.4355 41.7363 14.9654L41.7073 17.2946C41.7051 17.822 41.4895 18.3271 41.1077 18.6997C40.7259 19.0722 40.2089 19.2819 39.6694 19.283H37.1792C36.8845 20.2731 31.1321 17.7897 31.1321 17.7897C31.4343 16.7538 31.4467 15.6576 31.1678 14.6155C30.8889 13.5734 30.329 12.6236 29.5466 11.8652C28.3925 10.7429 26.831 10.113 25.2033 10.113C23.5755 10.113 22.014 10.7429 20.8599 11.8652L20.8308 11.8936C19.9595 12.7352 19.3639 13.8112 19.12 14.9848C18.8761 16.1583 18.9949 17.3762 19.4612 18.4836C19.4612 18.4836 8.64112 18.443 8.64112 17.3474Z" fill="#1A3BFF"/>
<path fill-rule="evenodd" clip-rule="evenodd" d="M1.0542 43.9305H6.27954C6.0868 43.8806 5.91616 43.7702 5.79391 43.6162C5.67167 43.4623 5.60459 43.2732 5.60303 43.0783V18.2563C5.60519 18.0235 5.70077 17.8007 5.86921 17.636C6.03764 17.4714 6.26547 17.3779 6.50366 17.3758H44.2722C44.3921 17.3736 44.5112 17.3948 44.6226 17.438C44.734 17.4813 44.8356 17.5457 44.9213 17.6277C45.007 17.7096 45.0752 17.8074 45.122 17.9153C45.1687 18.0232 45.1931 18.1391 45.1936 18.2563V43.0743C45.1942 43.2697 45.1279 43.4597 45.0053 43.6141C44.8827 43.7685 44.7109 43.8785 44.5171 43.9264H49.979C50.2557 43.9339 50.5183 44.0474 50.7101 44.2425C50.9019 44.4376 51.0075 44.6987 51.0042 44.9693C51.0047 45.1048 50.9778 45.2391 50.925 45.3644C50.8722 45.4896 50.7946 45.6035 50.6966 45.6993C50.5986 45.7951 50.4822 45.871 50.354 45.9226C50.2259 45.9742 50.0885 46.0005 49.95 46H1.0542C0.774609 46 0.506469 45.8914 0.308768 45.6981C0.111068 45.5048 0 45.2426 0 44.9693C0.00218254 44.697 0.114081 44.4365 0.311428 44.2443C0.508775 44.0521 0.77566 43.9437 1.0542 43.9426V43.9305ZM36.208 23.56H40.3127C40.3975 23.56 40.4788 23.5929 40.5387 23.6515C40.5987 23.7101 40.6323 23.7896 40.6323 23.8724V24.7895C40.6334 24.8302 40.6262 24.8706 40.6111 24.9085C40.5959 24.9463 40.5732 24.9809 40.5441 25.01C40.5151 25.0391 40.4804 25.0623 40.4421 25.0781C40.4038 25.0939 40.3626 25.102 40.321 25.102H36.208C36.1233 25.102 36.042 25.069 35.982 25.0105C35.9221 24.9519 35.8884 24.8724 35.8884 24.7895V23.8684C35.8905 23.7862 35.9249 23.7079 35.9844 23.6497C36.0438 23.5916 36.1239 23.558 36.208 23.5559V23.56ZM29.2769 23.56H33.2031C33.2879 23.56 33.3692 23.5929 33.4291 23.6515C33.489 23.7101 33.5227 23.7896 33.5227 23.8724V24.7895C33.5222 24.8296 33.5134 24.8693 33.497 24.9061C33.4805 24.9428 33.4567 24.976 33.4269 25.0036C33.3971 25.0312 33.362 25.0527 33.3235 25.0668C33.2851 25.0809 33.2441 25.0874 33.2031 25.0857H29.2769C29.1921 25.0857 29.1108 25.0528 29.0509 24.9942C28.9909 24.9356 28.9573 24.8562 28.9573 24.7733V23.8684C28.9594 23.7862 28.9937 23.7079 29.0532 23.6497C29.1127 23.5916 29.1928 23.558 29.2769 23.5559V23.56ZM21.3911 23.56H25.8818C25.9663 23.561 26.0469 23.5943 26.1066 23.6527C26.1663 23.711 26.2003 23.7899 26.2014 23.8724V24.7895C26.202 24.8307 26.1941 24.8716 26.1782 24.9097C26.1624 24.9479 26.1388 24.9825 26.1091 25.0117C26.0793 25.0408 26.0438 25.0638 26.0048 25.0793C25.9658 25.0948 25.924 25.1025 25.8818 25.102H21.3787C21.3372 25.1025 21.2961 25.0951 21.2576 25.0801C21.2192 25.0651 21.1841 25.0428 21.1544 25.0145C21.1247 24.9863 21.101 24.9526 21.0847 24.9153C21.0683 24.8781 21.0596 24.8381 21.0591 24.7976V23.8684C21.0602 23.7858 21.0942 23.707 21.1539 23.6486C21.2136 23.5902 21.2942 23.557 21.3787 23.5559L21.3911 23.56ZM34.4482 40.3352C34.3547 40.3352 34.2621 40.3171 34.1757 40.282C34.0893 40.2469 34.0109 40.1954 33.9449 40.1305C33.879 40.0657 33.8268 39.9887 33.7914 39.904C33.7559 39.8194 33.738 39.7287 33.7385 39.6373C33.7385 39.4528 33.8132 39.2759 33.9461 39.1452C34.0791 39.0144 34.2596 38.9404 34.4482 38.9393H38.0632C38.2529 38.9404 38.4345 39.0148 38.5683 39.1463C38.702 39.2779 38.7771 39.4558 38.7771 39.6413C38.776 39.8257 38.7003 40.0022 38.5666 40.1322C38.4328 40.2622 38.2518 40.3352 38.0632 40.3352H34.4482ZM23.7112 40.3352C23.6176 40.3352 23.525 40.3171 23.4386 40.282C23.3522 40.2469 23.2738 40.1954 23.2079 40.1305C23.1419 40.0657 23.0897 39.9887 23.0543 39.904C23.0189 39.8194 23.0009 39.7287 23.0015 39.6373C23.0015 39.4528 23.0761 39.2759 23.2091 39.1452C23.3421 39.0144 23.5226 38.9404 23.7112 38.9393H27.322C27.5117 38.9404 27.6933 39.0148 27.8271 39.1463C27.9608 39.2779 28.0359 39.4558 28.0359 39.6413C28.0348 39.8257 27.9591 40.0022 27.8253 40.1322C27.6916 40.2622 27.5106 40.3352 27.322 40.3352H23.7112ZM12.97 40.3352C12.8764 40.3352 12.7838 40.3171 12.6974 40.282C12.611 40.2469 12.5326 40.1954 12.4667 40.1305C12.4007 40.0657 12.3485 39.9887 12.3131 39.904C12.2777 39.8194 12.2597 39.7287 12.2603 39.6373C12.2603 39.4528 12.3349 39.2759 12.4679 39.1452C12.6009 39.0144 12.7814 38.9404 12.97 38.9393H16.585C16.7747 38.9404 16.9562 39.0148 17.09 39.1463C17.2238 39.2779 17.2988 39.4558 17.2988 39.6413C17.2977 39.8257 17.222 40.0022 17.0883 40.1322C16.9545 40.2622 16.7736 40.3352 16.585 40.3352H12.97ZM31.8501 28.332H40.6282V36.9509H31.8501V28.332ZM36.2246 34.2687C36.2322 34.3163 36.2297 34.365 36.2173 34.4117C36.2049 34.4583 36.1829 34.502 36.1525 34.5401C36.1222 34.5781 36.0842 34.6096 36.0409 34.6327C35.9977 34.6559 35.95 34.6701 35.9009 34.6745C35.8522 34.6813 35.8027 34.6784 35.7552 34.6661C35.7077 34.6537 35.6632 34.6321 35.6245 34.6026C35.5857 34.573 35.5535 34.5361 35.5297 34.4941C35.5058 34.4521 35.4909 34.4058 35.4858 34.358V34.2809C35.4869 34.1869 35.5259 34.0971 35.5943 34.031C35.6627 33.9649 35.7549 33.9278 35.8511 33.9278C35.8985 33.9262 35.9458 33.9337 35.9902 33.95C36.0347 33.9662 36.0754 33.9909 36.1101 34.0226C36.1448 34.0542 36.1728 34.0923 36.1924 34.1345C36.2121 34.1767 36.223 34.2223 36.2246 34.2687ZM33.9875 30.7668C33.9896 30.729 34.0062 30.6935 34.0338 30.6672C34.0615 30.6408 34.0984 30.6257 34.137 30.6247H34.3569C34.4836 30.6243 34.6081 30.6565 34.718 30.7181C34.7798 30.7554 34.8332 30.8044 34.8753 30.8622C34.9174 30.9201 34.9471 30.9856 34.9629 31.0549L35.0002 31.2009H38.3206C38.3602 31.2009 38.3982 31.2163 38.4262 31.2437C38.4542 31.2711 38.47 31.3083 38.47 31.347C38.4742 31.3616 38.4742 31.3771 38.47 31.3917L38.084 32.9174C38.0771 32.9496 38.0587 32.9783 38.0321 32.9984C38.0054 33.0185 37.9723 33.0286 37.9387 33.027H35.5024C35.5564 33.2218 35.6104 33.3273 35.6809 33.3719C35.8376 33.433 36.0079 33.4526 36.1748 33.4287H37.8972C37.9168 33.4287 37.9363 33.4325 37.9544 33.4398C37.9725 33.4472 37.989 33.4579 38.0029 33.4715C38.0167 33.4851 38.0277 33.5012 38.0353 33.5189C38.0428 33.5366 38.0466 33.5556 38.0466 33.5748C38.0466 33.594 38.0428 33.613 38.0353 33.6307C38.0277 33.6484 38.0167 33.6645 38.0029 33.6781C37.989 33.6917 37.9725 33.7024 37.9544 33.7098C37.9363 33.7171 37.9168 33.7209 37.8972 33.7209H36.1873C35.9601 33.751 35.7289 33.7143 35.5232 33.6154C35.3433 33.4593 35.2281 33.2442 35.1995 33.0108L34.689 31.1725C34.6826 31.1389 34.6694 31.1068 34.6502 31.0782C34.6309 31.0497 34.606 31.0252 34.5769 31.0062C34.5114 30.9735 34.4388 30.9568 34.3652 30.9575H34.2573C34.1494 30.9575 34 30.9575 34 30.8073L33.9875 30.7668ZM37.8184 34.2565C37.8189 34.3036 37.8098 34.3502 37.7917 34.3938C37.7735 34.4374 37.7466 34.477 37.7126 34.5102C37.6786 34.5435 37.6381 34.5698 37.5935 34.5875C37.549 34.6053 37.5012 34.6142 37.4531 34.6136C37.3563 34.6136 37.2634 34.576 37.1949 34.509C37.1264 34.4421 37.0879 34.3512 37.0879 34.2565C37.089 34.1621 37.1278 34.0719 37.1961 34.0052C37.2643 33.9384 37.3566 33.9005 37.4531 33.8994C37.5018 33.8983 37.5502 33.9068 37.5954 33.9242C37.6407 33.9417 37.682 33.9678 37.7168 34.0011C37.7516 34.0344 37.7792 34.0741 37.7981 34.118C37.817 34.1618 37.8267 34.2089 37.8267 34.2565H37.8184ZM21.1213 28.332H29.8953V36.9509H21.1213V28.332ZM25.5 34.2687C25.5006 34.3157 25.4915 34.3624 25.4733 34.406C25.4552 34.4496 25.4283 34.4891 25.3943 34.5224C25.3602 34.5557 25.3198 34.582 25.2752 34.5997C25.2306 34.6175 25.1829 34.6263 25.1348 34.6258C25.0382 34.6247 24.946 34.5868 24.8777 34.52C24.8094 34.4533 24.7706 34.3631 24.7695 34.2687C24.7706 34.1743 24.8094 34.0841 24.8777 34.0174C24.946 33.9506 25.0382 33.9127 25.1348 33.9116C25.2295 33.9148 25.3192 33.9538 25.385 34.0204C25.4508 34.087 25.4876 34.1761 25.4876 34.2687H25.5ZM23.2546 30.7668C23.2546 30.7291 23.2699 30.693 23.2972 30.6663C23.3244 30.6397 23.3614 30.6247 23.3999 30.6247H23.6116C23.737 30.6239 23.8603 30.6561 23.9685 30.7181C24.0303 30.7554 24.0837 30.8044 24.1258 30.8622C24.1678 30.9201 24.1976 30.9856 24.2134 31.0549L24.2507 31.2009H27.571C27.6099 31.202 27.6469 31.2179 27.674 31.2451C27.7012 31.2724 27.7163 31.309 27.7163 31.347C27.7206 31.3616 27.7206 31.3771 27.7163 31.3917L27.3469 32.9174C27.3409 32.95 27.3227 32.9793 27.2958 32.9995C27.269 33.0197 27.2354 33.0295 27.2017 33.027H24.7737C24.8276 33.2218 24.8774 33.3273 24.9521 33.3719C25.1088 33.433 25.2792 33.4526 25.446 33.4287H27.1643C27.2039 33.4287 27.2419 33.4441 27.27 33.4715C27.298 33.4989 27.3137 33.5361 27.3137 33.5748C27.3137 33.6135 27.298 33.6507 27.27 33.6781C27.2419 33.7055 27.2039 33.7209 27.1643 33.7209H25.4502C25.223 33.753 24.9912 33.7162 24.7861 33.6154C24.6028 33.4614 24.4857 33.2455 24.4582 33.0108L23.9478 31.1725C23.9424 31.1386 23.9296 31.1061 23.9103 31.0774C23.8909 31.0487 23.8655 31.0244 23.8357 31.0062C23.7717 30.9735 23.7004 30.9568 23.6282 30.9575H23.5203C23.4124 30.9575 23.2629 30.9575 23.2629 30.8073L23.2546 30.7668ZM27.0813 34.2565C27.0818 34.3034 27.0729 34.35 27.0551 34.3935C27.0372 34.437 27.0108 34.4767 26.9773 34.5102C26.9437 34.5438 26.9038 34.5705 26.8597 34.5889C26.8156 34.6074 26.7682 34.6171 26.7202 34.6177C26.6233 34.6166 26.5306 34.5788 26.4616 34.5122C26.3927 34.4455 26.353 34.3553 26.3508 34.2606C26.3519 34.1662 26.3907 34.076 26.459 34.0092C26.5273 33.9425 26.6195 33.9045 26.7161 33.9035C26.81 33.9066 26.8992 33.9451 26.9649 34.0108C27.0306 34.0766 27.0678 34.1646 27.0688 34.2565H27.0813ZM10.3884 28.332H19.1624V36.9509H10.376L10.3884 28.332ZM14.7588 34.2687C14.7593 34.3157 14.7503 34.3624 14.7321 34.406C14.714 34.4496 14.6871 34.4891 14.6531 34.5224C14.619 34.5557 14.5785 34.582 14.534 34.5997C14.4894 34.6175 14.4417 34.6263 14.3936 34.6258C14.297 34.6247 14.2047 34.5868 14.1365 34.52C14.0682 34.4533 14.0294 34.3631 14.0283 34.2687C14.0294 34.1743 14.0682 34.0841 14.1365 34.0174C14.2047 33.9506 14.297 33.9127 14.3936 33.9116C14.4882 33.9148 14.578 33.9538 14.6438 34.0204C14.7096 34.087 14.7464 34.1761 14.7463 34.2687H14.7588ZM12.53 30.7668C12.5321 30.729 12.5486 30.6935 12.5763 30.6672C12.604 30.6408 12.6408 30.6257 12.6794 30.6247H12.8994C13.0265 30.6205 13.1521 30.6529 13.2605 30.7181C13.3216 30.7556 13.3744 30.8048 13.4158 30.8626C13.4571 30.9205 13.4862 30.9858 13.5012 31.0549L13.5386 31.2009H16.8589C16.8985 31.2009 16.9365 31.2163 16.9645 31.2437C16.9926 31.2711 17.0083 31.3083 17.0083 31.347C17.0126 31.3616 17.0126 31.3771 17.0083 31.3917L16.6016 32.9539C16.5956 32.9858 16.578 33.0145 16.552 33.0346C16.5261 33.0548 16.4935 33.065 16.4604 33.0635H14.0325C14.0515 33.1946 14.1142 33.3158 14.2109 33.4084C14.3676 33.4695 14.538 33.4891 14.7048 33.4652H16.4231C16.4627 33.4652 16.5007 33.4806 16.5287 33.508C16.5568 33.5354 16.5725 33.5726 16.5725 33.6113C16.5725 33.6501 16.5568 33.6872 16.5287 33.7146C16.5007 33.742 16.4627 33.7574 16.4231 33.7574H14.709C14.4818 33.7896 14.25 33.7527 14.0449 33.6519C13.8616 33.498 13.7445 33.282 13.717 33.0473L13.2107 31.1847C13.2036 31.1508 13.1897 31.1186 13.1698 31.0901C13.1498 31.0615 13.1242 31.0371 13.0945 31.0183C13.0304 30.9857 12.9592 30.969 12.887 30.9696H12.7832C12.6753 30.9696 12.5217 30.9696 12.5217 30.8195L12.53 30.7668ZM16.3567 34.2565C16.3643 34.3042 16.3618 34.3528 16.3494 34.3995C16.337 34.4462 16.3149 34.4899 16.2846 34.5279C16.2543 34.5659 16.2163 34.5974 16.173 34.6206C16.1297 34.6437 16.0821 34.6579 16.033 34.6623C15.9843 34.6691 15.9348 34.6663 15.8873 34.6539C15.8398 34.6415 15.7953 34.6199 15.7566 34.5904C15.7178 34.5608 15.6856 34.5239 15.6617 34.4819C15.6379 34.4399 15.623 34.3936 15.6179 34.3458V34.2687C15.619 34.1747 15.658 34.0849 15.7264 34.0188C15.7947 33.9527 15.887 33.9157 15.9832 33.9157C16.0768 33.9156 16.1668 33.9511 16.2342 34.0147C16.3015 34.0783 16.341 34.165 16.3442 34.2565H16.3567ZM11.5339 19.4899C11.6282 19.4894 11.7217 19.507 11.809 19.5418C11.8963 19.5766 11.9758 19.6279 12.0429 19.6927C12.1099 19.7575 12.1633 19.8346 12.1999 19.9196C12.2364 20.0045 12.2556 20.0957 12.2561 20.1879C12.2572 20.2802 12.2395 20.3719 12.2042 20.4575C12.1688 20.5431 12.1164 20.621 12.05 20.6867C11.9836 20.7523 11.9045 20.8045 11.8174 20.8401C11.7302 20.8756 11.6367 20.894 11.5422 20.894C11.4479 20.8945 11.3545 20.8769 11.2671 20.8421C11.1798 20.8073 11.1004 20.756 11.0333 20.6912C10.9662 20.6264 10.9129 20.5493 10.8763 20.4643C10.8397 20.3794 10.8206 20.2882 10.8201 20.196C10.8195 20.1038 10.8376 20.0124 10.8731 19.927C10.9087 19.8417 10.9611 19.764 11.0274 19.6984C11.0937 19.6329 11.1726 19.5807 11.2595 19.5449C11.3464 19.5092 11.4396 19.4905 11.5339 19.4899ZM13.9578 19.4899C14.0521 19.4894 14.1455 19.507 14.2329 19.5418C14.3202 19.5766 14.3996 19.6279 14.4667 19.6927C14.5338 19.7575 14.5871 19.8346 14.6237 19.9196C14.6603 20.0045 14.6794 20.0957 14.6799 20.1879C14.681 20.2802 14.6634 20.3719 14.628 20.4575C14.5926 20.5431 14.5402 20.621 14.4738 20.6867C14.4074 20.7523 14.3283 20.8045 14.2412 20.8401C14.154 20.8756 14.0605 20.894 13.9661 20.894C13.8711 20.8956 13.7767 20.8787 13.6884 20.8444C13.6001 20.8101 13.5197 20.759 13.4518 20.6941C13.3838 20.6292 13.3297 20.5518 13.2926 20.4662C13.2555 20.3807 13.2361 20.2889 13.2356 20.196C13.235 20.1031 13.2533 20.0111 13.2894 19.9252C13.3255 19.8393 13.3787 19.7612 13.4459 19.6955C13.5131 19.6299 13.5929 19.5779 13.6808 19.5426C13.7686 19.5073 13.8628 19.4894 13.9578 19.4899ZM9.13086 19.4899C9.22515 19.4894 9.31863 19.507 9.40595 19.5418C9.49327 19.5766 9.57273 19.6279 9.63979 19.6927C9.70685 19.7575 9.7602 19.8346 9.79679 19.9196C9.83337 20.0045 9.85248 20.0957 9.85303 20.1879C9.85413 20.2802 9.83647 20.3719 9.80109 20.4575C9.76571 20.5431 9.71329 20.621 9.6469 20.6867C9.5805 20.7523 9.50143 20.8045 9.41428 20.8401C9.32712 20.8756 9.23361 20.894 9.13916 20.894C9.04487 20.8945 8.95139 20.8769 8.86407 20.8421C8.77675 20.8073 8.69729 20.756 8.63023 20.6912C8.56317 20.6264 8.50982 20.5493 8.47323 20.4643C8.43665 20.3794 8.41753 20.2882 8.41699 20.196C8.41644 20.1038 8.43448 20.0124 8.47006 19.927C8.50564 19.8417 8.55807 19.764 8.62436 19.6984C8.69065 19.6329 8.76949 19.5807 8.8564 19.5449C8.94331 19.5092 9.03657 19.4905 9.13086 19.4899ZM7.16358 21.9247H43.7451V42.8267H7.14282V21.9044L7.16358 21.9247ZM24.0266 44.316H26.9858C27.1201 44.316 27.2489 44.3681 27.3439 44.461C27.4388 44.5538 27.4922 44.6797 27.4922 44.811C27.4927 44.8762 27.48 44.9408 27.4548 45.0011C27.4295 45.0614 27.3922 45.1162 27.3451 45.1623C27.298 45.2084 27.2419 45.2448 27.1803 45.2695C27.1186 45.2942 27.0525 45.3066 26.9858 45.3061H24.0266C23.8923 45.3061 23.7635 45.2539 23.6686 45.1611C23.5736 45.0683 23.5203 44.9423 23.5203 44.811C23.5203 44.6797 23.5736 44.5538 23.6686 44.461C23.7635 44.3681 23.8923 44.316 24.0266 44.316Z" fill="#1A3BFF"/>
</g>
<defs>
<clipPath id="clip0_201_104">
<rect width="51" height="46" fill="white"/>
</clipPath>
</defs>
</svg>
