<svg width="39" height="52" viewBox="0 0 39 52" fill="none" xmlns="http://www.w3.org/2000/svg">
<path fill-rule="evenodd" clip-rule="evenodd" d="M3.29383 45.5339C5.1132 45.5339 6.58766 46.9811 6.58766 48.7669C6.58766 50.5527 5.1132 52 3.29383 52C1.47446 52 0 50.5527 0 48.7669C0 46.9811 1.47446 45.5339 3.29383 45.5339ZM2.31086 0H36.6891C37.2324 0 37.6764 0.435872 37.6764 0.969076V22.2549C37.6764 22.7881 37.2324 23.224 36.6891 23.224H2.31086C1.76763 23.224 1.32357 22.7881 1.32357 22.2549V0.969076C1.31926 0.435872 1.76763 0 2.31086 0ZM15.0163 24.5654H23.9794C24.0053 26.0889 24.6391 27.4515 26.3722 28.5264H12.6192C14.0074 27.5404 15.0249 26.3428 15.0163 24.5654ZM19.5 19.957C20.1984 19.957 20.7675 20.5156 20.7675 21.2054C20.7675 21.891 20.1984 22.4495 19.5 22.4495C18.8016 22.4495 18.2282 21.891 18.2282 21.2054C18.2282 20.5156 18.8016 19.957 19.5 19.957ZM4.29405 1.82813H34.7059C35.1888 1.82813 35.5811 2.21322 35.5811 2.68717V18.3236C35.5811 18.7933 35.1888 19.1826 34.7059 19.1826H4.29405C3.8155 19.1826 3.41886 18.7975 3.41886 18.3236V2.68294C3.41886 2.21322 3.81119 1.82813 4.29405 1.82813ZM17.7884 39.1354H4.76398V42.8763C4.76398 43.6719 4.10436 44.3193 3.29383 44.3193C2.48331 44.3193 1.82368 43.6761 1.82368 42.8763V38.124C1.82368 38.0521 1.82799 37.9801 1.84092 37.9082C1.8323 37.8363 1.82368 37.7643 1.82368 37.6924C1.82368 36.8968 2.479 36.2494 3.29383 36.2494H17.7108C17.6979 35.1956 17.6849 33.2829 17.672 32.3011H21.2375C21.2763 33.3844 21.3064 35.3141 21.3194 36.2494H35.7019C36.5124 36.2494 37.172 36.8968 37.172 37.6924C37.172 37.7643 37.1677 37.8363 37.1548 37.9082C37.1677 37.9801 37.172 38.0521 37.172 38.124V42.8763C37.172 43.6719 36.5124 44.3193 35.7019 44.3193C34.8913 44.3193 34.2317 43.6761 34.2317 42.8763V39.1354H21.3151V42.415C21.3151 43.3714 20.5261 44.1458 19.5517 44.1458C18.5774 44.1458 17.7884 43.3714 17.7884 42.415V39.1354ZM35.7062 45.5339C37.5255 45.5339 39 46.9811 39 48.7669C39 50.5527 37.5255 52 35.7062 52C33.8868 52 32.4123 50.5527 32.4123 48.7669C32.4123 46.9811 33.8868 45.5339 35.7062 45.5339ZM19.444 45.5339C21.2633 45.5339 22.7378 46.9811 22.7378 48.7669C22.7378 50.5527 21.2633 52 19.444 52C17.6246 52 16.1501 50.5527 16.1501 48.7669C16.1501 46.9811 17.6246 45.5339 19.444 45.5339Z" fill="#1A3BFF"/>
</svg>
