<svg width="43" height="40" viewBox="0 0 43 40" fill="none" xmlns="http://www.w3.org/2000/svg">
<g clip-path="url(#clip0_201_86)">
<path fill-rule="evenodd" clip-rule="evenodd" d="M22.8985 15.4635L23.6603 15.3217C23.7446 15.3059 23.8312 15.307 23.9151 15.3247C23.9991 15.3425 24.0787 15.3767 24.1494 15.4253C24.2202 15.4739 24.2807 15.536 24.3275 15.608C24.3743 15.6801 24.4064 15.7606 24.4221 15.8451L24.5418 16.5431C24.9147 16.5743 25.2812 16.6588 25.6302 16.7939L26.0546 16.1723C26.1534 16.0314 26.3037 15.9353 26.4728 15.9046C26.6419 15.874 26.8162 15.9114 26.9579 16.0087L27.5892 16.4449C27.6612 16.4932 27.7229 16.5553 27.7707 16.6276C27.8185 16.7 27.8514 16.7812 27.8677 16.8664C27.8839 16.9517 27.883 17.0393 27.8651 17.1242C27.8471 17.2091 27.8126 17.2896 27.7633 17.361L27.2953 18.0262C27.5153 18.2869 27.6984 18.5768 27.8395 18.8877L28.6448 18.735C28.7292 18.7192 28.8158 18.7203 28.8997 18.738C28.9837 18.7558 29.0633 18.79 29.134 18.8386C29.2048 18.8872 29.2652 18.9493 29.312 19.0213C29.3588 19.0934 29.391 19.1739 29.4067 19.2585L29.5482 20.0109C29.5639 20.0954 29.5629 20.1822 29.5452 20.2663C29.5274 20.3504 29.4933 20.4301 29.4448 20.501C29.3963 20.5719 29.3343 20.6325 29.2624 20.6794C29.1905 20.7263 29.1101 20.7585 29.0258 20.7743L28.2095 20.9269C28.1828 21.2642 28.1171 21.5972 28.0136 21.9193L28.6884 22.3773C28.8297 22.4783 28.9259 22.6307 28.9565 22.802C28.987 22.9732 28.9493 23.1496 28.8516 23.2934L28.4163 23.9258C28.3692 23.9976 28.3082 24.0592 28.2369 24.107C28.1657 24.1548 28.0856 24.1878 28.0014 24.204C27.9172 24.2203 27.8306 24.2195 27.7467 24.2017C27.6628 24.1839 27.5833 24.1494 27.513 24.1003L26.8709 23.6641C26.6057 23.8983 26.3134 24.0997 26.0002 24.2639L26.1308 24.9946C26.1483 25.0791 26.1489 25.1662 26.1326 25.251C26.1163 25.3357 26.0834 25.4164 26.0359 25.4884C25.9883 25.5603 25.927 25.6222 25.8555 25.6703C25.784 25.7184 25.7037 25.7519 25.6193 25.7688L24.8575 25.9106C24.6875 25.9395 24.513 25.9011 24.3708 25.8034C24.2286 25.7057 24.1299 25.5564 24.0956 25.3871L23.9759 24.7219C23.6057 24.7085 23.2392 24.6424 22.8876 24.5256L22.5284 25.0491C22.4296 25.1899 22.2794 25.2861 22.1103 25.3167C21.9412 25.3474 21.7669 25.31 21.6251 25.2127L20.983 24.7764C20.8417 24.6755 20.7454 24.523 20.7149 24.3518C20.6844 24.1806 20.722 24.0042 20.8197 23.8604L21.1463 23.4024C20.8759 23.101 20.6488 22.7633 20.4715 22.3991L19.9273 22.4973C19.843 22.5131 19.7564 22.512 19.6724 22.4943C19.5885 22.4765 19.5089 22.4423 19.4382 22.3937C19.3674 22.3451 19.3069 22.283 19.2601 22.211C19.2134 22.1389 19.1812 22.0583 19.1655 21.9738L19.024 21.2214C18.9885 21.0493 19.0224 20.8702 19.1182 20.7231C19.2141 20.576 19.3641 20.4729 19.5355 20.4362L20.0797 20.3381C20.1069 19.931 20.195 19.5303 20.3409 19.1494L19.8838 18.8332C19.8118 18.7849 19.7501 18.7228 19.7023 18.6504C19.6545 18.5781 19.6215 18.4969 19.6053 18.4117C19.5891 18.3264 19.59 18.2388 19.6079 18.1539C19.6258 18.069 19.6604 17.9885 19.7096 17.9171L20.145 17.2846C20.2458 17.143 20.3979 17.0466 20.5688 17.016C20.7397 16.9854 20.9157 17.0231 21.0592 17.121L21.5598 17.4591C21.8576 17.2099 22.1916 17.0077 22.5502 16.8593L22.4305 16.2268C22.397 16.0638 22.4267 15.8941 22.5136 15.7523C22.6006 15.6105 22.7382 15.5072 22.8985 15.4635ZM23.8779 18.6587C24.2627 18.5859 24.6604 18.629 25.0207 18.7826C25.3811 18.9361 25.6879 19.1933 25.9024 19.5215C26.117 19.8497 26.2296 20.2343 26.2261 20.6266C26.2226 21.019 26.1031 21.4015 25.8828 21.7258C25.6624 22.0502 25.3511 22.3018 24.9881 22.4489C24.6251 22.596 24.2267 22.632 23.8433 22.5524C23.4599 22.4727 23.1086 22.281 22.8339 22.0014C22.5592 21.7218 22.3734 21.3668 22.2999 20.9815C22.223 20.4754 22.3443 19.9591 22.6384 19.5405C22.9324 19.1218 23.3765 18.8333 23.8779 18.735V18.6587Z" fill="#1A3BFF"/>
<path d="M38.3092 36.892H21.0918C20.7455 36.9161 20.3979 36.8717 20.0687 36.7612C18.4906 36.0196 16.9126 35.2563 15.3672 34.4384C15.1864 34.3707 15.0306 34.2494 14.9206 34.0905C14.8106 33.9317 14.7516 33.743 14.7516 33.5496C14.7516 33.3563 14.8106 33.1676 14.9206 33.0087C15.0306 32.8499 15.1864 32.7285 15.3672 32.6609C16.7929 31.9302 18.2295 31.2105 19.7205 30.4798C20.1419 30.2909 20.5975 30.1907 21.0591 30.1854C26.5008 30.1854 31.9424 30.1854 37.3841 30.1854C37.6888 30.1854 37.9936 30.1854 38.2656 30.1854V10.3599C35.806 10.3599 33.4117 10.3599 31.0173 10.3599C30.2229 10.3599 30.027 10.1091 30.0487 9.35661C30.0487 7.57907 30.0487 5.79063 30.0487 4.01309V2.05017H11.2315C10.0234 2.05017 10.0234 2.05017 10.0234 3.22792C10.0234 15.0709 10.0234 26.9102 10.0234 38.7459C10.0234 39.9455 10.0234 39.9455 11.2097 39.9455H37.1229C37.297 39.9455 37.5147 40.0109 37.6344 39.9455C37.7541 39.88 38.233 39.5638 38.2548 39.3348C38.3092 38.5714 38.3092 37.7863 38.3092 36.892ZM16.0528 8.33152C16.0528 8.14063 16.1285 7.95757 16.2632 7.82259C16.3979 7.68761 16.5806 7.61178 16.7711 7.61178H27.4259C27.6164 7.61178 27.7991 7.68761 27.9338 7.82259C28.0685 7.95757 28.1442 8.14063 28.1442 8.33152C28.1442 8.52241 28.0685 8.70548 27.9338 8.84045C27.7991 8.97543 27.6164 9.05126 27.4259 9.05126H16.8037C16.7071 9.05416 16.6108 9.03777 16.5205 9.00304C16.4302 8.9683 16.3477 8.91592 16.2779 8.84894C16.208 8.78196 16.1521 8.70172 16.1135 8.61289C16.0748 8.52406 16.0542 8.42841 16.0528 8.33152ZM31.6377 20.7634C31.6098 22.2255 31.151 23.6467 30.3191 24.8483C29.4872 26.0499 28.3193 26.9782 26.9623 27.5164C25.6053 28.0547 24.1197 28.1789 22.6924 27.8734C21.2652 27.5679 19.9599 26.8463 18.9408 25.7995C17.9217 24.7527 17.2342 23.4273 16.9648 21.99C16.6955 20.5527 16.8563 19.0677 17.427 17.7218C17.9977 16.3758 18.9529 15.229 20.1723 14.4255C21.3918 13.622 22.8211 13.1978 24.2806 13.2061C25.2591 13.2175 26.2258 13.4221 27.1253 13.8082C28.0249 14.1943 28.8396 14.7543 29.5229 15.4562C30.2063 16.1581 30.7448 16.9882 31.1076 17.8988C31.4705 18.8095 31.6506 19.7829 31.6377 20.7634ZM12.7551 5.74701C12.7551 5.65249 12.7737 5.5589 12.8098 5.47158C12.8459 5.38425 12.8988 5.30491 12.9655 5.23808C13.0322 5.17124 13.1114 5.11823 13.1986 5.08206C13.2857 5.04589 13.3791 5.02727 13.4734 5.02727H27.4259C27.6025 5.04902 27.7651 5.13476 27.8831 5.26834C28.001 5.40192 28.0661 5.57411 28.0661 5.75246C28.0661 5.93081 28.001 6.103 27.8831 6.23658C27.7651 6.37016 27.6025 6.4559 27.4259 6.47765H13.4734C13.3782 6.47766 13.2839 6.45869 13.196 6.42184C13.1082 6.38499 13.0285 6.331 12.9616 6.263C12.8948 6.19501 12.8421 6.11437 12.8067 6.02579C12.7712 5.9372 12.7537 5.84244 12.7551 5.74701Z" fill="#1A3BFF"/>
<path d="M27.7196 1.38495H28.6991C28.8297 0.043615 28.8188 0.0218048 27.6761 0.0218048C21.4944 0.0218048 15.3017 0.0218048 9.12001 0.0218048C8.22758 0.0218048 8.03168 0.261718 8.03168 1.11232C8.03168 7.16466 8.03168 13.217 8.03168 19.2694V20.6652H6.68216V19.7165C6.68216 16.8266 6.68216 13.9258 6.68216 10.9924C6.71062 10.3119 6.48588 9.64507 6.05154 9.1212C5.61719 8.59733 5.00418 8.25373 4.33136 8.15703C3.98018 8.0349 3.67831 7.80136 3.47156 7.49181C3.24515 7.16545 2.92519 6.91565 2.55401 6.77545C2.18284 6.63525 1.77793 6.61125 1.39285 6.70665C1.10623 6.78228 0.842281 6.9266 0.623693 7.12717C0.405105 7.32774 0.238436 7.57855 0.138082 7.858C0.0377285 8.13744 0.00668091 8.43715 0.0476092 8.73129C0.0885376 9.02543 0.200222 9.30519 0.373033 9.54648C0.545843 9.78776 0.774585 9.98333 1.03959 10.1163C1.30459 10.2494 1.59793 10.3158 1.89427 10.31C2.1906 10.3042 2.48106 10.2263 2.74067 10.083C3.00028 9.93971 3.22125 9.73533 3.38451 9.48745C3.4553 9.32517 3.56448 9.18261 3.7026 9.07209C3.84071 8.96156 4.00358 8.88641 4.17718 8.85312C4.35078 8.81983 4.52988 8.82942 4.69896 8.88104C4.86804 8.93266 5.02202 9.02476 5.1476 9.14939C5.45371 9.35393 5.69982 9.6366 5.86053 9.96823C6.02123 10.2999 6.0907 10.6685 6.0618 11.036C6.0618 14.0131 6.0618 17.0011 6.0618 19.9782C6.0618 20.1745 6.06181 20.3708 6.0074 20.6216H3.83073C3.78221 20.5596 3.73855 20.494 3.70014 20.4253C3.55476 19.9869 3.25034 19.6192 2.84722 19.395C2.4441 19.1708 1.97167 19.1065 1.52347 19.2148C1.11326 19.2779 0.737809 19.4823 0.461712 19.7928C0.185616 20.1033 0.0261149 20.5005 0.0106761 20.916C-0.0195227 21.3136 0.0797924 21.7103 0.293686 22.0465C0.50758 22.3827 0.824512 22.6404 1.19695 22.7808C1.62957 22.9265 2.10013 22.9107 2.52206 22.7364C2.944 22.5621 3.28893 22.2409 3.49335 21.8321C3.61307 21.6576 3.80895 21.4395 3.98308 21.4286C4.63608 21.4286 5.29998 21.4286 6.0074 21.4286C6.0074 24.8528 6.0074 28.1461 6.0074 31.4504C5.96581 31.8552 5.79829 32.2367 5.52853 32.5409C5.42691 32.7428 5.27137 32.9124 5.07922 33.0309C4.88707 33.1495 4.66584 33.2122 4.4402 33.2122C4.21455 33.2122 3.99333 33.1495 3.80117 33.0309C3.60902 32.9124 3.45348 32.7428 3.35186 32.5409C3.13828 32.2111 2.82158 31.9615 2.45135 31.8313C2.08113 31.7011 1.67826 31.6975 1.30579 31.8212C0.93297 31.9129 0.602507 32.1293 0.369014 32.4346C0.135521 32.74 0.0129723 33.116 0.02157 33.5005C-0.000778805 33.9022 0.114311 34.2994 0.347824 34.6266C0.581336 34.9537 0.919281 35.1913 1.30579 35.2999C1.70485 35.4354 2.13809 35.4303 2.53389 35.2856C2.92969 35.1408 3.26433 34.865 3.48246 34.5038C3.65041 34.2291 3.90806 34.021 4.21166 33.9149C4.57417 33.8888 4.92789 33.7908 5.25226 33.6265C5.57663 33.4622 5.86514 33.2349 6.10109 32.9579C6.33704 32.6809 6.5157 32.3597 6.62666 32.0129C6.73762 31.6661 6.77868 31.3007 6.74745 30.9378C6.74745 28.6914 6.74745 26.434 6.74745 24.1876V21.4395H8.11876V36.892C8.11876 38.0589 8.11874 38.1025 9.49004 37.8626V2.96619C9.49004 1.55943 9.70772 1.35223 11.1334 1.35223L27.7196 1.38495Z" fill="#1A3BFF"/>
<path d="M37.7541 9.68375L30.8105 2.63904V9.64013C31.0282 9.64013 31.2024 9.64013 31.3656 9.64013L37.7541 9.68375Z" fill="#1A3BFF"/>
<path d="M37.852 36.3904H21.2876C21.2181 36.3904 21.1493 36.3765 21.0852 36.3495C21.0211 36.3226 20.963 36.283 20.9143 36.2333C20.8657 36.1835 20.8275 36.1245 20.8019 36.0597C20.7762 35.9949 20.7638 35.9257 20.7653 35.856V34.2857C20.7638 34.2161 20.7762 34.1468 20.8019 34.0821C20.8275 34.0173 20.8657 33.9583 20.9143 33.9085C20.963 33.8587 21.0211 33.8192 21.0852 33.7922C21.1493 33.7652 21.2181 33.7513 21.2876 33.7514H37.852C37.9935 33.7514 38.1291 33.8077 38.2291 33.9079C38.3292 34.0081 38.3854 34.144 38.3854 34.2857V35.856C38.3854 35.9978 38.3292 36.1337 38.2291 36.2339C38.1291 36.3341 37.9935 36.3904 37.852 36.3904ZM21.2876 34.1112C21.2414 34.1112 21.1972 34.1296 21.1645 34.1623C21.1319 34.1951 21.1135 34.2394 21.1135 34.2857V35.856C21.1135 35.9023 21.1319 35.9467 21.1645 35.9794C21.1972 36.0122 21.2414 36.0305 21.2876 36.0305H37.852C37.8982 36.0305 37.9425 36.0122 37.9752 35.9794C38.0079 35.9467 38.0262 35.9023 38.0262 35.856V34.2857C38.0262 34.2394 38.0079 34.1951 37.9752 34.1623C37.9425 34.1296 37.8982 34.1112 37.852 34.1112H21.2876Z" fill="#1A3BFF"/>
<path d="M37.9177 33.3479H21.3424C21.2009 33.3479 21.0653 33.2916 20.9653 33.1914C20.8652 33.0912 20.8091 32.9552 20.8091 32.8135V31.265C20.8091 31.1953 20.8229 31.1264 20.8498 31.0621C20.8768 30.9979 20.9162 30.9397 20.9659 30.891C21.0156 30.8422 21.0744 30.8039 21.1391 30.7782C21.2037 30.7526 21.2728 30.7401 21.3424 30.7416H37.9177C37.9867 30.7401 38.0553 30.7526 38.1193 30.7784C38.1834 30.8041 38.2415 30.8426 38.2903 30.8916C38.3392 30.9405 38.3776 30.9988 38.4033 31.0629C38.429 31.1271 38.4415 31.1958 38.44 31.265V32.8135C38.4415 32.8832 38.429 32.9524 38.4034 33.0172C38.3778 33.082 38.3396 33.141 38.2909 33.1907C38.2423 33.2405 38.1842 33.28 38.1201 33.307C38.056 33.334 37.9872 33.3479 37.9177 33.3479ZM21.3424 31.0905C21.2962 31.0905 21.2519 31.1089 21.2192 31.1416C21.1866 31.1743 21.1682 31.2187 21.1682 31.265V32.8135C21.1681 32.8609 21.1861 32.9064 21.2185 32.9409C21.2509 32.9754 21.2952 32.9961 21.3424 32.9989H37.9177C37.9648 32.9961 38.0091 32.9754 38.0415 32.9409C38.0739 32.9064 38.0918 32.8609 38.0918 32.8135V31.265C38.0918 31.2187 38.0734 31.1743 38.0408 31.1416C38.0081 31.1089 37.9638 31.0905 37.9177 31.0905H21.3424Z" fill="#1A3BFF"/>
<path d="M39.8657 36.3577C39.5637 36.3526 39.2621 36.3307 38.9624 36.2923H38.8101V30.7306H38.9515C39.5768 30.5551 40.2394 30.5646 40.8593 30.7581C41.4792 30.9516 42.03 31.3208 42.4451 31.8212C42.7838 32.2559 42.9794 32.7853 43.0048 33.3362C43.0301 33.8871 42.884 34.4323 42.5866 34.8964C42.3178 35.3733 41.9194 35.7638 41.4377 36.0225C40.956 36.2812 40.4108 36.3975 39.8657 36.3577ZM39.1583 35.9542C40.7691 36.1287 41.6833 35.7579 42.2818 34.7328C42.5489 34.3283 42.6803 33.849 42.6568 33.3646C42.6333 32.8802 42.4562 32.4159 42.1512 32.0393C41.8073 31.5942 41.3394 31.2614 40.8066 31.0828C40.2739 30.9042 39.7003 30.8879 39.1583 31.036V35.9542Z" fill="#1A3BFF"/>
<path d="M20.3953 36.3686L20.145 36.2486C19.7205 36.0305 19.2961 35.8342 18.8716 35.627C17.7833 35.0927 16.7494 34.5911 15.7154 34.0676C15.3672 33.8931 15.291 33.6859 15.291 33.5442C15.291 33.4024 15.3672 33.1843 15.7481 32.9989L18.8825 31.4722L20.3953 30.7306V36.3686ZM20.047 31.2977L19.0349 31.7884L15.9005 33.3152C15.7263 33.4024 15.6393 33.5005 15.6393 33.5442C15.6393 33.5878 15.7046 33.675 15.8678 33.7514C16.9017 34.2748 17.9357 34.7764 19.024 35.3108L20.047 35.8015V31.2977Z" fill="#1A3BFF"/>
</g>
<defs>
<clipPath id="clip0_201_86">
<rect width="43" height="40" fill="white"/>
</clipPath>
</defs>
</svg>
