<svg width="41" height="54" viewBox="0 0 41 54" fill="none" xmlns="http://www.w3.org/2000/svg">
<g clip-path="url(#clip0_201_80)">
<path fill-rule="evenodd" clip-rule="evenodd" d="M7.1056 49.1704L4.16427 46.2744C3.39212 45.5142 3.39212 44.2617 4.16427 43.5015L6.53429 41.168C5.88265 39.9639 5.38276 38.6719 5.0614 37.3096L1.99064 37.3096C0.897127 37.3096 2.22245e-06 36.4263 2.26952e-06 35.3496L2.44855e-06 31.2539C2.49561e-06 30.1772 0.897128 29.2939 1.99064 29.2939L5.34259 29.2939C5.75321 27.958 6.33791 26.6968 7.07882 25.541L4.90518 23.4009C4.13303 22.6406 4.13303 21.3882 4.90518 20.6279L6.23079 19.3184L6.27096 19.3535L12.9481 25.0972C10.4486 27.1978 8.85968 30.3267 8.85968 33.8159C8.85968 40.144 14.0728 45.2769 20.4955 45.2769C26.9227 45.2769 32.1359 40.144 32.1359 33.8159C32.1359 30.6475 30.8281 27.7778 28.717 25.7036L28.7973 23.5898L33.6355 18.2417C33.7293 18.3076 33.8141 18.3779 33.8989 18.457L36.8402 21.353C37.6123 22.1133 37.6123 23.3657 36.8402 24.126L34.4702 26.4595C35.1263 27.6636 35.6262 28.9556 35.9431 30.3179L39.0138 30.3179C40.1029 30.3267 41 31.21 41 32.2866L41 36.3779C41 37.4546 40.1029 38.3379 39.0094 38.3379L35.6574 38.3379C35.2468 39.6738 34.6576 40.9351 33.9212 42.0908L36.0948 44.231C36.867 44.9912 36.867 46.2437 36.0948 47.0039L33.1535 49.8999C32.3813 50.6602 31.1093 50.6602 30.3371 49.8999L27.9671 47.5664C26.7442 48.2124 25.432 48.7046 24.0483 49.0166L24.0483 52.04C24.0483 53.1123 23.1512 54 22.0577 54L17.8979 54C16.8044 54 15.9073 53.1167 15.9073 52.04L15.9073 48.7441C14.5504 48.3398 13.2694 47.7642 12.0956 47.0347L9.92195 49.1748C9.1498 49.9351 7.88221 49.9351 7.1056 49.1704ZM24.2804 33.8511C24.2804 35.9077 22.5888 37.5732 20.5 37.5732C18.4112 37.5732 16.7196 35.9077 16.7196 33.8511C16.7196 31.7944 18.4112 30.1289 20.5 30.1289C22.5888 30.1289 24.2804 31.7988 24.2804 33.8511ZM20.7321 26.4287L8.97126 16.3169L14.4879 15.9785C15.4922 9.06592 13.564 3.77051 8.0295 -1.44119e-06C18.92 0.0439443 24.6152 7.01367 25.49 15.3018L31.1182 14.9546L20.7321 26.4287Z" fill="#1A3BFF"/>
</g>
<defs>
<clipPath id="clip0_201_80">
<rect width="54" height="41" fill="white" transform="translate(41) rotate(90)"/>
</clipPath>
</defs>
</svg>
