<svg width="65" height="58" viewBox="0 0 65 58" fill="none" xmlns="http://www.w3.org/2000/svg">
<path d="M59.1049 39.5323C62.6748 25.3759 54.0755 8.79276 39.4619 0C45.951 8.77518 48.5536 19.1858 46.2851 28.471C46.1268 29.2799 45.7927 30.1064 45.4761 30.9154C42.68 28.9809 29.7195 20.9971 14.1388 5.2229C13.6464 4.73051 22.5798 17.9197 32.4804 28.3127C27.7675 25.5518 14.6136 16.1083 6.33079 8.47622C7.29799 10.1117 8.59932 11.7295 9.90065 13.5233C16.8821 22.4743 25.8155 33.2015 36.701 41.5018C29.0689 46.2148 18.3593 46.5489 7.47384 41.5018C4.71292 40.3588 2.44439 38.7409 0 36.9472C4.55465 44.1045 11.5361 50.4529 19.9771 54.0227C30.0536 58.4191 40.3588 58.4543 48.7119 53.3721C52.2817 51.5783 59.4215 49.6264 63.3254 57.1178C64.1344 59.2281 66.0864 49.4681 58.7708 40.5346C58.9467 40.1829 58.9467 39.8664 59.1049 39.5323Z" fill="url(#paint0_linear_111_182)"/>
<defs>
<linearGradient id="paint0_linear_111_182" x1="32.0934" y1="0.00648645" x2="32.0934" y2="57.3925" gradientUnits="userSpaceOnUse">
<stop stop-color="#F88A36"/>
<stop offset="1" stop-color="#FD2020"/>
</linearGradient>
</defs>
</svg>
