<svg width="51" height="51" viewBox="0 0 51 51" fill="none" xmlns="http://www.w3.org/2000/svg">
<path d="M29.3146 35.3988C29.1847 36.1941 28.9784 36.9622 28.7002 37.697L31.1953 39.9577C30.8454 40.694 30.447 41.4016 29.9872 42.0662L26.7838 41.0335C26.2785 41.6511 25.7128 42.216 25.0952 42.7213L26.1279 45.9247C25.4633 46.3845 24.7557 46.7821 24.0194 47.1328L21.7587 44.6377C21.024 44.9159 20.2566 45.1222 19.4605 45.2521L18.7489 48.548C18.3465 48.5799 17.9424 48.6094 17.5312 48.6094C17.1201 48.6094 16.716 48.5799 16.3128 48.548L15.6012 45.2521C14.8059 45.1222 14.0378 44.9159 13.303 44.6377L11.0423 47.1328C10.306 46.7829 9.59836 46.3845 8.93377 45.9247L9.96652 42.7213C9.34894 42.216 8.78395 41.6503 8.27873 41.0335L5.0753 42.0662C4.6155 41.4016 4.21786 40.694 3.86723 39.9577L6.36225 37.697C6.08414 36.9622 5.87775 36.1949 5.74786 35.3988L2.45198 34.6872C2.42011 34.284 2.39062 33.8799 2.39062 33.4688C2.39062 33.0576 2.42011 32.6535 2.45198 32.2503L5.74786 31.5387C5.87775 30.7434 6.08414 29.9753 6.36225 29.2405L3.86723 26.9798C4.21706 26.2435 4.6155 25.5359 5.0753 24.8713L8.27873 25.904C8.78395 25.2864 9.34973 24.7215 9.96731 24.2162L8.93456 21.0128C9.59916 20.553 10.3068 20.1554 11.0431 19.8047L13.3038 22.2997C14.0385 22.0216 14.8059 21.8152 15.602 21.6854L16.3136 18.3895C16.716 18.3576 17.1201 18.3281 17.5312 18.3281C17.9424 18.3281 18.3465 18.3576 18.7497 18.3895L19.4613 21.6854C20.2566 21.8152 21.0247 22.0216 21.7595 22.2997L24.0202 19.8047C24.7565 20.1546 25.4641 20.553 26.1287 21.0128L25.096 24.2162C25.7136 24.7215 26.2785 25.2872 26.7838 25.9048L29.9872 24.8721C30.447 25.5367 30.8446 26.2443 31.1953 26.9806L28.7002 29.2413C28.9784 29.976 29.1847 30.7434 29.3146 31.5395L32.6105 32.2511C32.6424 32.6535 32.6719 33.0576 32.6719 33.4688C32.6719 33.8799 32.6424 34.284 32.6105 34.6872L29.3146 35.3988ZM17.5312 25.5C13.1301 25.5 9.5625 29.0676 9.5625 33.4688C9.5625 37.8699 13.1301 41.4375 17.5312 41.4375C21.9324 41.4375 25.5 37.8699 25.5 33.4688C25.5 29.0676 21.9324 25.5 17.5312 25.5Z" fill="#0C4EFC"/>
<path d="M40.3689 12.993C40.2446 13.405 40.082 13.8003 39.882 14.1724L41.1403 16.5838C40.7155 17.1209 40.231 17.6054 39.6939 18.0301L37.2826 16.7718C36.9105 16.9726 36.5152 17.1352 36.1032 17.2587L35.2872 19.8565C34.9509 19.8964 34.6115 19.9219 34.2656 19.9219C33.9198 19.9219 33.5803 19.8964 33.2448 19.8573L32.4288 17.2595C32.0168 17.136 31.6216 16.9726 31.2495 16.7726L28.8381 18.0309C28.301 17.6062 27.8165 17.1217 27.3918 16.5846L28.65 14.1732C28.4492 13.8011 28.2867 13.4058 28.1632 12.9938L25.5653 12.1778C25.5255 11.8416 25.5 11.5021 25.5 11.1562C25.5 10.8104 25.5255 10.4709 25.5645 10.1355L28.1624 9.31945C28.2859 8.90747 28.4492 8.51222 28.6492 8.14008L27.391 5.72873C27.8157 5.19164 28.3002 4.70714 28.8373 4.28241L31.2487 5.54067C31.6208 5.33986 32.016 5.1773 32.428 5.05378L33.244 2.45597C33.5803 2.41613 33.9198 2.39062 34.2656 2.39062C34.6115 2.39062 34.9509 2.41613 35.2864 2.45517L36.1024 5.05298C36.5144 5.1765 36.9097 5.33986 37.2818 5.53988L39.6931 4.28161C40.2302 4.70634 40.7147 5.19084 41.1395 5.72794L39.8812 8.13928C40.082 8.51142 40.2446 8.90667 40.3681 9.31866L42.9659 10.1347C43.0057 10.4709 43.0312 10.8104 43.0312 11.1562C43.0312 11.5021 43.0057 11.8416 42.9667 12.177L40.3689 12.993ZM34.2656 7.96875C32.5053 7.96875 31.0781 9.39595 31.0781 11.1562C31.0781 12.9165 32.5053 14.3438 34.2656 14.3438C36.0259 14.3438 37.4531 12.9165 37.4531 11.1562C37.4531 9.39595 36.0259 7.96875 34.2656 7.96875Z" fill="#0C4EFC"/>
<path d="M46.8076 30.9753C46.6849 31.4176 46.512 31.8368 46.2905 32.228L47.0834 33.8967C46.7232 34.3565 46.3096 34.77 45.8498 35.1302L44.1811 34.3373C43.7907 34.5589 43.3707 34.7318 42.9285 34.8545L42.3085 36.5981C42.0224 36.6331 41.7331 36.6562 41.4375 36.6562C41.1419 36.6562 40.8526 36.6331 40.5665 36.5981L39.9465 34.8545C39.5043 34.7318 39.0851 34.5589 38.6939 34.3373L37.0252 35.1302C36.5654 34.77 36.1518 34.3565 35.7916 33.8967L36.5845 32.228C36.363 31.8375 36.1901 31.4176 36.0674 30.9761L34.3238 30.3562C34.2887 30.0693 34.2656 29.78 34.2656 29.4844C34.2656 29.1887 34.2887 28.8995 34.3238 28.6134L36.0674 27.9934C36.1901 27.5512 36.363 27.132 36.5845 26.7415L35.7916 25.0729C36.1518 24.6131 36.5654 24.1995 37.0252 23.8393L38.6939 24.6322C39.0843 24.4107 39.5043 24.2377 39.9465 24.115L40.5665 22.3715C40.8526 22.3356 41.1419 22.3125 41.4375 22.3125C41.7331 22.3125 42.0224 22.3356 42.3085 22.3707L42.9285 24.1142C43.3707 24.237 43.7899 24.4099 44.1811 24.6314L45.8498 23.8385C46.3096 24.1987 46.7232 24.6123 47.0834 25.0721L46.2905 26.7407C46.512 27.1312 46.6849 27.5512 46.8076 27.9934L48.5512 28.6134C48.5863 28.8995 48.6094 29.1887 48.6094 29.4844C48.6094 29.78 48.5863 30.0693 48.5512 30.3554L46.8076 30.9753ZM41.4375 27.0938C40.1171 27.0938 39.0469 28.164 39.0469 29.4844C39.0469 30.8048 40.1171 31.875 41.4375 31.875C42.7579 31.875 43.8281 30.8048 43.8281 29.4844C43.8281 28.164 42.7579 27.0938 41.4375 27.0938Z" fill="#0C4EFC"/>
<path d="M48.766 4.00032L43.9999 3.04726L43.0469 7.81257L44.6095 8.12574L45.0391 5.98055C45.8112 7.58705 46.2192 9.35771 46.2192 11.1563C46.2192 13.9039 45.3124 16.4874 43.5975 18.627L44.8414 19.6239C46.7579 17.2324 47.813 14.2258 47.813 11.1563C47.813 9.06924 47.3309 7.01171 46.4137 5.15499L48.4537 5.56299L48.766 4.00032Z" fill="#0C4EFC"/>
<path d="M18.8916 10.5929L17.7648 11.7196L18.8477 12.8026C18.4095 12.7747 17.9704 12.75 17.5313 12.75C11.3667 12.75 5.56383 15.4681 1.61133 20.208L2.83533 21.2288C6.48422 16.8531 11.84 14.3438 17.5313 14.3438C17.9369 14.3438 18.3417 14.3669 18.7465 14.3924L17.7648 15.3741L18.8916 16.5009L21.8456 13.5469L18.8916 10.5929Z" fill="#0C4EFC"/>
</svg>
