<svg width="41" height="46" viewBox="0 0 41 46" fill="none" xmlns="http://www.w3.org/2000/svg">
<g clip-path="url(#clip0_211_77)">
<path fill-rule="evenodd" clip-rule="evenodd" d="M29.0968 29.6584C29.0263 29.8328 28.9149 29.9961 28.7701 30.1409L27.2887 31.6217L27.2813 31.6292C27.1365 31.7739 26.9732 31.8853 26.7987 31.9558C26.6167 32.0337 26.4274 32.0745 26.2232 32.0745C26.019 32.0745 25.8259 32.0337 25.6477 31.9558C25.4732 31.8778 25.3135 31.7665 25.1762 31.6217L24.2109 30.6679C24.1515 30.6939 24.092 30.7273 24.0364 30.7533C23.873 30.8312 23.7022 30.898 23.5388 30.9611C23.5314 30.9685 23.524 30.9685 23.5129 30.9685C23.3495 31.0353 23.175 31.091 22.9856 31.1504C22.9262 31.1689 22.8668 31.1912 22.8037 31.2023V32.3789C22.8037 32.583 22.7629 32.776 22.6923 32.9542C22.6218 33.1286 22.5104 33.2882 22.3656 33.4292L22.3508 33.4441C22.206 33.5814 22.0426 33.6927 21.8681 33.7633C21.6899 33.8338 21.5005 33.8746 21.3075 33.8746H19.1912C18.987 33.8746 18.7977 33.8338 18.6157 33.7633C18.4412 33.6927 18.2779 33.5814 18.1331 33.4366C17.9883 33.2919 17.8769 33.1286 17.8063 32.9542C17.7358 32.776 17.695 32.5867 17.695 32.3789V31.0353C17.6281 31.0093 17.565 30.9908 17.4982 30.9648C17.3237 30.898 17.1529 30.8201 16.9747 30.7421C16.8002 30.6568 16.6294 30.5788 16.466 30.4935C16.4141 30.4675 16.3621 30.4341 16.3101 30.4081L15.4822 31.2506L15.4636 31.2692C15.3188 31.4065 15.1554 31.5104 14.9809 31.5809C14.8064 31.6514 14.6171 31.6848 14.4203 31.6848C14.2235 31.6848 14.0342 31.6514 13.8597 31.5809C13.6852 31.5104 13.5218 31.4102 13.377 31.2729C13.3696 31.2654 13.3622 31.2654 13.3622 31.258L11.8845 29.7623C11.7397 29.625 11.6246 29.4617 11.5503 29.2872C11.4724 29.1128 11.4315 28.9161 11.4315 28.7045C11.4315 28.5004 11.4724 28.3074 11.5503 28.1218C11.6283 27.94 11.7397 27.7841 11.8845 27.6468L12.8313 26.7003C12.7978 26.6335 12.7718 26.5778 12.7459 26.5185C12.6753 26.3552 12.6011 26.1844 12.5305 26.0026C12.4637 25.8318 12.4006 25.65 12.3486 25.4681C12.33 25.4087 12.3078 25.3456 12.2966 25.2863H11.1197C10.9155 25.2863 10.7224 25.2454 10.5442 25.1749C10.3697 25.1044 10.21 24.993 10.069 24.8483L10.0541 24.8335C9.91673 24.6887 9.80535 24.5254 9.73481 24.3584C9.66427 24.1802 9.62343 23.991 9.62343 23.798V21.6824C9.62343 21.263 9.76822 20.9104 10.0615 20.6246C10.2063 20.4799 10.3697 20.3686 10.5442 20.298C10.7224 20.2275 10.9118 20.1867 11.1197 20.1867H12.4637C12.4897 20.1199 12.5082 20.0568 12.5342 19.99C12.6011 19.8155 12.679 19.6448 12.757 19.4667C12.8424 19.2885 12.9204 19.1215 13.0057 18.9582C13.0317 18.9062 13.0652 18.8543 13.0911 18.8023L12.2483 17.9747L12.2298 17.9561C12.0924 17.8114 11.9885 17.648 11.9179 17.4736C11.8474 17.2992 11.814 17.1099 11.814 16.9132C11.814 16.7165 11.8474 16.5272 11.9179 16.3527C11.9885 16.1783 12.0887 16.015 12.2261 15.8703C12.2335 15.8628 12.2335 15.8554 12.2409 15.8554L13.7372 14.3745C13.882 14.2298 14.0453 14.1184 14.2198 14.0479C14.4017 13.97 14.5911 13.9292 14.7953 13.9292C14.9995 13.9292 15.1926 13.97 15.3708 14.0479C15.5453 14.1259 15.7049 14.2372 15.8423 14.382L16.7891 15.3284C16.8559 15.295 16.9116 15.269 16.971 15.243C17.1343 15.1725 17.3051 15.0983 17.4871 15.0277C17.6578 14.9609 17.8398 14.8978 18.0217 14.8459C18.0885 14.8273 18.1442 14.8051 18.2036 14.7939V13.6174C18.2036 13.4133 18.2445 13.2203 18.315 13.0421C18.3855 12.8677 18.4969 12.7081 18.6417 12.567L18.6566 12.5522C18.8014 12.4149 18.9647 12.3035 19.1318 12.233C19.31 12.1625 19.4994 12.1217 19.6924 12.1217H21.8087C22.0129 12.1217 22.2023 12.1625 22.3842 12.233C22.5587 12.3035 22.722 12.4149 22.8668 12.5596C23.0116 12.7044 23.123 12.8677 23.1936 13.0421C23.2641 13.2203 23.3049 13.4095 23.3049 13.6174V14.9609C23.3718 14.9869 23.4349 15.0055 23.5017 15.0315C23.6762 15.0983 23.847 15.1762 24.0252 15.2541C24.1997 15.3395 24.3705 15.4175 24.5339 15.5028C24.5858 15.5288 24.6378 15.5622 24.6898 15.5882L25.5177 14.7605C25.6625 14.6158 25.8259 14.5044 26.0004 14.4265C26.1823 14.3485 26.3717 14.3077 26.5759 14.3077C26.7801 14.3077 26.9694 14.3485 27.1514 14.4265C27.3333 14.5044 27.4892 14.6084 27.634 14.7605L29.1154 16.2414L29.1228 16.2488C29.2676 16.3936 29.379 16.5569 29.4496 16.7313C29.5275 16.9132 29.5684 17.1025 29.5684 17.3066C29.5684 17.5107 29.5275 17.7037 29.4496 17.8819C29.3716 18.06 29.2602 18.2159 29.1154 18.3532L28.1687 19.3182C28.1947 19.3776 28.2281 19.437 28.2541 19.4926C28.3209 19.6411 28.3914 19.8044 28.462 19.9826C28.4694 19.99 28.4694 19.9974 28.4694 20.0085C28.5362 20.1793 28.5993 20.3611 28.6513 20.543C28.6699 20.6024 28.6922 20.6655 28.7033 20.7249H29.8802C30.0844 20.7249 30.2775 20.7657 30.4557 20.8362C30.6302 20.9067 30.7899 21.0181 30.931 21.1628L30.9458 21.1777C31.0832 21.3224 31.1946 21.4857 31.2651 21.6527C31.3356 21.8309 31.3765 22.0202 31.3765 22.2132V24.3287C31.3765 24.5328 31.3356 24.7221 31.2651 24.904C31.1946 25.0784 31.0832 25.2417 30.9384 25.3939C30.7936 25.5386 30.6302 25.65 30.4557 25.7205C30.2775 25.791 30.0882 25.8318 29.8802 25.8318H28.5362C28.5102 25.8986 28.4917 25.9617 28.4657 26.0286C28.3988 26.203 28.3283 26.3737 28.2429 26.5519C28.1575 26.7263 28.0796 26.897 27.9942 27.0603C27.9682 27.1123 27.9348 27.1643 27.9088 27.2162L28.7367 28.0439C28.8815 28.1886 28.9929 28.3519 29.0709 28.5264C29.1488 28.7082 29.1897 28.8975 29.1897 29.1017C29.1897 29.3058 29.1488 29.4951 29.0709 29.6769L29.0968 29.6584ZM16.7037 43.0531C11.9885 42.166 7.84502 39.6534 4.87852 36.1238C1.88975 32.5719 0.0927734 27.9956 0.0927734 23.0074C0.0927734 18.3198 1.67812 13.996 4.3476 10.548C7.06905 7.02581 10.9192 4.41665 15.3596 3.26609L16.0205 5.81216C12.1555 6.81426 8.80291 9.08568 6.43045 12.1551C4.11369 15.1539 2.73626 18.9174 2.73626 23.0074C2.73626 27.361 4.29933 31.3471 6.89084 34.4313C9.37096 37.3819 12.7978 39.516 16.7074 40.3623V37.6418L21.6788 41.7207L16.7074 45.7996L16.7037 43.0531ZM24.2963 2.96546C28.9669 3.84508 33.0769 6.31692 36.0397 9.79828C39.073 13.3613 40.9034 17.9747 40.9034 23.0074C40.9034 27.4352 39.4926 31.5327 37.0941 34.8767C34.6326 38.3098 31.1314 40.945 27.0474 42.3293L26.6242 41.0823L26.2009 39.8352C26.3049 39.8018 26.4088 39.7647 26.5091 39.7276C29.9285 38.4991 32.8616 36.2462 34.9444 33.3439C37.031 30.4341 38.2599 26.8673 38.2599 23.0111C38.2599 18.6167 36.6709 14.5972 34.0348 11.5018C31.5584 8.59205 28.1612 6.49507 24.2925 5.65257V8.35823L19.3249 4.27561L24.2963 0.196701V2.96546ZM24.1923 23C24.1923 23.2561 24.1663 23.501 24.1218 23.7386H24.1143C24.0698 23.9798 23.9955 24.2099 23.9064 24.4289C23.8099 24.659 23.6985 24.8743 23.5686 25.0636C23.446 25.2603 23.2938 25.4421 23.1304 25.6054C22.9597 25.7762 22.7852 25.9172 22.5884 26.0508C22.399 26.1733 22.1837 26.2921 21.9535 26.3886C21.9461 26.396 21.9349 26.396 21.9275 26.4034C21.7196 26.4888 21.4968 26.5519 21.2666 26.6001C21.0253 26.6447 20.784 26.6706 20.5278 26.6706C20.2716 26.6706 20.0266 26.6447 19.789 26.6001C19.5476 26.5556 19.3174 26.4814 19.0984 26.3923C18.8682 26.2958 18.6529 26.1844 18.4635 26.0545C18.2667 25.9246 18.0848 25.7725 17.9214 25.6092C17.7581 25.4384 17.6133 25.264 17.4833 25.0673C17.3608 24.878 17.242 24.6627 17.1455 24.4326C17.1381 24.4252 17.1381 24.4141 17.1306 24.4066C17.0452 24.1988 16.9821 23.9761 16.9338 23.746C16.8893 23.5047 16.8633 23.2635 16.8633 23.0074C16.8633 22.7513 16.8893 22.5064 16.9338 22.2688C16.9784 22.0276 17.0527 21.7975 17.1418 21.5785C17.2383 21.3484 17.3497 21.1331 17.4796 20.9438C17.6021 20.7471 17.7544 20.5653 17.9177 20.402C18.0885 20.2312 18.263 20.0902 18.4598 19.9566C18.6491 19.8341 18.8645 19.7153 19.0947 19.6151C19.1021 19.6077 19.1132 19.6077 19.1207 19.6003C19.336 19.5149 19.5588 19.4518 19.7852 19.4036C20.0266 19.359 20.2679 19.3331 20.5241 19.3331C20.7803 19.3331 21.0253 19.359 21.2629 19.4036C21.5043 19.4481 21.7344 19.5223 21.9535 19.6114C22.1837 19.7079 22.399 19.8193 22.5884 19.9529C22.7852 20.0828 22.9671 20.2349 23.1304 20.3982C23.2938 20.569 23.4386 20.7434 23.5686 20.9401C23.6911 21.1294 23.8099 21.3447 23.9064 21.5748C23.9138 21.5822 23.9138 21.5933 23.9213 21.6008C24.0067 21.8086 24.0698 22.0313 24.118 22.2614C24.1663 22.5027 24.1923 22.7439 24.1923 23Z" fill="#1A3BFF" stroke="#1A3BFF" stroke-width="0.5" stroke-miterlimit="2.6131"/>
</g>
<defs>
<clipPath id="clip0_211_77">
<rect width="41" height="46" fill="white"/>
</clipPath>
</defs>
</svg>
