<svg width="50" height="43" viewBox="0 0 50 43" fill="none" xmlns="http://www.w3.org/2000/svg">
<g clip-path="url(#clip0_211_126)">
<path d="M28.6764 37.3611C27.5756 37.7595 26.436 38.0516 25.2747 38.2329L24.2273 42.9136C23.6304 42.9578 23.0334 43 22.4238 43C21.8143 43 21.2173 42.9578 20.6203 42.9136L19.573 38.2329C18.4068 38.0518 17.2623 37.7598 16.1565 37.3611L12.8051 40.9047C11.7186 40.4137 10.6749 39.84 9.68398 39.1892L11.2131 34.6391C10.2989 33.922 9.46179 33.1192 8.71415 32.2425L3.9697 33.7089C3.29107 32.7586 2.69288 31.7577 2.18085 30.7157L5.87586 27.5015C5.45971 26.4453 5.15516 25.3517 4.96677 24.2371L0.0861666 23.2327C0.037989 22.6601 -0.00390625 22.0856 -0.00390625 21.503C-0.00390625 20.9204 0.037989 20.3439 0.0861666 19.7714L4.96677 18.7669C5.15516 17.653 5.45971 16.5601 5.87586 15.5045L2.18085 12.2903C2.69244 11.2475 3.29066 10.2459 3.9697 9.29507L8.71415 10.7615C9.46234 9.88531 10.2994 9.0825 11.2131 8.36496L9.68398 3.81686C10.6754 3.16563 11.7198 2.59192 12.8072 2.10128L16.1586 5.64293C17.2596 5.24475 18.3991 4.95269 19.5604 4.77108L20.6077 0.0903963C21.2047 0.0462011 21.8017 0.00401306 22.4113 0.00401306C23.0208 0.00401306 23.6178 0.0462011 24.2148 0.0903963L25.2621 4.77108C26.4414 4.95589 28.379 5.32553 29.4661 5.84985L27.3317 11.2176C25.7862 10.5373 24.1054 10.1863 22.405 10.189C19.2756 10.189 16.2744 11.3812 14.0616 13.5034C11.8488 15.6256 10.6056 18.5038 10.6056 21.505C10.6056 24.5062 11.8488 27.3845 14.0616 29.5066C16.2744 31.6288 19.2756 32.821 22.405 32.821C24.3299 32.8231 26.2259 32.3719 27.9265 31.5072L28.6764 37.3611Z" fill="#1A3BFF"/>
<path d="M39.654 21.1213V22.5798H38.3029C34.5514 22.5798 30.8019 22.5938 27.0524 22.5657C26.4073 22.5657 26.0784 22.7204 25.8333 23.3311C25.0311 25.34 23.0662 26.4067 21.07 26.025C18.7931 25.5891 17.3813 23.998 17.375 21.8606C17.375 19.7573 18.7701 18.1341 20.9653 17.6962C23.016 17.2944 25.0373 18.3571 25.8375 20.3821C26.0889 21.0209 26.4408 21.1374 27.0671 21.1334C30.8857 21.1113 34.7064 21.1213 38.525 21.1213H39.654ZM24.7818 21.8465C24.7643 21.0743 24.4331 20.3391 23.8587 19.7977C23.2843 19.2562 22.5122 18.9512 21.7068 18.9477C20.1379 18.9799 18.7324 20.3539 18.7282 21.8586C18.724 23.3632 20.2238 24.7895 21.822 24.7494C22.6086 24.7202 23.3536 24.403 23.9038 23.863C24.454 23.323 24.7674 22.6014 24.7797 21.8465H24.7818Z" fill="#1A3BFF"/>
<path d="M33.7247 13.8251C33.7168 12.7165 34.1641 11.6495 34.97 10.8548C35.776 10.0601 36.8757 9.60153 38.0314 9.57833C40.522 9.54619 42.4805 11.4466 42.4805 13.8914C42.4899 14.4415 42.3835 14.9877 42.1676 15.4975C41.9516 16.0072 41.6306 16.4698 41.2238 16.8577C40.817 17.2456 40.3327 17.5508 39.8 17.7549C39.2673 17.9591 38.6971 18.058 38.1235 18.0457C35.5995 18.0377 33.7247 16.2378 33.7247 13.8251ZM41.0561 13.8371C41.0635 13.0805 40.7599 12.3515 40.2111 11.8079C39.6623 11.2642 38.9123 10.9497 38.1235 10.9323C37.3142 10.9375 36.5392 11.2466 35.9647 11.7934C35.3903 12.3402 35.0621 13.0811 35.0506 13.8572C35.0506 15.3699 36.4876 16.7179 38.0858 16.7199C38.8765 16.7093 39.6312 16.4012 40.1873 15.862C40.7433 15.3227 41.0561 14.5955 41.0582 13.8371H41.0561Z" fill="#1A3BFF"/>
<path d="M49.9999 21.8586C49.9881 22.982 49.5196 24.0567 48.6941 24.854C47.8687 25.6512 46.7514 26.1081 45.5801 26.1274C43.1985 26.1274 41.1331 24.1487 41.1289 21.8626C41.1247 19.5765 43.1335 17.644 45.5822 17.6259C46.7528 17.6269 47.8752 18.0731 48.7033 18.8665C49.5314 19.66 49.9977 20.736 49.9999 21.8586ZM42.5449 21.8827C42.577 22.6586 42.9231 23.3919 43.5097 23.9271C44.0963 24.4623 44.8773 24.7573 45.6869 24.7494C46.4573 24.7013 47.1815 24.3798 47.7182 23.8476C48.2549 23.3155 48.5658 22.6107 48.5902 21.8706C48.5902 20.2816 47.1427 18.9136 45.511 18.9537C44.719 18.9885 43.9709 19.3122 43.4195 19.8585C42.8682 20.4048 42.5553 21.1325 42.5449 21.8927V21.8827Z" fill="#1A3BFF"/>
<path d="M42.4806 29.0926C42.468 31.5193 40.5954 33.3433 38.0985 33.3433C37.5171 33.3475 36.9407 33.2397 36.4035 33.0262C35.8664 32.8127 35.3794 32.4979 34.9715 32.1006C34.5636 31.7032 34.243 31.2313 34.0289 30.7128C33.8147 30.1944 33.7113 29.64 33.7248 29.0825C33.7213 28.5249 33.8343 27.9724 34.0572 27.4574C34.2801 26.9424 34.6082 26.4754 35.0224 26.0841C35.4365 25.6927 35.9281 25.3849 36.4684 25.1788C37.0086 24.9727 37.5864 24.8724 38.1676 24.884C38.7416 24.8798 39.3106 24.9863 39.8409 25.1972C40.3711 25.4081 40.8516 25.7192 41.254 26.1118C41.6564 26.5044 41.9723 26.9706 42.183 27.4827C42.3937 27.9948 42.4949 28.5422 42.4806 29.0926ZM41.0688 29.0926C41.0713 28.7173 40.9956 28.3453 40.8459 27.9985C40.6963 27.6517 40.4758 27.3372 40.1974 27.0734C39.9191 26.8096 39.5885 26.602 39.2251 26.4626C38.8618 26.3233 38.473 26.2551 38.0817 26.2621C36.4605 26.2621 35.0403 27.61 35.0612 29.1106C35.0771 29.8863 35.4101 30.625 35.9884 31.1676C36.5666 31.7101 37.344 32.0132 38.153 32.0115C38.9401 31.9888 39.6863 31.6699 40.23 31.1236C40.7737 30.5773 41.0713 29.8477 41.0583 29.0926H41.0688Z" fill="#1A3BFF"/>
<path d="M42.2292 8.77477C41.6565 8.77909 41.0886 8.67376 40.5589 8.46495C40.0292 8.25614 39.5482 7.94805 39.1442 7.55872C38.7402 7.1694 38.4213 6.70667 38.2061 6.19764C37.9909 5.68861 37.8839 5.14352 37.8911 4.5943C37.8824 4.03798 37.9902 3.48563 38.2081 2.97001C38.4261 2.45438 38.7498 1.98598 39.16 1.59255C39.5702 1.19913 40.0586 0.888703 40.5963 0.67967C41.1339 0.470638 41.7099 0.367257 42.2899 0.375657C44.8036 0.375657 46.672 2.1957 46.6636 4.60836C46.6553 7.02102 44.7533 8.77678 42.2292 8.77477ZM42.3235 7.41476C43.9636 7.40471 45.3817 6.07885 45.3545 4.58224C45.3313 3.82472 45.0072 3.10433 44.4484 2.56845C43.8896 2.03257 43.1385 1.72173 42.3486 1.69951C41.9475 1.69325 41.5492 1.76444 41.1773 1.90884C40.8055 2.05324 40.4677 2.2679 40.1842 2.54004C39.9006 2.81218 39.677 3.13625 39.5267 3.49296C39.3764 3.84966 39.3024 4.23172 39.3092 4.61639C39.3141 4.99036 39.3961 5.35969 39.5505 5.70312C39.7049 6.04654 39.9287 6.35728 40.2089 6.6174C40.4891 6.87752 40.8202 7.08189 41.1831 7.21874C41.546 7.35559 41.9336 7.42221 42.3235 7.41476Z" fill="#1A3BFF"/>
<path d="M42.2292 42.6304C41.6565 42.6347 41.0886 42.5294 40.5589 42.3206C40.0292 42.1117 39.5482 41.8037 39.1442 41.4143C38.7402 41.025 38.4213 40.5623 38.2061 40.0532C37.9909 39.5442 37.8839 38.9991 37.8911 38.4499C37.8824 37.8936 37.9902 37.3412 38.2081 36.8256C38.4261 36.31 38.7498 35.8416 39.16 35.4482C39.5702 35.0547 40.0586 34.7443 40.5963 34.5353C41.1339 34.3262 41.7099 34.2229 42.2899 34.2313C44.8036 34.2313 46.672 36.0493 46.6636 38.462C46.6553 40.8746 44.7533 42.6344 42.2292 42.6304ZM42.3235 41.2704C43.9636 41.2704 45.3817 39.9365 45.3545 38.4399C45.3323 37.6816 45.0087 36.9602 44.4498 36.4235C43.8909 35.8868 43.1392 35.5754 42.3486 35.5531C41.9483 35.5466 41.5507 35.6173 41.1795 35.761C40.8082 35.9047 40.4708 36.1184 40.1873 36.3895C39.9038 36.6606 39.68 36.9836 39.5292 37.3393C39.3784 37.6949 39.3035 38.076 39.3092 38.4599C39.3122 38.835 39.3928 39.2058 39.5464 39.5507C39.6999 39.8957 39.9234 40.2079 40.2038 40.4694C40.4842 40.7308 40.816 40.9363 41.1799 41.0738C41.5437 41.2113 41.9325 41.2781 42.3235 41.2704Z" fill="#1A3BFF"/>
<path d="M36.3387 4.32311V5.70321C36.0542 5.75347 35.7641 5.76765 35.4757 5.74539C33.9445 5.44004 32.9893 6.25364 32.1787 7.30227C31.978 7.59846 31.8697 7.94346 31.8666 8.29667C31.8268 9.38949 31.8519 10.4823 31.8519 11.6655H30.2181C30.2181 10.1569 30.2013 8.6683 30.2348 7.18174C30.2348 6.95875 30.4443 6.71166 30.6056 6.52283C30.8737 6.21949 31.2549 5.9965 31.477 5.67106C32.694 3.88116 34.5205 4.19253 36.3387 4.32311Z" fill="#1A3BFF"/>
<path d="M36.3471 37.9477V39.5086C35.3123 39.5086 34.3111 39.5387 33.3161 39.4885C33.0501 39.4744 32.7589 39.2534 32.5452 39.0606C30.2118 36.9593 30.2139 36.9593 30.2139 33.8717V32.0416H31.8519C31.8519 33.1846 31.8519 34.2734 31.8519 35.3643C31.8519 36.6017 33.2826 37.9416 34.575 37.9477C35.1678 37.9517 35.7543 37.9477 36.3471 37.9477Z" fill="#1A3BFF"/>
<path d="M32.1513 15.0626C29.2188 14.1465 28.1903 16.6275 26.4119 17.9212L25.1865 16.9168C26.326 15.84 27.3755 14.7874 28.5045 13.8211C28.7873 13.578 29.3214 13.5479 29.7466 13.5218C30.528 13.4776 31.3156 13.5097 32.1513 13.5097V15.0626Z" fill="#1A3BFF"/>
<path d="M32.1576 28.733V29.9805C28.6804 31.2702 27.2581 28.5642 25.2451 26.7944L26.5187 25.5449C27.2476 26.3344 27.9389 27.0294 28.5631 27.7747C29.1873 28.52 29.9854 28.8756 31.0055 28.741C31.3889 28.7143 31.7738 28.7117 32.1576 28.733Z" fill="#1A3BFF"/>
</g>
<defs>
<clipPath id="clip0_211_126">
<rect width="50" height="43" fill="white"/>
</clipPath>
</defs>
</svg>
