<svg width="164" height="35" viewBox="0 0 164 35" fill="none" xmlns="http://www.w3.org/2000/svg">
<path d="M51.5849 26.1972C51.525 26.1354 51.4537 26.0865 51.3753 26.0535C51.2969 26.0205 51.2129 26.004 51.1282 26.0049C50.9495 26.0125 50.7807 26.0924 50.6583 26.2274C50.1664 26.6972 49.6458 27.1339 49.0998 27.5348C48.5832 27.9109 48.0275 28.226 47.443 28.4741C46.804 28.7419 46.1391 28.938 45.4597 29.0591C44.6342 29.2022 43.7982 29.2702 42.9613 29.2624C41.5767 29.2747 40.2035 29.004 38.9203 28.4659C37.7036 27.9474 36.6096 27.1633 35.713 26.167C34.7738 25.0986 34.0516 23.8462 33.589 22.4838C33.0501 20.8894 32.7868 19.2094 32.811 17.5206C32.7928 15.8478 33.0625 14.1849 33.6075 12.6097C34.0826 11.2405 34.8204 9.98484 35.7767 8.91828C36.6961 7.91012 37.8131 7.11693 39.0531 6.5919C40.4034 6.03259 41.8467 5.75264 43.3011 5.76792C44.054 5.75962 44.806 5.82398 45.5473 5.96018C46.1372 6.07011 46.7171 6.23089 47.2811 6.44084C47.7191 6.60124 48.1414 6.80449 48.5422 7.04784C48.9007 7.27581 49.206 7.48455 49.4423 7.67132C49.6786 7.85809 49.891 8.02838 50.0344 8.15472C50.2166 8.34288 50.4554 8.46108 50.7114 8.48981C50.8142 8.48816 50.9152 8.46263 51.0072 8.41508C51.0991 8.36753 51.1795 8.2992 51.2424 8.21515L51.33 8.07232L51.2424 7.41588C50.7048 6.94584 50.14 6.51015 49.5511 6.11125C48.9844 5.72792 48.3801 5.40754 47.7484 5.15543C47.0892 4.89505 46.4059 4.70545 45.7093 4.58963C44.9116 4.46287 44.1055 4.40226 43.2985 4.40835C41.6441 4.38984 40.0026 4.71098 38.4689 5.35318C37.0382 5.9638 35.7494 6.88226 34.6881 8.0476C33.6158 9.2523 32.7879 10.6672 32.2535 12.2087C31.6673 13.9161 31.377 15.7171 31.3959 17.5289C31.3722 19.3778 31.6624 21.2166 32.2535 22.9617C32.7788 24.4972 33.5989 25.9069 34.6642 27.1063C35.6939 28.2454 36.9479 29.1427 38.3415 29.7376C39.807 30.3548 41.3764 30.6647 42.9586 30.6494C43.8997 30.6532 44.8388 30.5612 45.7624 30.3748C46.5657 30.2125 47.3512 29.9669 48.1068 29.6414C48.7995 29.3367 49.4597 28.9584 50.0768 28.5126C50.6705 28.0827 51.229 27.6032 51.7469 27.0788L51.7309 26.329L51.5849 26.1972Z" fill="#B8B8B8"/>
<path d="M81.8024 4.68298L81.3059 5.19385V16.6197H65.5508V5.19385L65.0543 4.68298H64.6454L64.1489 5.19385V29.8446L64.6454 30.3583H65.0543L65.5508 29.8446V18.0342H81.3059V29.8446L81.8024 30.3583H82.2113L82.7078 29.8446V5.19385L82.2113 4.68298H81.8024Z" fill="#B8B8B8"/>
<path d="M103.727 4.77356H103.385L102.928 5.08942L92.9878 29.7402L93.4445 30.4516H93.71C93.8649 30.4565 94.0171 30.4094 94.144 30.3173C94.2708 30.2252 94.3654 30.0931 94.4136 29.9407L103.547 7.24551L112.691 29.938C112.734 30.0865 112.822 30.2167 112.943 30.3088C113.064 30.4009 113.21 30.45 113.36 30.4488H113.665L114.125 29.7375L104.184 5.08942L103.727 4.77356Z" fill="#B8B8B8"/>
<path d="M125.581 4.68298L125.085 5.19385V29.8446L125.581 30.3583H125.99L126.487 29.8446V5.19385L125.99 4.68298H125.581Z" fill="#B8B8B8"/>
<path d="M159.216 4.68298H158.876L158.379 5.19385V27.5018L142.433 5.04279C142.363 4.93036 142.266 4.83832 142.151 4.77537C142.037 4.71241 141.909 4.68062 141.78 4.68298H141.644L141.148 5.19385V29.8446L141.644 30.3583H141.987L142.481 29.8446V7.45156L158.517 30.0204C158.581 30.123 158.669 30.2075 158.772 30.2664C158.876 30.3254 158.991 30.3569 159.109 30.3583H159.21L159.707 29.8446V5.19385L159.216 4.68298Z" fill="#B8B8B8"/>
<path d="M18.9888 7.66581C18.2357 6.6142 17.2484 5.76619 16.1107 5.19386C15.0223 4.66039 13.833 4.38367 12.6286 4.38367C11.4242 4.38367 10.2349 4.66039 9.1465 5.19386C8.00801 5.7661 7.0198 6.61408 6.26577 7.66581C5.39511 8.90036 4.74995 10.2892 4.3621 11.7637C3.86918 13.6429 3.63587 15.5848 3.66913 17.5316C3.63695 19.4729 3.87025 21.4092 4.3621 23.283C4.7491 24.7567 5.39533 26.144 6.26843 27.3755C7.02289 28.4226 8.01132 29.2651 9.14916 29.8309C10.2387 30.3567 11.4264 30.6291 12.6286 30.6291C13.8309 30.6291 15.0185 30.3567 16.1081 29.8309C17.245 29.2636 18.2331 28.4214 18.9888 27.3755C19.8603 26.1431 20.5064 24.7561 20.8951 23.283C21.3867 21.4092 21.6199 19.4729 21.5881 17.5316C21.6213 15.5848 21.388 13.6429 20.8951 11.7637C20.5064 10.289 19.8603 8.90018 18.9888 7.66581ZM12.6167 29.1662C11.6253 29.1702 10.6459 28.942 9.75186 28.4988C8.90648 28.0682 8.16316 27.4502 7.57471 26.6888L18.3197 9.35497C18.8133 10.2502 19.196 11.2063 19.4587 12.2005C19.8983 13.9354 20.1056 15.7246 20.0747 17.5179C20.1058 19.3103 19.8985 21.0986 19.4587 22.8326C19.1329 24.131 18.5804 25.3569 17.8285 26.4498C17.2176 27.3189 16.4123 28.0219 15.4815 28.4988C14.5914 28.9427 13.6153 29.171 12.6273 29.1662H12.6167ZM5.756 22.8326C5.31541 21.0987 5.10725 19.3104 5.13737 17.5179C5.10727 15.7245 5.31543 13.9353 5.756 12.2005C6.08634 10.8982 6.64424 9.66945 7.40213 8.57493C8.30175 7.30709 9.60267 6.40577 11.0784 6.02787C12.5542 5.64997 14.1114 5.81942 15.4788 6.50674C16.2538 6.90675 16.9407 7.46775 17.4966 8.1547L6.7782 25.4583C6.34157 24.6264 5.9986 23.7454 5.756 22.8326Z" fill="#B8B8B8"/>
</svg>
