<svg width="30" height="30" viewBox="0 0 30 30" fill="none" xmlns="http://www.w3.org/2000/svg">
<g clip-path="url(#clip0_111_45)">
<path d="M4.16459 9.71747C3.64769 9.71747 3.20912 9.89772 2.84861 10.2582C2.48809 10.6187 2.30779 11.0513 2.30779 11.5563V19.3086C2.30779 19.8261 2.48804 20.2643 2.84861 20.6249C3.20912 20.9854 3.64769 21.1657 4.16459 21.1657C4.68111 21.1657 5.11702 20.9854 5.47194 20.6249C5.82616 20.2644 6.00376 19.8261 6.00376 19.3086V11.5563C6.00376 11.0513 5.8235 10.6187 5.46294 10.2582C5.10237 9.89772 4.6695 9.71747 4.16459 9.71747Z" fill="white"/>
<path d="M19.0927 2.75817L20.3727 0.396788C20.4568 0.240455 20.4269 0.120574 20.2828 0.0362777C20.1264 -0.0364103 20.0063 0.000421912 19.9223 0.14417L18.6243 2.52443C17.4822 2.01946 16.2742 1.76652 15.0004 1.76652C13.7263 1.76652 12.5182 2.01952 11.3765 2.52443L10.0785 0.14417C9.99412 0.000421912 9.87397 -0.0360848 9.71796 0.0362777C9.57356 0.120954 9.54367 0.240455 9.62802 0.396788L10.9081 2.75817C9.61012 3.42012 8.57632 4.34201 7.80713 5.52584C7.03794 6.71033 6.65318 8.00472 6.65318 9.41129H23.3295C23.3295 8.00504 22.9446 6.7106 22.1755 5.52584C21.4063 4.34201 20.3784 3.42012 19.0927 2.75817ZM11.6919 6.19284C11.5534 6.3316 11.3881 6.40065 11.1959 6.40065C11.0033 6.40065 10.8414 6.3316 10.7092 6.19284C10.5771 6.05473 10.511 5.89004 10.511 5.6972C10.511 5.50501 10.5771 5.34 10.7092 5.20157C10.8414 5.06346 11.0037 4.99441 11.1959 4.99441C11.3881 4.99441 11.5534 5.06346 11.6919 5.20157C11.83 5.34033 11.8994 5.50501 11.8994 5.6972C11.899 5.88972 11.8297 6.05473 11.6919 6.19284ZM19.2908 6.19284C19.1584 6.3316 18.9961 6.40065 18.8042 6.40065C18.6116 6.40065 18.4463 6.3316 18.3081 6.19284C18.1697 6.05473 18.1007 5.89004 18.1007 5.6972C18.1007 5.50501 18.1697 5.34 18.3081 5.20157C18.4463 5.06346 18.6116 4.99441 18.8042 4.99441C18.9964 4.99441 19.1584 5.06346 19.2908 5.20157C19.4231 5.34033 19.489 5.50501 19.489 5.6972C19.489 5.88972 19.423 6.05473 19.2908 6.19284Z" fill="white"/>
<path d="M6.72478 22.0671C6.72478 22.6205 6.91697 23.0889 7.3014 23.4734C7.68616 23.8578 8.15461 24.05 8.70764 24.05H10.0418L10.0601 28.143C10.0601 28.6598 10.2404 29.0987 10.6009 29.4593C10.9614 29.8199 11.3943 30.0001 11.8989 30.0001C12.4155 30.0001 12.8543 29.8199 13.2149 29.4593C13.5755 29.0987 13.7557 28.6599 13.7557 28.143V24.0504H16.2436V28.143C16.2436 28.6598 16.4238 29.0987 16.7844 29.4593C17.1449 29.8199 17.5834 30.0001 18.1003 30.0001C18.6169 30.0001 19.0558 29.8199 19.4163 29.4593C19.7769 29.0987 19.9571 28.6599 19.9571 28.143V24.0504H21.3093C21.8501 24.0504 22.3125 23.8581 22.6976 23.4737C23.082 23.0892 23.2743 22.6208 23.2743 22.0674V10.0597H6.72478V22.0671Z" fill="white"/>
<path d="M25.8355 9.71747C25.3306 9.71747 24.898 9.89507 24.5374 10.2493C24.1769 10.6042 23.9967 11.0401 23.9967 11.5563V19.3086C23.9967 19.8261 24.1769 20.2643 24.5374 20.6249C24.898 20.9854 25.3309 21.1657 25.8355 21.1657C26.3521 21.1657 26.7909 20.9854 27.1515 20.6249C27.5121 20.2643 27.6923 19.8261 27.6923 19.3086V11.5563C27.6923 11.04 27.5121 10.6042 27.1515 10.2493C26.7909 9.89507 26.3521 9.71747 25.8355 9.71747Z" fill="white"/>
</g>
<defs>
<clipPath id="clip0_111_45">
<rect width="30" height="30" fill="white"/>
</clipPath>
</defs>
</svg>
