<svg width="82" height="82" viewBox="0 0 82 82" fill="none" xmlns="http://www.w3.org/2000/svg">
<g clip-path="url(#clip0_474_3)">
<path d="M38.5118 24.7799L22.6323 16.6101L22.2807 34.3343L38.1744 41.7882L38.5118 24.7799Z" fill="white"/>
<path d="M1.30027 67.6137L16.1519 74.5742L16.4894 57.5647L0.609863 49.395L0.280919 65.9746C0.267034 66.6744 0.666494 67.3167 1.30027 67.6137V67.6137Z" fill="white"/>
<path d="M38.0087 50.1358L21.8027 57.6707L21.4652 74.682L37.6568 67.8729L38.0087 50.1358Z" fill="white"/>
<path d="M34.468 45.9213L19.5385 38.9243L4.31676 45.3256L19.2381 53.0024L34.468 45.9213Z" fill="white"/>
<path d="M80.7293 51.2743L64.514 58.5436L64.177 75.5293L79.1516 69.232C79.9005 68.917 80.3937 68.1903 80.4098 67.378L80.7293 51.2743Z" fill="white"/>
<path d="M56.4483 13.4283L42.9978 7.01906C42.0546 6.56967 40.9652 6.5407 39.9995 6.93953L26.3819 12.5628L41.2804 20.2279L56.4483 13.4283Z" fill="white"/>
<path d="M77.1888 47.0379L62.2378 39.777L47.0288 46.1729L61.9704 53.8602L77.1888 47.0379Z" fill="white"/>
<path d="M42.9839 67.979L58.8641 75.4216L59.2016 58.4121L43.3247 50.2437L42.9839 67.979Z" fill="white"/>
<path d="M59.694 35.0816L60.04 17.642L43.8246 24.9112L43.4875 41.8968L50.6545 38.8829L59.694 35.0816Z" fill="white"/>
</g>
<defs>
<clipPath id="clip0_474_3">
<rect width="80.1411" height="80.1411" fill="white" transform="translate(1.58984) rotate(1.13662)"/>
</clipPath>
</defs>
</svg>
