<svg width="90" height="91" viewBox="0 0 90 91" fill="none" xmlns="http://www.w3.org/2000/svg">
<g clip-path="url(#clip0_321_231)">
<path d="M66.9684 7.17069C67.7733 4.71986 68.541 2.38909 69.3066 0.0583191H69.5295C71.9049 6.74427 74.2761 13.4302 76.7733 20.437L57.0583 10.8179L65.2328 9.09781C64.6612 8.72522 64.3186 8.48718 63.9636 8.26983C45.9471 -2.46702 22.6556 3.99745 12.6898 22.5008C12.4442 22.9562 12.2213 23.4219 11.9737 23.8752C11.6022 24.5604 11.0141 24.7777 10.3227 24.4755C9.5942 24.1567 9.4972 23.5171 9.72009 22.8195C9.79333 22.6258 9.88452 22.4394 9.99249 22.2627C16.7409 9.70431 27.1216 2.42635 41.2933 0.840762C50.1984 -0.152817 58.4802 1.91714 66.1058 6.64905C66.3328 6.79188 66.568 6.93057 66.9684 7.17069Z" fill="white"/>
<path d="M23.2025 83.8294C22.4079 86.2492 21.6423 88.5903 20.8766 90.919L20.6538 90.95L13.4038 70.5548L33.1105 80.1614L24.87 81.9043C26.1268 82.6267 27.0823 83.2229 28.0791 83.7404C36.7077 88.2312 46.7559 89.1209 56.0355 86.2154C65.315 83.31 73.0743 76.845 77.6235 68.2281C77.8484 67.8038 77.9681 67.2428 78.3148 66.9862C78.7276 66.6819 79.4272 66.3879 79.8007 66.5515C80.1743 66.715 80.3786 67.4333 80.488 67.9445C80.5457 68.2157 80.2651 68.5655 80.102 68.876C73.3226 81.3703 62.9317 88.5986 48.8074 90.151C39.9766 91.1218 31.7567 89.0705 24.1869 84.4048C23.9021 84.2268 23.609 84.0654 23.2025 83.8294Z" fill="white"/>
<path d="M89.9524 43.3597C89.9111 42.4241 89.3168 41.6106 88.4025 41.7907C86.5348 42.1571 85.8476 41.1987 85.4431 39.671C85.3526 39.416 85.2429 39.1683 85.115 38.93C85.6185 38.4891 86.0767 38.1269 86.4894 37.717C87.2447 36.9718 87.3149 35.9989 86.5864 35.2331C85.6495 34.2271 84.6754 33.25 83.6703 32.3124C82.8655 31.561 81.8811 31.6334 81.1092 32.4221C80.8451 32.6912 80.6573 33.0658 80.3518 33.25C80.0401 33.413 79.689 33.4847 79.3385 33.457C79.0847 33.4467 78.8515 33.1942 78.5894 33.1424C77.3511 32.8899 76.8538 32.2896 77.1448 30.9213C77.3924 29.7042 76.6206 28.9383 75.3988 28.9073C74.0588 28.8728 72.7194 28.8728 71.3807 28.9073C70.2395 28.9383 69.6513 29.6049 69.6554 30.7702C69.6554 31.1842 69.7483 31.5982 69.7008 32.0122C69.6699 32.2585 69.511 32.6042 69.3128 32.6994C68.5183 33.0803 67.6845 33.3805 66.8363 33.7179C66.5433 33.3825 66.2544 33.0865 66.0108 32.7595C65.4413 32.0039 64.6199 31.4264 63.8109 31.9315C62.8368 32.5525 62.0959 33.5419 61.258 34.374C61.2415 34.3885 61.258 34.4423 61.258 34.4734C61.6708 35.7443 61.223 36.8104 60.3975 37.7646C61.0166 38.4394 62.2259 38.8451 61.1796 39.9815C61.9535 40.1885 62.9359 40.2548 63.8068 40.677C64.6777 41.0993 64.818 49.6275 63.7469 49.9463C63.2723 50.0871 61.1177 50.1885 61.1177 50.1885L61.1528 51.0041C62.356 52.246 60.7854 52.5503 60.5729 52.9581C60.9072 54.0345 61.4458 54.8769 61.3323 55.62C61.1693 56.7068 61.6295 57.276 62.3064 57.8763C62.5892 58.1268 62.8327 58.4228 63.1154 58.6732C63.9409 59.3956 64.9253 59.3646 65.6807 58.5801C66.0934 58.1661 66.4484 57.7045 66.8363 57.2594C67.6061 57.5741 68.3181 57.9136 69.0611 58.1557C69.5749 58.3234 69.802 58.5697 69.705 59.1162C69.6554 59.4589 69.634 59.805 69.641 60.1512C69.6224 61.4201 70.225 62.0617 71.4984 62.0845C72.7717 62.1073 74.0409 62.1094 75.3101 62.0845C76.5793 62.0597 77.3594 61.3 77.12 60.0249C76.8806 58.7498 77.3904 58.3006 78.4986 57.8225C79.6398 57.3298 80.2775 57.3857 81.0122 58.4311C81.7469 59.4764 82.8428 59.466 83.7673 58.5925C84.5165 57.8866 85.2264 57.1435 85.9549 56.4046C87.4924 54.8562 87.4635 54.14 85.8331 52.6973C85.5855 52.4779 85.1604 52.128 85.214 51.9604C85.4823 51.0744 85.7712 50.1595 86.281 49.4081C86.4688 49.1328 87.2798 49.2363 87.804 49.2487C89.1413 49.2818 89.9008 48.7644 89.9483 47.5928C90.0143 46.1852 90.0143 44.7652 89.9524 43.3597ZM73.3289 51.8196C72.5029 51.808 71.6874 51.6331 70.9289 51.3049C70.1705 50.9766 69.484 50.5016 68.9089 49.9068C68.3338 49.3121 67.8813 48.6094 67.5774 47.839C67.2734 47.0686 67.124 46.2456 67.1377 45.4172C67.1686 41.9314 70.0475 39.0997 73.4857 39.1722C75.1543 39.1984 76.7446 39.8865 77.9084 41.0861C79.0723 42.2856 79.7149 43.8988 79.6956 45.5725C79.6722 47.2461 78.9895 48.8424 77.7966 50.0129C76.6038 51.1834 74.9976 51.8329 73.3289 51.8196Z" fill="white"/>
<path d="M73.3541 41.4202C72.2783 41.4414 71.2545 41.8886 70.5064 42.6643C69.7582 43.4399 69.3463 44.4809 69.3607 45.5601C69.3848 46.6223 69.8195 47.6335 70.5731 48.3801C71.3268 49.1267 72.3402 49.5503 73.3995 49.5613C74.4751 49.5473 75.5024 49.1109 76.2609 48.3458C77.0194 47.5807 77.4488 46.5479 77.4568 45.469C77.4389 44.3893 76.9989 43.3599 76.2314 42.6025C75.464 41.8452 74.4307 41.4206 73.3541 41.4202Z" fill="white"/>
<path d="M0.0473226 47.6279C0.0885975 48.5636 0.682959 49.375 1.5972 49.1949C3.46489 48.8285 4.15006 49.789 4.55662 51.3145C4.64664 51.5704 4.75634 51.8188 4.88475 52.0576C4.38119 52.4985 3.92305 52.8608 3.5103 53.2686C2.75497 54.0158 2.68479 54.9887 3.41329 55.7525C4.35023 56.7585 5.32226 57.7321 6.32937 58.6732C7.13423 59.4225 8.11865 59.3522 8.89049 58.5635C9.15465 58.2944 9.34244 57.9177 9.64788 57.7355C9.95953 57.5723 10.3107 57.5006 10.6612 57.5285C10.913 57.5409 11.1482 57.7914 11.4103 57.8452C12.6486 58.0978 13.1439 58.6981 12.8549 60.0663C12.6073 61.2834 13.3771 62.0493 14.6009 62.0804C15.9402 62.1135 17.2837 62.1176 18.619 62.0804C19.7602 62.0493 20.3484 61.3807 20.3443 60.2174C20.3443 59.8034 20.2514 59.3894 20.2989 58.9754C20.3298 58.727 20.4887 58.3834 20.6869 58.2882C21.4814 57.9073 22.3152 57.6072 23.1634 57.2677C23.4564 57.6051 23.7453 57.8991 23.9889 58.2261C24.5584 58.9837 25.3798 59.5612 26.1888 59.0541C27.1629 58.4331 27.9038 57.4457 28.7417 56.6136C28.7561 56.5991 28.7417 56.5453 28.7314 56.5122C28.3186 55.2412 28.7664 54.1773 29.5919 53.221C28.9625 52.5482 27.7635 52.1404 28.8098 51.0061C28.0359 50.7991 27.0535 50.7308 26.1826 50.3106C25.3117 49.8904 25.1714 41.3581 26.2425 41.0414C26.7171 40.9006 28.8717 40.7992 28.8717 40.7992L28.8345 39.9836C27.6334 38.7416 29.2039 38.4353 29.4165 38.0275C29.0822 36.9511 28.5436 36.1107 28.655 35.3676C28.8201 34.2809 28.3599 33.7116 27.683 33.1093C27.4002 32.8588 27.1567 32.5628 26.874 32.3144C26.0485 31.592 25.0641 31.6231 24.3067 32.4076C23.8939 32.8216 23.541 33.2832 23.153 33.7282C22.3833 33.4115 21.6713 33.0741 20.9283 32.8298C20.4145 32.6622 20.1874 32.4159 20.2844 31.8715C20.3318 31.5286 20.3532 31.1826 20.3484 30.8365C20.367 29.5676 19.7644 28.9259 18.491 28.9011C17.2177 28.8762 15.9485 28.8783 14.6793 28.9011C13.4101 28.9238 12.63 29.6856 12.8694 30.9607C13.1088 32.2358 12.599 32.685 11.4908 33.1631C10.3496 33.6537 9.71185 33.5978 8.97716 32.5525C8.24247 31.5071 7.14662 31.5175 6.22206 32.391C5.47292 33.0989 4.76299 33.84 4.03448 34.581C2.49699 36.1273 2.52589 36.8435 4.15418 38.2862C4.40183 38.5057 4.82903 38.8555 4.77331 39.0252C4.50502 39.9091 4.2161 40.8261 3.70635 41.5754C3.51855 41.8507 2.7075 41.7493 2.18331 41.7369C0.846 41.7017 0.0865363 42.2192 0.0370064 43.3928C-0.0145873 44.8025 -0.0145898 46.2142 0.0473226 47.6279ZM16.6729 39.1763C17.4988 39.1879 18.3144 39.3628 19.0728 39.6911C19.8313 40.0193 20.5178 40.4944 21.0929 41.0891C21.668 41.6838 22.1205 42.3865 22.4244 43.1569C22.7283 43.9273 22.8778 44.7503 22.8641 45.5787C22.8566 46.4071 22.6863 47.2259 22.3629 47.9883C22.0396 48.7507 21.5696 49.4416 20.9798 50.0216C20.3901 50.6017 19.6921 51.0594 18.9258 51.3686C18.1595 51.6778 17.3399 51.8325 16.514 51.8237C14.8458 51.797 13.256 51.1086 12.0926 49.9091C10.9292 48.7096 10.2869 47.0968 10.3062 45.4234C10.3291 43.7497 11.0116 42.153 12.2045 40.9824C13.3975 39.8118 15.004 39.1625 16.6729 39.1763Z" fill="white"/>
<path d="M16.6464 49.5654C17.7226 49.5453 18.7469 49.0984 19.4953 48.3225C20.2437 47.5466 20.6552 46.505 20.6398 45.4255C20.6157 44.3634 20.181 43.3521 19.4273 42.6055C18.6737 41.8589 17.6602 41.4353 16.601 41.4243C15.5236 41.4362 14.494 41.8724 13.7343 42.6387C12.9745 43.405 12.5454 44.4401 12.5396 45.5208C12.5585 46.6004 12.9996 47.6294 13.7678 48.386C14.536 49.1426 15.5698 49.5662 16.6464 49.5654Z" fill="white"/>
<path d="M45.0909 40.9544C43.8949 40.9668 42.7513 41.4484 41.905 42.2961C41.0587 43.1438 40.577 44.2902 40.563 45.4897C40.5764 46.6893 41.0572 47.836 41.9025 48.6847C42.7479 49.5334 43.8908 50.0167 45.0867 50.0312C46.2825 50.0178 47.4256 49.5355 48.2714 48.6875C49.1172 47.8395 49.5986 46.6932 49.6125 45.4938C49.6002 44.2945 49.12 43.1477 48.2748 42.2991C47.4296 41.4506 46.2866 40.9679 45.0909 40.9544Z" fill="white"/>
<path d="M63.4416 43.0202C63.4086 42.0391 62.6161 41.1573 61.708 41.3643C59.6587 41.8238 58.8972 40.7723 58.4762 39.0687C58.3716 38.7665 58.2418 38.4736 58.0882 38.1931C58.5484 37.7791 58.988 37.4086 59.4173 37.0174C60.5255 36.0052 60.5792 34.9681 59.5494 33.9021C58.5938 32.9127 57.6239 31.9356 56.6333 30.9814C55.5643 29.9464 54.5448 30.0106 53.5253 31.1263C53.1125 31.5734 52.7101 32.0246 52.3242 32.4511C51.7566 32.1882 51.2923 31.9584 50.8238 31.7576C49.1935 31.0663 49.1935 31.0704 49.2451 29.2343C49.2843 27.8433 48.6136 27.0961 47.237 27.0547C46.2402 27.0257 45.2414 27.0982 44.2487 27.0361C41.2769 26.8518 40.5835 27.8268 40.9983 30.4039C41.0128 30.5053 41.0479 30.6357 40.9983 30.7082C40.8745 30.9151 40.7548 31.1925 40.5608 31.2815C39.661 31.6955 38.7365 32.0391 37.7892 32.4221C37.3764 31.946 36.9761 31.472 36.5509 31.0207C35.6181 30.023 34.5821 29.9857 33.5853 30.9338C32.5432 31.9336 31.5216 32.9541 30.5248 34.0015C29.625 34.9474 29.6787 35.9948 30.6239 36.8994C31.1089 37.3651 31.6145 37.8081 32.0685 38.2324C31.8085 38.7893 31.5938 39.2219 31.406 39.6648C30.6837 41.3643 30.6878 41.3663 28.8325 41.3208C27.5014 41.2836 26.7255 41.9542 26.6924 43.2604C26.6532 44.7404 26.6573 46.2225 26.6924 47.7025C26.7234 49.0128 27.4932 49.6917 28.8181 49.6565C29.0943 49.6639 29.3706 49.6459 29.6436 49.6027C30.5166 49.4123 30.9995 49.7517 31.1398 50.6377C31.1823 50.8047 31.2432 50.9665 31.3214 51.12C31.9963 52.7966 31.9963 52.7966 30.7023 54.0034C29.625 55.0094 29.5961 56.0403 30.6466 57.1229C31.5574 58.0612 32.4799 58.9872 33.4141 59.9007C34.6069 61.0703 35.6842 61.0765 36.7161 59.7269C37.4631 58.7436 38.0699 58.5201 39.2194 59.1328C40.8993 60.027 40.9529 59.9256 40.9158 61.8051C40.891 63.1361 41.5617 63.8854 42.8784 63.9309C43.838 63.9641 44.8039 63.8937 45.7677 63.9516C48.8364 64.1379 49.6 63.2686 49.1997 60.5279C49.1605 60.2609 49.4803 59.7972 49.7527 59.6585C50.5782 59.2446 51.4491 58.9382 52.3696 58.5635C52.7823 59.0355 53.1951 59.5343 53.645 60.0125C54.5138 60.9316 55.556 61.0164 56.4599 60.1657C57.5867 59.1059 58.6847 58.0109 59.7392 56.8786C60.5173 56.0506 60.4533 55.0156 59.6443 54.2022C59.1614 53.7178 58.6289 53.2831 58.0758 52.7884C58.3235 52.2481 58.534 51.8155 58.7218 51.3746C59.4606 49.6503 59.4565 49.6482 61.3696 49.6793C62.5645 49.6979 63.3859 49.0976 63.4333 47.9943C63.5056 46.3301 63.4952 44.6721 63.4416 43.0202ZM45.0061 52.4903C43.1634 52.4674 41.4045 51.7146 40.1129 50.3963C38.8213 49.0779 38.1017 47.3008 38.1111 45.4524C38.1152 44.5291 38.3014 43.6157 38.659 42.7648C39.0167 41.914 39.5387 41.1426 40.195 40.4951C40.8513 39.8476 41.6289 39.3368 42.483 38.9921C43.3371 38.6475 44.2507 38.4758 45.1712 38.487C47.0141 38.5094 48.7733 39.262 50.065 40.5805C51.3568 41.899 52.0761 43.6764 52.0662 45.5249C52.0616 46.4481 51.8751 47.3613 51.5172 48.2118C51.1594 49.0624 50.6373 49.8336 49.9811 50.481C49.3249 51.1284 48.5475 51.6392 47.6937 51.9841C46.8399 52.3289 45.9265 52.5009 45.0061 52.4903Z" fill="white"/>
</g>
<defs>
<clipPath id="clip0_321_231">
<rect width="90" height="90.9" fill="white" transform="translate(0 0.0500488)"/>
</clipPath>
</defs>
</svg>
