<svg width="9" height="11" viewBox="0 0 9 11" fill="none" xmlns="http://www.w3.org/2000/svg">
<g clip-path="url(#clip0_74_241)">
<path d="M2.36567 8.98889H2.54883V8.26002H3.68411V8.98889H3.86757V8.26002H5.05641V8.98889H5.24018V8.26002H6.50505V8.98889H6.68821V8.26002H7.74006V8.05685H6.68821V6.73626H7.74006V6.53241H6.68821V5.3288H7.74006V5.12563H6.68821V4.31262H6.50505V5.12563H5.24018V4.31262H5.05641V5.12563H3.86757V4.31262H3.68411V5.12563H2.54852V4.31262H2.36567V5.12563H1.15344V5.3288H2.36567V6.53241H1.15344V6.73626H2.36567V8.05685H1.15344V8.26002H2.36567V8.98889ZM3.86726 8.05685V6.73626H5.0561V8.05685H3.86726ZM6.50505 8.05685H5.24018V6.73626H6.50505V8.05685ZM6.50505 5.3288V6.53241H5.24018V5.3288C5.24018 5.32914 6.50505 5.32914 6.50505 5.3288ZM5.05641 5.3288V6.53241H3.86757V5.3288C3.86757 5.32914 5.05641 5.32914 5.05641 5.3288ZM2.54852 5.3288H3.6838V6.53241H2.54852V5.3288ZM2.54852 6.73626H3.6838V8.05685H2.54852V6.73626Z" fill="#6D6D6D"/>
<path d="M8.99076 1.35645L7.71974 1.35781L7.53412 1.3585V2.19579C7.53412 2.41914 7.36974 2.60179 7.16842 2.60179H6.74115C6.53921 2.60179 6.37545 2.41948 6.37545 2.19579V1.35987L5.88816 1.36055V2.19579C5.88816 2.41914 5.72347 2.60179 5.52153 2.60179H5.09426C4.89264 2.60179 4.72856 2.41948 4.72856 2.19579V1.36089L4.21079 1.36226V2.19613C4.21079 2.41948 4.04641 2.60213 3.84479 2.60213H3.41721C3.2162 2.60213 3.05151 2.41982 3.05151 2.19613V1.36363H2.51835V2.19613C2.51835 2.41948 2.35428 2.60213 2.15265 2.60213H1.72538C1.52345 2.60213 1.35937 2.41982 1.35937 2.19613V1.36534L0 1.36671V10.3119H0.643363H8.35756L9 10.3098L8.99076 1.35645ZM8.35756 9.60011H0.643363V3.88509H8.35756V9.60011Z" fill="#6D6D6D"/>
<path d="M1.7254 2.31377H2.15267C2.20284 2.31377 2.24378 2.26828 2.24378 2.21218V0.789328C2.24378 0.732892 2.20284 0.687744 2.15267 0.687744H1.7254C1.67461 0.687744 1.63367 0.732892 1.63367 0.789328V2.21218C1.63367 2.26828 1.67461 2.31377 1.7254 2.31377Z" fill="#6D6D6D"/>
<path d="M3.41723 2.31377H3.84481C3.89529 2.31377 3.93623 2.26828 3.93623 2.21218V0.789328C3.93592 0.732892 3.89498 0.687744 3.8445 0.687744H3.41692C3.36675 0.687744 3.32581 0.732892 3.32581 0.789328V2.21218C3.32611 2.26828 3.36705 2.31377 3.41723 2.31377Z" fill="#6D6D6D"/>
<path d="M5.09423 2.31377H5.5215C5.5726 2.31377 5.61354 2.26828 5.61354 2.21218V0.789328C5.61323 0.732892 5.5726 0.687744 5.5215 0.687744H5.09423C5.04375 0.687744 5.00281 0.732892 5.00281 0.789328V2.21218C5.00281 2.26828 5.04375 2.31377 5.09423 2.31377Z" fill="#6D6D6D"/>
<path d="M6.74121 2.31377H7.16847C7.21896 2.31377 7.25959 2.26828 7.25959 2.21218V0.789328C7.25959 0.732892 7.21896 0.687744 7.16847 0.687744H6.74121C6.69072 0.687744 6.64978 0.732892 6.64978 0.789328V2.21218C6.65009 2.26828 6.69072 2.31377 6.74121 2.31377Z" fill="#6D6D6D"/>
</g>
<defs>
<clipPath id="clip0_74_241">
<rect width="9" height="10" fill="white" transform="translate(0 0.5)"/>
</clipPath>
</defs>
</svg>
