<svg width="17" height="15" viewBox="0 0 17 15" fill="none" xmlns="http://www.w3.org/2000/svg">
<g clip-path="url(#clip0_321_166)">
<path d="M8.28419 14.9785C8.28419 14.9843 8.28419 14.9897 8.28419 14.9955C9.01233 14.9955 9.74135 15.0094 10.4691 14.991C11.0303 14.9772 11.5915 14.9373 12.1501 14.8813C12.4614 14.85 12.6884 14.6565 12.8071 14.3579C12.8663 14.2092 12.937 14.0502 12.9374 13.8958C12.9409 12.7884 12.9798 11.6774 12.9069 10.5745C12.8014 8.97904 11.5019 7.47761 9.97229 7.09654C9.28124 6.92414 8.57165 6.93758 7.86559 6.97922C7.31098 7.01236 6.77316 7.13505 6.27375 7.3894C4.82365 8.1278 4.08138 9.3422 4.01647 10.9681C3.97805 11.9286 4.00322 12.8923 4.0125 13.8541C4.01559 14.202 4.17499 14.4877 4.43905 14.7107C4.68544 14.919 4.97643 14.9798 5.28862 14.9794C6.28699 14.9772 7.28581 14.9785 8.28419 14.9785ZM8.47848 0C6.88222 0 5.59595 1.30396 5.59727 2.92137C5.5986 4.52669 6.88443 5.83333 8.46965 5.8405C10.0571 5.84766 11.3579 4.53385 11.3592 2.92226C11.361 1.30441 10.0752 0 8.47848 0ZM4.4258 7.49015C4.19 7.28058 3.91668 7.10774 3.60405 7.06923C3.14659 7.01281 2.68206 6.98325 2.22151 6.99042C0.94848 7.01057 0.00264903 8.00376 0.00132434 9.29518C-3.57919e-07 10.4756 0.000441206 11.6564 0.00132434 12.8367C0.0017659 13.4766 0.397849 13.894 1.02531 13.9025C1.61568 13.9105 2.20606 13.9065 2.79599 13.9056C2.86575 13.9056 2.93552 13.8926 3.01456 13.8846C3.01456 13.816 3.01412 13.761 3.01456 13.7059C3.0256 12.6773 3.00794 11.647 3.05651 10.6202C3.09802 9.74745 3.36649 8.92979 3.86943 8.20795C4.03987 7.96212 4.23504 7.73419 4.4258 7.49015ZM2.65778 2.14938C1.65145 2.14446 0.832349 2.96615 0.828816 3.98442C0.825284 5.00134 1.636 5.83109 2.64232 5.84005C3.63937 5.84901 4.46687 5.01657 4.47084 4.00009C4.47481 2.98003 3.66631 2.15431 2.65778 2.14938ZM14.3133 2.14938C13.307 2.14535 12.4888 2.96749 12.4857 3.98576C12.4826 5.00224 13.2955 5.83289 14.3009 5.8396C15.2989 5.84677 16.1246 5.01478 16.1281 3.9983C16.1317 2.97869 15.3218 2.15341 14.3133 2.14938Z" fill="white"/>
<path d="M16.9563 13.0723C16.9448 13.096 16.9298 13.1188 16.9219 13.1444C16.7837 13.5877 16.4622 13.8756 16.0074 13.8917C15.3627 13.9146 14.7171 13.9011 14.072 13.9016C14.0345 13.9016 13.9969 13.8872 13.9431 13.8765C13.9431 13.8156 13.9431 13.7556 13.9431 13.696C13.9431 12.8291 13.9594 11.9618 13.9395 11.0957C13.9157 10.0622 13.7011 9.07621 13.0966 8.21466C12.9244 7.96928 12.7288 7.7409 12.5327 7.49104C12.7782 7.26893 13.0723 7.11176 13.407 7.05086C14.0027 6.94205 14.6076 6.92593 15.2002 7.04146C16.093 7.21565 16.7757 7.97017 16.9263 8.88231C16.9316 8.91411 16.9466 8.94411 16.9567 8.97501C16.9563 10.3408 16.9563 11.7065 16.9563 13.0723Z" fill="#1A3BFF"/>
<path d="M8.28381 14.9785C7.285 14.9785 6.28618 14.9776 5.2878 14.9789C4.97562 14.9794 4.68463 14.9185 4.43823 14.7103C4.17418 14.4873 4.01521 14.2016 4.01168 13.8536C4.00285 12.8918 3.97724 11.9282 4.01566 10.9677C4.08057 9.34174 4.82239 8.12734 6.27293 7.38894C6.77234 7.13459 7.31017 7.01145 7.86477 6.97876C8.57039 6.93667 9.28043 6.92368 9.97147 7.09608C11.5011 7.47715 12.8006 8.97858 12.9061 10.574C12.9794 11.6769 12.9401 12.7879 12.9366 13.8953C12.9361 14.0498 12.865 14.2092 12.8063 14.3574C12.688 14.6556 12.461 14.8495 12.1493 14.8809C11.5907 14.9368 11.0295 14.9767 10.4682 14.9906C9.74054 15.0089 9.01151 14.9951 8.28337 14.9951C8.28381 14.9897 8.28381 14.9839 8.28381 14.9785Z" fill="#1A3BFF"/>
<path d="M8.47838 0C10.0751 0 11.3609 1.30441 11.3592 2.92226C11.3578 4.53385 10.0565 5.84766 8.46955 5.8405C6.88433 5.83333 5.59849 4.52669 5.59717 2.92137C5.59584 1.30396 6.88212 0 8.47838 0Z" fill="#1A3BFF"/>
<path d="M4.42562 7.49016C4.23486 7.73421 4.03969 7.96213 3.8688 8.20707C3.36542 8.9289 3.09695 9.74656 3.05588 10.6193C3.00731 11.6461 3.02497 12.6764 3.01394 13.705C3.01349 13.7601 3.01394 13.8152 3.01394 13.8837C2.93534 13.8917 2.86557 13.9047 2.79536 13.9047C2.20499 13.9056 1.61462 13.9096 1.02469 13.9016C0.397224 13.8931 0.00114121 13.4762 0.000699641 12.8359C0.000258076 11.6555 -0.000625053 10.4747 0.000699641 9.2943C0.00202433 8.00288 0.948297 7.01013 2.22089 6.98953C2.68144 6.98237 3.14596 7.01148 3.60342 7.06835C3.91649 7.10775 4.18938 7.2806 4.42562 7.49016Z" fill="#1A3BFF"/>
<path d="M2.65759 2.14938C3.66568 2.1543 4.47462 2.98002 4.47065 4.00008C4.46668 5.01656 3.63918 5.849 2.64213 5.84004C1.6358 5.83109 0.825092 5.00134 0.828625 3.98441C0.832599 2.96614 1.6517 2.14445 2.65759 2.14938Z" fill="#1A3BFF"/>
<path d="M14.313 2.1494C15.3211 2.15343 16.1309 2.97825 16.1278 3.99876C16.1243 5.01524 15.299 5.84723 14.3006 5.84006C13.2956 5.8329 12.4827 5.0027 12.4854 3.98622C12.4889 2.96795 13.3071 2.14537 14.313 2.1494Z" fill="#1A3BFF"/>
</g>
<defs>
<clipPath id="clip0_321_166">
<rect width="16.9565" height="15" fill="white"/>
</clipPath>
</defs>
</svg>
