<svg width="52" height="49" viewBox="0 0 52 49" fill="none" xmlns="http://www.w3.org/2000/svg">
<g clip-path="url(#clip0_136_279)">
<path fill-rule="evenodd" clip-rule="evenodd" d="M43.4984 3.01918L44.5944 4.46722C44.8822 4.84941 44.8103 5.3972 44.4294 5.68596L43.2657 6.57347C43.4772 7.13825 43.6127 7.74125 43.6677 8.35699L44.9922 8.53959C45.4662 8.60328 45.7963 9.04492 45.7328 9.52052L45.4873 11.3253C45.4239 11.8009 44.9838 12.1363 44.5098 12.0684L43.0625 11.8688C42.8044 12.4336 42.4743 12.9517 42.085 13.4145L42.8975 14.4846C43.1853 14.8668 43.1091 15.4146 42.7282 15.7034L41.2852 16.8032C40.9043 17.092 40.3584 17.0155 40.0707 16.6376L39.1862 15.4698C38.6192 15.6821 38.0225 15.818 37.4047 15.8732L37.2227 17.2024C37.1592 17.678 36.7191 18.0092 36.2452 17.9455L34.4467 17.6992C33.9727 17.6355 33.6426 17.1939 33.7061 16.7183L33.905 15.266C33.3464 15.007 32.8259 14.6757 32.3646 14.2893L31.2982 15.1004C30.9174 15.3891 30.3715 15.317 30.0837 14.9348L28.9877 13.4867C28.6999 13.1045 28.7718 12.5567 29.1527 12.268L30.3164 11.3805C30.1049 10.8114 29.9694 10.2127 29.9144 9.59696L28.5899 9.41436C28.1159 9.35066 27.7816 8.90903 27.8493 8.43342L28.0948 6.62868C28.1625 6.15307 28.5983 5.82185 29.0723 5.88554L30.5196 6.08513C30.7777 5.52459 31.1078 5.00228 31.4929 4.53941L30.6846 3.4693C30.3968 3.09137 30.4688 2.54357 30.8496 2.25481L32.2927 1.15498C32.6735 0.866218 33.2194 0.938408 33.5072 1.32059L34.3916 2.48837C34.9545 2.27605 35.5554 2.14016 36.169 2.08495L36.3509 0.75581C36.4144 0.280206 36.8545 -0.0552654 37.3285 0.00843166L39.127 0.254727C39.6009 0.318424 39.9353 0.760057 39.8675 1.23566L39.6687 2.68795C40.2315 2.94699 40.7478 3.27821 41.2132 3.66889L42.2797 2.85781C42.6605 2.56481 43.2064 2.637 43.4984 3.01918ZM12.9408 23.8184H38.7292C39.2201 23.8184 39.6687 24.0222 39.9945 24.3492L39.9987 24.3534L40.003 24.3577C40.3288 24.6847 40.5277 25.1348 40.5277 25.6274V47.1952C40.5277 47.692 40.3246 48.1422 39.9987 48.4691C39.6729 48.7961 39.2243 48.9999 38.7292 48.9999H12.9408C12.4499 48.9999 12.0013 48.8004 11.6713 48.4691L11.667 48.4649L11.6628 48.4606C11.337 48.1337 11.1381 47.6835 11.1381 47.1909V25.6189C11.1423 25.122 11.3454 24.6719 11.667 24.3449C11.6882 24.328 11.7051 24.3067 11.7263 24.2897C12.0521 24.001 12.4753 23.8184 12.9408 23.8184ZM15.8523 44.2524C15.4799 44.2524 15.1752 43.9169 15.1752 43.5093C15.1752 43.0973 15.4799 42.7619 15.8523 42.7619H23.6599C24.0323 42.7619 24.337 43.0973 24.337 43.5093C24.337 43.9212 24.0323 44.2566 23.6599 44.2566H15.8523V44.2524ZM26.876 44.2524C26.4994 44.2524 26.1905 43.9169 26.1905 43.5093C26.1905 43.0973 26.4952 42.7619 26.876 42.7619H35.2972C35.6739 42.7619 35.9828 43.0973 35.9828 43.5093C35.9828 43.9212 35.6781 44.2566 35.2972 44.2566H26.876V44.2524ZM15.3487 32.1627H35.8981V40.2352H15.3487V32.1627ZM38.9069 30.2815C38.8477 30.29 38.7927 30.2942 38.7334 30.2942H12.9408C12.8815 30.2942 12.8223 30.29 12.7673 30.2815V47.1909C12.7673 47.2377 12.7884 47.2801 12.8138 47.3141L12.8181 47.3183C12.8477 47.3481 12.89 47.3651 12.9408 47.3651H38.7292C38.7757 47.3651 38.8181 47.3481 38.8519 47.3141C38.8815 47.2801 38.9069 47.2377 38.9069 47.1909V30.2815ZM23.1309 26.1454C23.7741 26.1454 24.2989 26.672 24.2989 27.3175C24.2989 27.9629 23.7741 28.4895 23.1309 28.4895C22.4877 28.4895 21.9629 27.9629 21.9629 27.3175C21.9629 26.672 22.4877 26.1454 23.1309 26.1454ZM19.0472 26.1454C19.6947 26.1454 20.2152 26.672 20.2152 27.3175C20.2152 27.9629 19.6905 28.4895 19.0472 28.4895C18.404 28.4895 17.8793 27.9629 17.8793 27.3175C17.8793 26.672 18.404 26.1454 19.0472 26.1454ZM14.9678 26.1454C15.6153 26.1454 16.1358 26.672 16.1358 27.3175C16.1358 27.9629 15.611 28.4895 14.9678 28.4895C14.3246 28.4895 13.7998 27.9629 13.7998 27.3175C13.7998 26.672 14.3246 26.1454 14.9678 26.1454ZM25.6149 4.86639C24.8405 4.80694 24.0577 4.81543 23.2832 4.89187C20.9008 5.12118 18.586 5.99171 16.6732 7.48222C14.46 9.20204 12.78 11.7754 12.1325 15.1853L11.9294 16.2512L10.8715 16.438C9.83467 16.6206 8.90791 16.8712 8.09541 17.1896C7.30831 17.4954 6.60583 17.8733 5.99223 18.3192C5.50134 18.6759 5.07816 19.0751 4.71846 19.5082C3.60551 20.8459 3.08923 22.5232 3.10193 24.2218C3.11462 25.9459 3.67321 27.6869 4.70577 29.118C5.09086 29.6488 5.53519 30.1371 6.04301 30.5618C6.55928 30.9907 7.13903 31.3474 7.79073 31.6149C8.15889 31.7678 8.55245 31.8952 8.96293 31.9971V35.1777C8.11657 35.0248 7.33793 34.7955 6.61006 34.494C5.64945 34.0948 4.79887 33.581 4.04984 32.9525C3.3389 32.358 2.71683 31.6828 2.18786 30.9482C0.778684 28.9948 0.0169649 26.6083 3.78382e-05 24.2303C-0.0168892 21.8268 0.727902 19.436 2.33598 17.4996C2.85648 16.8712 3.47009 16.2936 4.17256 15.7841C4.9893 15.1896 5.92452 14.6885 6.98246 14.2766C7.71032 13.9921 8.48897 13.7543 9.30993 13.5632C10.2409 9.85175 12.2256 6.99387 14.7774 5.01077C17.1641 3.15507 20.0375 2.07222 22.9955 1.7877C24.5485 1.63908 26.1228 1.70702 27.6631 1.99578C27.6293 2.13591 27.5996 2.27605 27.5827 2.42043L27.5785 2.4459C27.5489 2.68795 27.5362 2.93 27.5489 3.1763C27.223 3.30369 26.9183 3.4778 26.6433 3.69012L26.6306 3.69861C26.2201 4.00861 25.8731 4.40777 25.6149 4.86639ZM48.0052 13.0196C48.2422 13.2362 48.4707 13.4612 48.695 13.7033C49.1478 14.1916 49.5752 14.7437 49.9772 15.3594C51.3314 17.4487 52.0254 20.2386 51.9958 22.9691C51.9662 25.6486 51.2468 28.3154 49.7741 30.2773C48.8135 31.5554 47.5821 32.6001 46.1052 33.4281C45.0938 33.9972 43.9554 34.4685 42.7155 34.8507V31.5597C43.3842 31.3092 44.0062 31.0289 44.5775 30.7104C45.6905 30.0862 46.6003 29.3261 47.2816 28.4131C48.3396 26.999 48.8601 24.9989 48.8812 22.9479C48.9066 20.7949 48.3819 18.6334 47.362 17.0623C47.07 16.6079 46.7484 16.2002 46.4099 15.835C46.2787 15.6949 46.1475 15.5632 46.0121 15.4359C46.0332 15.2235 46.0417 15.007 46.029 14.7904C46.3549 14.663 46.6595 14.4889 46.9346 14.2766L46.9473 14.2681C47.3832 13.9326 47.7471 13.508 48.0052 13.0196ZM37.2735 5.43542C39.2243 5.70295 40.5869 7.5077 40.3203 9.46532C40.0537 11.4229 38.2552 12.7945 36.3044 12.527C34.3535 12.2595 32.9867 10.4547 33.2575 8.49712C33.5284 6.5395 35.3226 5.16789 37.2735 5.43542Z" fill="#1A3BFF"/>
</g>
<defs>
<clipPath id="clip0_136_279">
<rect width="52" height="49" fill="white"/>
</clipPath>
</defs>
</svg>
