<svg width="178" height="44" viewBox="0 0 178 44" fill="none" xmlns="http://www.w3.org/2000/svg">
<path d="M43.4105 10.0341H60.8392C61.0007 10.0341 61.162 10.1928 61.162 10.3516C61.162 10.5104 61.0545 10.6162 60.893 10.6691C59.7097 10.7221 58.9565 10.9338 58.6338 11.2513C58.311 11.5689 58.0957 12.3627 58.0957 13.4741V27.8696C58.0421 28.5047 58.1496 29.1398 58.311 29.7749C58.4723 30.1983 58.849 30.5158 59.2254 30.6746C59.7633 30.8864 60.3013 30.9922 60.893 30.9922C61.0545 30.9922 61.2158 31.098 61.2158 31.3097V37.6078C61.2158 37.7664 61.0545 37.9253 60.893 37.9253C60.7317 37.9253 60.624 37.8194 60.5702 37.6607C60.4627 36.0729 59.7097 34.5381 58.5262 33.4267C57.2889 32.2623 55.5676 31.6801 53.4159 31.6801H47.4987C45.2394 31.6801 43.4641 32.2094 42.1193 33.3208C40.7745 34.4322 39.9676 36.0201 39.8063 37.7136C39.8063 37.8723 39.6449 37.9782 39.4835 37.9782H39.4297C39.2684 37.9782 39.1069 37.8723 39.1069 37.6607V31.3097C39.1069 31.1509 39.2146 31.045 39.3222 31.045C41.8504 30.4629 43.6794 28.7165 44.7553 25.8056C45.8848 22.7888 46.4766 18.7666 46.4766 13.7388C46.4766 12.5215 46.2614 11.7276 45.8311 11.3572C45.4007 10.9867 44.6476 10.8279 43.3566 10.775C43.1952 10.775 43.0339 10.6162 43.0339 10.4574C43.1952 10.1928 43.249 10.087 43.4105 10.0341ZM53.0931 11.4101H48.198C48.0366 11.4101 47.8752 11.5689 47.8752 11.7276V13.2624C47.8752 15.8029 47.7139 18.2903 47.3373 20.7778C47.1221 22.7359 46.638 24.6942 45.8848 26.5464C45.4007 27.6579 44.7553 28.7165 43.9484 29.6161C43.8408 29.722 43.8408 29.9336 43.9484 30.0395C44.0021 30.0924 44.0559 30.1454 44.1635 30.1454H51.2104C52.2862 30.1454 52.878 30.0924 53.0931 29.9336C53.3082 29.7749 53.3621 29.3514 53.3621 28.5577V11.7276C53.3621 11.5689 53.2544 11.463 53.0931 11.4101Z" fill="#989898"/>
<path d="M75.256 25.4353H67.9402C67.8326 25.4353 67.7249 25.4881 67.6713 25.6469L66.8106 27.5523C66.5416 28.0815 66.3801 28.6637 66.3801 29.2988C66.3265 29.828 66.6491 30.3573 67.1333 30.6218C67.7249 30.8336 68.3705 30.9395 68.9623 30.9924C69.1236 30.9924 69.2312 31.1511 69.2312 31.3099C69.2312 31.4687 69.0699 31.6275 68.9084 31.6275H62.292C62.1306 31.6275 61.9692 31.5216 61.9692 31.3099C61.9692 31.1511 62.0767 31.0453 62.2382 30.9924C62.8836 30.8865 63.4754 30.5689 63.9058 30.0926C64.6589 29.0871 65.3043 28.0286 65.7885 26.8642L73.5884 9.71667H73.9112L81.7649 27.3405C82.518 29.0341 83.1098 30.0397 83.5939 30.5161C83.9705 30.8336 84.4007 30.9924 84.8848 31.0453C85.0463 31.0453 85.1538 31.204 85.1538 31.3628C85.1538 31.5216 84.9925 31.6803 84.831 31.6803H74.8794C74.7181 31.6803 74.5566 31.5746 74.5566 31.3628V31.0981H74.9871C75.5787 31.1511 76.2242 31.0453 76.7622 30.7277C76.9773 30.5689 77.1388 30.3043 77.1388 29.9867C77.1388 29.7751 77.0849 29.5634 77.0311 29.4045C77.0311 29.2988 76.8698 28.9282 76.547 28.2403L75.4712 25.7528C75.525 25.4881 75.4174 25.3824 75.256 25.4353ZM74.7181 23.8475L71.9208 17.4966C71.867 17.3378 71.6519 17.2849 71.4906 17.3378C71.4367 17.3908 71.3829 17.4437 71.3291 17.4966L68.4781 23.8475C68.4243 24.0063 68.4781 24.1651 68.6395 24.271C68.6933 24.271 68.6933 24.271 68.7471 24.271H74.3953C74.5566 24.271 74.7181 24.1651 74.7181 24.0063C74.7718 23.9004 74.7718 23.8475 74.7181 23.8475Z" fill="#989898"/>
<path d="M94.8901 21.2011C94.7287 21.2011 94.5674 21.3599 94.5674 21.5186V27.8696C94.5135 28.5577 94.5673 29.2457 94.7287 29.9336C94.8901 30.2512 95.1591 30.5158 95.4817 30.6746C95.9122 30.8864 96.4501 30.9922 96.9342 30.9922H97.3645C97.5259 30.9922 97.6334 31.098 97.6873 31.2568C97.6873 31.4156 97.5798 31.5215 97.4183 31.5743H86.606C86.4447 31.5743 86.2832 31.4685 86.2832 31.2568C86.2832 31.098 86.3908 30.9393 86.606 30.9393H87.0363C87.5743 30.9393 88.1123 30.8334 88.5964 30.6217C88.9191 30.4629 89.1343 30.1983 89.2418 29.8808C89.4033 29.2457 89.4571 28.5577 89.4033 27.8696V13.7388C89.4571 13.0508 89.4033 12.3627 89.2418 11.6747C89.0805 11.3572 88.8653 11.0925 88.5425 10.9338C88.1123 10.7221 87.5742 10.6162 87.0901 10.6162H86.6598C86.4983 10.6162 86.337 10.5104 86.337 10.3516C86.337 10.1928 86.4447 10.0341 86.6598 10.0341H97.3645C97.5259 10.0341 97.6873 10.1399 97.6873 10.2987C97.6873 10.4574 97.5798 10.6162 97.3645 10.6162H96.9342C96.3963 10.6162 95.8583 10.7221 95.4281 10.9338C95.1053 11.0925 94.8901 11.3572 94.7825 11.6747C94.6212 12.3098 94.5673 12.9978 94.6212 13.6858V19.4546C94.6212 19.6134 94.7287 19.7722 94.9438 19.7722H102.044C102.206 19.7722 102.367 19.6664 102.367 19.5075V13.7388C102.421 13.0508 102.367 12.3627 102.206 11.6747C102.044 11.3572 101.776 11.0925 101.507 10.9338C101.076 10.7221 100.538 10.6162 100.054 10.6162H99.5163C99.3548 10.6162 99.1935 10.5104 99.1935 10.3516C99.1935 10.1928 99.301 10.0341 99.5163 10.0341H110.329C110.49 10.0341 110.651 10.1928 110.651 10.3516C110.651 10.5104 110.49 10.6691 110.329 10.6691H109.898C109.36 10.6162 108.822 10.775 108.392 10.9867C108.069 11.1455 107.854 11.4101 107.747 11.7276C107.585 12.3627 107.531 13.0508 107.585 13.7388V27.8696C107.531 28.5577 107.585 29.2457 107.747 29.9336C107.908 30.2512 108.177 30.5158 108.5 30.6746C108.93 30.8864 109.468 30.9922 109.952 30.9922H110.382C110.544 30.9922 110.705 31.098 110.705 31.2568C110.705 31.4156 110.598 31.5743 110.436 31.5743H99.5163C99.3548 31.5743 99.1935 31.4685 99.1935 31.2568C99.1935 31.098 99.301 30.9393 99.5163 30.9393H99.9466C100.485 30.9393 101.022 30.8334 101.507 30.6217C101.829 30.4629 102.044 30.1983 102.152 29.8808C102.313 29.2457 102.367 28.5577 102.313 27.8696V21.5186C102.313 21.3599 102.206 21.2011 102.044 21.2011H94.8901Z" fill="#989898"/>
<path d="M111.889 31.2568C111.889 31.0981 111.997 30.9393 112.212 30.9393H112.481C113.557 30.9393 114.256 30.7276 114.525 30.3042C114.794 29.8809 114.955 29.034 114.955 27.8168V13.6859C114.955 12.4157 114.794 11.5689 114.471 11.1985C114.148 10.828 113.503 10.6163 112.588 10.6163H112.212C112.05 10.6163 111.889 10.5105 111.889 10.3517C111.889 10.1929 111.997 10.0341 112.212 10.0341H123.024C123.186 10.0341 123.347 10.1929 123.347 10.3517V10.6692H122.917C121.841 10.6692 121.141 10.828 120.765 11.1985C120.388 11.5689 120.227 12.3628 120.227 13.7918V28.0814C120.227 29.1399 120.281 29.775 120.496 29.9338C120.711 30.0925 121.303 30.1983 122.379 30.1983H125.606C126.79 30.1983 127.489 30.1454 127.704 29.9867C127.919 29.8279 127.973 29.2457 127.973 28.1873V13.6859C127.973 12.4157 127.812 11.5689 127.543 11.1985C127.274 10.828 126.628 10.6163 125.66 10.6163H125.23C125.068 10.6163 124.961 10.5105 124.961 10.2988C124.961 10.14 125.068 9.9812 125.23 9.9812H135.719C135.881 9.9812 136.042 10.14 135.988 10.2988V10.6163H135.558C134.912 10.5634 134.213 10.7221 133.729 11.1456C133.406 11.4631 133.191 12.3099 133.191 13.7388V27.8696C133.191 29.1928 133.352 30.0397 133.675 30.4101C133.998 30.7805 134.643 30.9923 135.558 30.9923H135.988V37.5549C135.988 37.7137 135.881 37.8725 135.719 37.8725H135.558C135.396 37.8725 135.289 37.7666 135.289 37.6607C134.428 33.6385 132.061 31.6274 128.135 31.6274H112.212C111.997 31.5215 111.889 31.4156 111.889 31.2568Z" fill="#989898"/>
<path d="M146.155 11.3042C145.994 11.3042 145.833 11.4101 145.833 11.6218V20.0897H146.263C147.662 20.0897 148.63 19.6664 149.275 18.8195C149.974 17.761 150.351 16.5437 150.459 15.3264C150.459 15.1678 150.62 15.0619 150.728 15.0619H150.781C150.943 15.0619 151.051 15.1678 151.051 15.3794V25.9115C151.051 26.0701 150.943 26.229 150.781 26.229H150.728C150.567 26.229 150.459 26.1231 150.459 25.9643C150.351 25.0117 150.082 24.0591 149.652 23.2122C149.329 22.5243 148.845 21.9951 148.2 21.6245C147.554 21.3599 146.854 21.2011 146.102 21.2011C145.94 21.2011 145.779 21.307 145.779 21.4657V27.2345C145.725 27.9755 145.779 28.7165 145.94 29.4044C146.048 29.6691 146.263 29.9336 146.532 30.0395C146.962 30.2512 147.392 30.3042 147.877 30.3042H149.168C151.212 30.3042 152.826 29.8279 154.063 28.9281C155.353 27.8696 156.269 26.4935 156.646 24.9058C156.699 24.8001 156.807 24.6942 156.913 24.6942C157.076 24.6942 157.237 24.8001 157.237 24.9587V25.0117L156.322 31.2568C156.322 31.4156 156.161 31.5215 156.053 31.5215H137.764C137.602 31.5215 137.441 31.4156 137.441 31.2568C137.441 31.098 137.549 30.9393 137.71 30.9393H138.14C138.678 30.9393 139.216 30.8334 139.647 30.6217C139.969 30.4629 140.184 30.1983 140.292 29.8807C140.453 29.2457 140.507 28.5577 140.453 27.8696V13.7388C140.453 13.1566 140.453 12.5215 140.4 11.9393C140.292 11.6218 140.077 11.3042 139.808 11.0925C139.324 10.775 138.732 10.6162 138.14 10.6691H137.71C137.549 10.6691 137.387 10.5633 137.387 10.3516C137.387 10.1928 137.549 10.0341 137.71 10.0341H155.408C155.569 10.0341 155.73 10.1928 155.73 10.3516V16.1204C155.73 16.2792 155.623 16.4379 155.461 16.4379C155.3 16.4379 155.192 16.3321 155.192 16.2262C155.031 15.1148 154.601 14.0564 153.901 13.1037C153.257 12.3627 152.449 11.8335 151.481 11.6218C150.351 11.3572 149.222 11.3042 148.092 11.3572H146.155V11.3042Z" fill="#989898"/>
<path d="M168.049 21.7833C167.888 21.7833 167.727 21.8892 167.727 22.101V27.7639C167.672 28.5047 167.727 29.2457 167.941 29.9338C168.102 30.2513 168.371 30.516 168.695 30.6746C169.232 30.8864 169.825 30.9393 170.416 30.9393C170.577 30.9393 170.739 31.0981 170.685 31.2568C170.685 31.4156 170.523 31.5744 170.362 31.5744H159.872C159.711 31.5744 159.55 31.4686 159.55 31.2568C159.55 31.0981 159.658 30.9393 159.819 30.9393C160.41 30.9923 161.002 30.8864 161.593 30.6746C161.917 30.516 162.186 30.2513 162.347 29.9338C162.562 29.2457 162.616 28.5047 162.562 27.7639V13.7918C162.616 13.0508 162.562 12.3099 162.347 11.6219C162.186 11.3043 161.917 11.0397 161.593 10.8809C161.056 10.6692 160.464 10.6163 159.872 10.6163C159.711 10.6163 159.55 10.4575 159.603 10.2988C159.603 10.14 159.764 9.9812 159.927 9.9812H169.179C172.299 9.9812 174.558 10.5105 175.903 11.6219C177.194 12.5745 177.947 14.1093 177.947 15.75C178 17.0731 177.517 18.3432 176.601 19.3489C175.634 20.4074 174.342 21.0954 172.945 21.36C171.385 21.7304 169.717 21.8363 168.049 21.7833ZM167.78 11.5689V20.3015C167.78 20.4603 167.888 20.566 168.049 20.619H168.587C169.717 20.6719 170.846 20.2486 171.599 19.4546C172.299 18.7138 172.676 17.4965 172.676 15.9088C172.676 14.3211 172.299 13.1567 171.599 12.4157C170.9 11.6748 169.825 11.3043 168.426 11.3043H168.049C167.888 11.2514 167.78 11.3572 167.78 11.5689C167.727 11.5689 167.727 11.5689 167.78 11.5689Z" fill="#989898"/>
<path d="M31.0924 25.1706L28.9407 20.7249C28.8331 20.4602 28.5641 20.3544 28.2951 20.3544C28.1875 20.3544 28.0262 20.4073 27.9185 20.4602L7.90772 31.892C7.63876 32.0507 7.47738 32.3683 7.58497 32.6328C7.63876 32.9505 7.90772 33.1621 8.23048 33.1621C8.28427 33.1621 8.39185 33.1621 8.44565 33.1091L30.662 26.1232C31.0386 26.0173 31.2537 25.5939 31.0924 25.2763C31.1462 25.2235 31.0924 25.2235 31.0924 25.1706Z" fill="#989898"/>
<path d="M2.09783 10.6163L22.1625 22.048C22.2701 22.1009 22.3776 22.1539 22.5391 22.1539C22.8081 22.1539 23.077 21.995 23.1845 21.7304C23.2922 21.4658 23.2383 21.1482 23.0232 20.9895L5.64815 5.42966C5.54056 5.3238 5.37919 5.27087 5.16402 5.27087C4.94885 5.27087 4.73368 5.37674 4.62609 5.58843L1.82887 9.66361C1.72129 9.82239 1.72129 10.0341 1.77508 10.1929C1.77508 10.4046 1.93646 10.5633 2.09783 10.6163Z" fill="#989898"/>
<path d="M5.75582 14.1091C5.43306 14.1091 5.1641 14.3209 5.05652 14.6384L0 37.5019C0 37.7135 0 37.9252 0.161379 38.084C0.268964 38.2427 0.484135 38.3486 0.699305 38.3486H5.75582C6.13237 38.3486 6.45512 38.0311 6.45512 37.6605V14.7972C6.45512 14.4268 6.13237 14.1091 5.75582 14.1091Z" fill="#989898"/>
</svg>
