<svg width="24" height="21" viewBox="0 0 24 21" fill="none" xmlns="http://www.w3.org/2000/svg">
<path d="M18.3137 18.9512C13.9654 18.9512 9.63039 18.9512 5.28257 18.9512C5.26531 18.7393 5.24712 18.5308 5.23152 18.3222C5.11405 16.743 4.99706 15.1636 4.88031 13.5842C4.82358 12.8183 4.76781 12.0525 4.71203 11.2864C4.70848 11.2389 4.70517 11.1907 4.70825 11.1434C4.71652 11.0156 4.80846 10.9214 4.93443 10.9109C4.98146 10.9071 5.02897 10.909 5.07624 10.909C7.14025 10.909 9.20402 10.9093 11.268 10.9093C13.6665 10.9093 16.0649 10.9088 18.4633 10.9085C18.5184 10.9085 18.5737 10.9071 18.6288 10.9093C18.803 10.916 18.8999 11.0144 18.8895 11.1916C18.8689 11.5451 18.8415 11.8982 18.8153 12.2515C18.7689 12.8783 18.7221 13.5051 18.6749 14.1319C18.5981 15.1517 18.5198 16.1714 18.4437 17.1912C18.4026 17.7427 18.3643 18.2943 18.3246 18.8461C18.322 18.8774 18.318 18.9084 18.3137 18.9512ZM11.1744 17.5595C11.3084 17.5578 11.3914 17.4757 11.438 17.3003C11.7866 15.9841 12.1354 14.6682 12.4838 13.3522C12.5488 13.1067 12.6173 12.8618 12.6745 12.6146C12.7086 12.4674 12.6216 12.3423 12.481 12.3076C12.359 12.2775 12.2302 12.3523 12.1829 12.4825C12.1695 12.5195 12.1619 12.5589 12.1517 12.5971C11.8423 13.7636 11.533 14.93 11.2236 16.0964C11.126 16.4647 11.027 16.8329 10.9301 17.2014C10.8785 17.3978 10.992 17.5621 11.1744 17.5595ZM14.7749 14.9302C14.7416 14.9579 14.7208 14.9758 14.6991 14.9928C14.2446 15.3475 13.7894 15.7013 13.3358 16.0572C13.2025 16.1619 13.1775 16.3131 13.267 16.4335C13.3554 16.5522 13.5159 16.5696 13.6445 16.47C14.2027 16.0364 14.7607 15.6027 15.3166 15.1665C15.5064 15.0177 15.5033 14.8438 15.3152 14.6961C15.073 14.506 14.83 14.3163 14.5873 14.1269C14.2729 13.8816 13.9591 13.6355 13.6438 13.3914C13.5176 13.2937 13.3632 13.3083 13.2741 13.4215C13.1803 13.5405 13.2013 13.6967 13.3266 13.8008C13.3843 13.8488 13.4443 13.894 13.5034 13.9401C13.9234 14.2666 14.3436 14.5941 14.7749 14.9302ZM8.82539 14.9357C8.8755 14.8942 8.91402 14.8607 8.95396 14.8294C9.38979 14.4883 9.82655 14.1489 10.2612 13.8063C10.3959 13.7 10.4195 13.5486 10.3293 13.4306C10.2328 13.3049 10.0846 13.2906 9.94331 13.4002C9.38459 13.8338 8.8261 14.2678 8.26974 14.7045C8.09154 14.8445 8.09768 15.0298 8.27849 15.1705C8.63395 15.4471 8.99013 15.7223 9.34606 15.9982C9.55523 16.1604 9.76274 16.3252 9.97451 16.4836C10.0721 16.5567 10.1955 16.5493 10.2808 16.4796C10.3709 16.406 10.4106 16.2913 10.3633 16.1927C10.3356 16.1346 10.2893 16.0794 10.2387 16.0396C9.77338 15.6731 9.30541 15.31 8.82539 14.9357Z" fill="#1A3BFF"/>
<path d="M0 21C0.00236346 20.4578 0.217675 20.0395 0.648533 19.7356C0.887243 19.5672 1.15502 19.4836 1.44715 19.4836C4.85336 19.4836 8.25958 19.4841 11.6658 19.4841C14.5246 19.4841 17.3835 19.4836 20.2423 19.4834C20.8878 19.4834 21.5332 19.48 22.1787 19.4841C22.9225 19.4886 23.5753 20.1393 23.5954 20.8896C23.5963 20.9245 23.5925 20.9594 23.5909 21C15.7255 21 7.86796 21 0 21Z" fill="#1A3BFF"/>
<path d="M13.167 2.85516C13.3197 3.02691 13.4584 3.20679 13.6215 3.36014C13.8255 3.55196 13.9032 3.7636 13.8902 4.05144C13.8649 4.61542 13.8907 5.18155 13.8824 5.74649C13.8656 6.87206 12.9933 7.77095 11.8799 7.82039C10.6984 7.87271 9.71305 6.90766 9.71187 5.69561C9.71116 5.11061 9.71471 4.52561 9.70998 3.94084C9.70903 3.84052 9.74543 3.8238 9.83264 3.82117C10.5353 3.80015 11.2271 3.70555 11.9007 3.49511C12.3537 3.35322 12.7829 3.16116 13.167 2.85516Z" fill="#1A3BFF"/>
<path d="M9.19737 3.79297C9.0896 3.80085 8.99648 3.80778 8.88965 3.81542C8.88965 3.52304 8.88989 3.23759 8.88965 2.95213C8.88941 2.64327 8.93905 2.34253 9.03217 2.04871C9.42615 0.806329 10.6128 -0.0414336 11.8981 0.00156367C13.4462 0.0533993 14.6912 1.34117 14.7071 2.90842C14.7101 3.20653 14.7075 3.50441 14.7075 3.81471C14.6045 3.8073 14.509 3.80037 14.4149 3.79345C14.4095 3.78389 14.4015 3.77625 14.4024 3.77027C14.4421 3.53283 14.3251 3.36562 14.1732 3.20295C13.9165 2.92825 13.6721 2.64207 13.4218 2.36116C13.267 2.1875 13.1375 2.18153 12.9692 2.33918C12.587 2.69725 12.1217 2.89241 11.6296 3.03311C10.947 3.22851 10.2482 3.29898 9.54149 3.30638C9.27655 3.30901 9.19737 3.38617 9.19714 3.65347C9.19737 3.69694 9.19737 3.74042 9.19737 3.79297Z" fill="#1A3BFF"/>
<path d="M12.2632 10.3818C12.5858 9.97787 12.8909 9.59376 13.201 9.21371C13.2211 9.18911 13.284 9.18051 13.3189 9.19126C14.0294 9.41007 14.7391 9.63103 15.4477 9.85581C15.7212 9.94252 15.9944 10.0314 16.2614 10.136C16.4007 10.1905 16.5259 10.2812 16.6462 10.3818C15.1939 10.3818 13.7415 10.3818 12.2632 10.3818Z" fill="#1A3BFF"/>
<path d="M6.92627 10.3794C7.18412 10.1821 7.45332 10.0691 7.73552 9.98124C8.56887 9.72206 9.40199 9.46264 10.2339 9.19869C10.3261 9.16954 10.3781 9.18173 10.4396 9.26056C10.7144 9.61313 10.9973 9.95974 11.2769 10.3087C11.2913 10.3266 11.3027 10.3472 11.3242 10.3794C9.85956 10.3794 8.40721 10.3794 6.92627 10.3794Z" fill="#1A3BFF"/>
<path d="M10.7125 8.10703C11.4384 8.41685 12.1526 8.42139 12.8836 8.10583C12.8836 8.33229 12.8843 8.54393 12.8824 8.75533C12.8822 8.77301 12.8697 8.79308 12.8578 8.80789C12.5085 9.24694 12.1585 9.68527 11.7988 10.136C11.6293 9.92391 11.467 9.72134 11.3053 9.51854C11.1252 9.2928 10.9449 9.06707 10.7664 8.8399C10.743 8.81028 10.7156 8.77253 10.7147 8.73814C10.7102 8.53294 10.7125 8.32775 10.7125 8.10703Z" fill="#1A3BFF"/>
<path d="M14.4062 5.50307C14.4062 5.10845 14.4062 4.721 14.4062 4.32566C14.6485 4.30512 14.835 4.39231 14.9664 4.5889C15.1006 4.78979 15.0995 5.05638 14.9602 5.25058C14.8267 5.43666 14.6438 5.52624 14.4062 5.50307Z" fill="#1A3BFF"/>
<path d="M9.18702 5.50546C8.96343 5.51932 8.77885 5.4479 8.65051 5.26779C8.5113 5.07215 8.48814 4.85262 8.60112 4.63764C8.72118 4.40927 8.92207 4.31133 9.18702 4.32208C9.18702 4.71599 9.18702 5.10607 9.18702 5.50546Z" fill="#1A3BFF"/>
</svg>
