<svg width="170" height="20" viewBox="0 0 170 20" fill="none" xmlns="http://www.w3.org/2000/svg">
<g clip-path="url(#clip0_321_210)">
<path d="M0.00350913 10.0441C0.00350926 7.063 2.41247 4.75218 6.74515 4.75218C9.88023 4.75218 11.6353 5.62006 12.1068 7.33112L12.1274 7.33112L12.1274 1.07605L13.9238 1.07605L13.9238 15.3925L12.1102 15.3925C12.1722 14.44 12.1928 13.3392 12.2169 12.4361L12.2031 12.4361C11.6904 14.3588 9.87334 15.6112 6.75891 15.6112C2.4985 15.6007 0.00350898 13.4592 0.00350913 10.0441ZM12.1274 10.1782L12.1274 9.85362C12.1274 7.86385 10.4068 6.38563 6.74515 6.38563C3.44488 6.38563 1.81711 7.94852 1.81711 10.0441C1.81711 12.4537 3.65136 13.9531 6.74515 13.9531C10.393 13.9531 12.1274 11.7764 12.1274 10.1782Z" fill="#B5B5B5"/>
<path d="M16.5807 1.07605L18.6455 1.07605L18.6455 3.31983L16.5807 3.31983L16.5807 1.07605ZM16.708 4.95681L18.5216 4.95681L18.5216 15.3925L16.708 15.3925L16.708 4.95681Z" fill="#B5B5B5"/>
<path d="M34.3379 16.4156C34.3379 18.2784 32.7686 19.9895 27.493 19.9895C21.7597 19.9895 20.335 18.4689 20.335 16.7331C20.335 15.5089 21.3467 14.6411 23.0158 14.7046L23.0364 14.6834C22.775 14.4794 22.5623 14.2172 22.4145 13.9164C22.2666 13.6157 22.1874 13.2844 22.183 12.9476C22.183 12.1468 22.4067 11.5365 22.8712 11.2154L22.8712 11.1942C21.6909 10.6051 21.0336 9.65253 21.0336 8.31896C21.0336 6.37505 22.7542 4.70633 26.7256 4.70633C28.0224 4.65732 29.3141 4.89809 30.5111 5.41192L30.5283 5.36958C30.2898 5.1144 30.1577 4.77397 30.1601 4.42056C30.1601 3.61619 30.8483 2.89648 32.4279 2.89648C32.8363 2.90195 33.2423 2.96124 33.6358 3.07288L33.6358 4.65694C33.2743 4.55083 32.9004 4.49506 32.5243 4.49112C31.6777 4.49112 31.368 4.97445 31.368 5.37664C31.368 5.66138 31.4468 5.94029 31.5951 6.18102C31.873 6.45799 32.0928 6.79009 32.2414 7.15706C32.3899 7.52403 32.4639 7.91817 32.4589 8.31543C32.4589 10.3228 30.6487 11.9281 26.7497 11.9281C25.8343 11.9354 24.921 11.836 24.0275 11.6317C23.8204 11.8943 23.7074 12.2218 23.7075 12.5596C23.7075 13.2158 24.1618 13.8085 25.38 13.8085L30.3184 13.8085C33.4948 13.8049 34.3379 15.1456 34.3379 16.4156ZM32.5243 16.585C32.5243 15.8794 31.9668 15.3572 29.7712 15.3572L25.4626 15.3572C22.9263 15.3572 22.1417 15.8476 22.1417 16.7684C22.1417 17.7527 23.3771 18.4372 27.4827 18.4372C31.3198 18.4372 32.514 17.7951 32.514 16.6097L32.5243 16.585ZM22.768 8.32954C22.768 9.59608 24.0482 10.3581 26.729 10.3581C29.4098 10.3581 30.7107 9.50083 30.7107 8.32954C30.7107 7.10534 29.3685 6.30097 26.729 6.30097C23.9656 6.30097 22.768 7.22176 22.768 8.32954Z" fill="#B5B5B5"/>
<path d="M36.0001 1.07605L38.0649 1.07605L38.0649 3.31983L36.0001 3.31983L36.0001 1.07605ZM36.1275 4.95681L37.9411 4.95681L37.9411 15.3925L36.1275 15.3925L36.1275 4.95681Z" fill="#B5B5B5"/>
<path d="M41.6165 11.3283L41.6165 6.59733L39.4484 6.59733L39.4484 4.9533L41.1691 4.9533C41.5408 4.9533 41.6612 4.76279 41.7025 4.2477L41.8264 2.57898L43.4301 2.57898L43.4301 4.94624L49.6934 4.94624L49.6934 6.59027L43.4301 6.59027L43.4301 11.1766C43.4301 12.8736 44.2113 13.8049 47.164 13.8049C48.002 13.7938 48.8373 13.7029 49.6589 13.5333L49.6589 15.1456C48.8213 15.3655 47.9598 15.4757 47.0951 15.4737C43.0584 15.4772 41.6165 13.6991 41.6165 11.3283Z" fill="#B5B5B5"/>
<path d="M51.3794 12.3232C51.3794 10.0265 53.4855 9.57841 55.7706 9.57841L62.2473 9.57841L62.2473 9.2997C62.2473 7.3558 60.8707 6.30094 57.6702 6.30094C54.5937 6.30094 53.4614 7.16529 53.4614 8.30835C53.4609 8.40065 53.469 8.49279 53.4855 8.58353L51.7648 8.58353C51.7514 8.46643 51.7445 8.34864 51.7442 8.23073C51.7442 6.15982 53.6851 4.74158 57.684 4.74158C61.9513 4.74158 64.0884 6.66432 64.0884 9.49727L64.0884 15.3995L62.2713 15.3995C62.3367 14.694 62.378 13.5191 62.3987 12.7148L62.378 12.7148C61.8997 14.5352 60.2513 15.5901 56.6413 15.5901C52.9452 15.583 51.3794 14.0871 51.3794 12.3232ZM62.2473 10.972L62.2473 10.9296L55.9977 10.9296C54.2048 10.9296 53.1173 11.0566 53.1173 12.2808C53.1173 13.0252 53.5888 14.0166 56.7239 14.0166C60.5954 14.0166 62.2473 12.496 62.2473 10.972Z" fill="#B5B5B5"/>
<path d="M66.6454 1.07605L68.4624 1.07605L68.4624 15.3925L66.6454 15.3925L66.6454 1.07605Z" fill="#B5B5B5"/>
<path d="M72.038 8.26606L70.3174 8.26606L70.3174 4.94625L72.038 4.94625L72.038 4.16657C72.038 1.43946 74.3266 5.35132e-05 77.6888 5.36602e-05C78.8184 -0.00612744 79.9433 0.150639 81.0303 0.465745L81.0303 3.44687C80.2655 3.27776 79.4863 3.1856 78.704 3.17169C77.2999 3.17169 76.763 3.61621 76.763 4.48409L76.763 4.94978L81.2368 4.94978L81.2368 8.26606L76.763 8.26606L76.763 15.3925L72.0208 15.3925L72.038 8.26606Z" fill="#B5B5B5"/>
<path d="M81.987 12.4291C81.987 10.8873 82.9471 9.51497 85.7725 9.51497L90.9345 9.51497L90.9345 9.19392C90.9345 8.13553 90.3185 7.62751 88.6047 7.62751C86.9735 7.62751 86.5399 8.13554 86.5399 8.6859C86.5361 8.75014 86.5431 8.81457 86.5605 8.87641L82.3655 8.87641C82.3432 8.70909 82.3294 8.5407 82.3242 8.37191C82.3242 6.25513 84.0759 4.75928 88.8009 4.75928C93.5259 4.75928 95.6836 6.56912 95.6836 9.45146L95.6836 15.3926L90.9414 15.3926C90.9827 14.7575 91.024 13.8685 91.0446 13.2546L91.0033 13.2546C90.5904 14.5882 89.4547 15.6007 86.5468 15.6007C83.0297 15.6007 81.987 13.8473 81.987 12.4291ZM90.9139 11.5435L90.9139 11.3954L87.6687 11.3954C86.6775 11.3954 86.2474 11.5859 86.2474 12.1327C86.2474 12.6795 86.7808 13.0676 88.1849 13.0676C89.9572 13.0676 90.907 12.2386 90.938 11.5435L90.9139 11.5435Z" fill="#B5B5B5"/>
<path d="M96.8881 10.1782C96.8881 7.19709 99.2386 4.72046 103.933 4.72046C108.799 4.72046 110.53 6.87957 110.53 9.50085L106.434 9.50085C106.414 8.63297 105.746 7.8921 104.125 7.8921C102.436 7.8921 101.63 8.80231 101.63 10.1535C101.63 11.5047 102.353 12.4149 104.084 12.4149C105.815 12.4149 106.414 11.7093 106.476 10.8732L110.54 10.8732C110.54 13.3922 108.85 15.5866 103.736 15.5866C98.7843 15.6007 96.8881 12.8348 96.8881 10.1782Z" fill="#B5B5B5"/>
<path d="M112.746 11.3954L112.746 8.26611L111.025 8.26611L111.025 4.9463L112.426 4.9463C113.066 4.9463 113.314 4.65348 113.417 3.90908L113.603 2.59668L117.488 2.59668L117.488 4.96394L122.089 4.96394L122.089 8.26611L117.488 8.26611L117.488 11.0356C117.488 12.0481 118.046 12.348 119.897 12.348C120.588 12.3402 121.277 12.2907 121.962 12.1998L121.962 15.3291C120.894 15.5269 119.809 15.6179 118.724 15.6007C114.191 15.6007 112.746 13.8262 112.746 11.3954Z" fill="#B5B5B5"/>
<path d="M122.874 10.1782C122.874 7.35584 124.894 4.72046 130.194 4.72046C135.494 4.72046 137.517 7.34879 137.517 10.1782C137.517 13.0076 135.535 15.5866 130.194 15.5866C124.853 15.5866 122.874 13.0288 122.874 10.1782ZM132.771 10.1782C132.771 8.92932 132.114 7.87798 130.194 7.87798C128.274 7.87798 127.633 8.9152 127.633 10.1782C127.633 11.3601 128.291 12.4149 130.194 12.4149C132.097 12.4149 132.771 11.3954 132.771 10.1782Z" fill="#B5B5B5"/>
<path d="M138.845 4.94623L143.577 4.94623L143.495 7.90267L143.56 7.90267C144.093 6.21277 145.353 4.7522 147.869 4.7522C151.073 4.7522 152.033 6.51618 152.033 9.1939C152.033 10.1429 151.971 11.1378 151.929 11.6247L147.8 11.6247C147.82 11.3707 147.82 10.9191 147.82 10.5663C147.82 9.21154 147.404 8.47067 146.1 8.47067C144.379 8.47067 143.605 9.84657 143.605 11.3883L143.605 15.3925L138.845 15.3925L138.845 4.94623Z" fill="#B5B5B5"/>
<path d="M154.676 19.6402L154.676 16.6591C155.253 16.7683 155.84 16.825 156.427 16.8285C157.525 16.8285 158.1 16.5533 158.637 15.3926L157.721 15.3926L152.442 4.94629L157.886 4.94629L160.815 11.1202L160.87 11.1202L163.489 4.94629L167.928 4.94629L163.189 15.7066C161.768 18.9205 160.282 20.0001 157.374 20.0001C156.464 19.9867 155.558 19.866 154.676 19.6402Z" fill="#B5B5B5"/>
<path d="M166.228 13.6673C166.228 14.7351 167.073 15.6007 168.114 15.6007C169.156 15.6007 170 14.7351 170 13.6673C170 12.5996 169.156 11.734 168.114 11.734C167.073 11.734 166.228 12.5996 166.228 13.6673Z" fill="#5E5E5E"/>
</g>
<defs>
<clipPath id="clip0_321_210">
<rect width="20" height="170" fill="white" transform="translate(170) rotate(90)"/>
</clipPath>
</defs>
</svg>
