<svg width="45" height="40" viewBox="0 0 45 40" fill="none" xmlns="http://www.w3.org/2000/svg">
<g clip-path="url(#clip0_111_91)">
<path d="M12.4951 7.08774H31.8293C32.4839 7.08838 33.1319 7.21556 33.7361 7.46198C34.3403 7.7084 34.8887 8.06919 35.3498 8.52362C35.8139 8.97557 36.1822 9.51271 36.4335 10.1042C36.6848 10.6957 36.8142 11.3299 36.8143 11.9704V28.0332C36.8105 29.3252 36.2841 30.5632 35.35 31.4767C34.416 32.3903 33.1502 32.9052 31.8293 32.9089H12.4951C11.1735 32.9061 9.90682 32.3916 8.97199 31.478C8.03716 30.5643 7.51023 29.3258 7.50642 28.0332V11.9669C7.50687 11.3275 7.63648 10.6944 7.8878 10.1041C8.13913 9.51384 8.50721 8.97791 8.97091 8.52715C9.43245 8.07473 9.98059 7.71568 10.584 7.47052C11.1875 7.22536 11.8344 7.09888 12.4879 7.09833L12.4951 7.08774ZM20.6147 26.1387C20.4307 26.1387 20.3153 26.107 20.1782 26.0858L19.4171 25.9764L18.9446 25.8988C18.7931 25.8741 18.638 25.8424 18.4901 25.8106L18.0356 25.6907L17.8589 25.6448V22.7589L18.6921 22.826L19.3053 22.8612L19.9474 22.8895L20.5967 22.9106H21.2315H21.8195C21.9962 22.9106 22.1549 22.9106 22.2884 22.9106C22.4096 22.8985 22.5301 22.8796 22.6491 22.8542C22.7387 22.8356 22.8258 22.8072 22.9088 22.7695C22.9655 22.7418 23.0178 22.7061 23.0639 22.6637C23.1001 22.6307 23.1274 22.5895 23.1433 22.5437C23.1651 22.4826 23.1749 22.4179 23.1722 22.3532V22.1627C23.1779 22.0997 23.1673 22.0364 23.1415 21.9784C23.1156 21.9205 23.0753 21.8698 23.0243 21.8311C22.9626 21.7889 22.8944 21.7567 22.8223 21.7358C22.7406 21.7108 22.6553 21.6989 22.5698 21.7006H21.7329C21.1509 21.709 20.5705 21.6377 20.0087 21.4889C19.5335 21.3584 19.0928 21.1284 18.7174 20.815C18.3448 20.4988 18.0679 20.0889 17.9166 19.6296C17.7396 19.0812 17.6579 18.5076 17.6749 17.9327V17.4106C17.6653 16.8592 17.762 16.3111 17.9599 15.7947C18.145 15.3356 18.4467 14.93 18.8364 14.6164C19.0971 14.3938 19.387 14.2064 19.6985 14.059C19.9952 13.9248 20.3097 13.8322 20.6327 13.7838V12.5032H23.3525V13.7309C23.769 13.7682 24.1832 13.827 24.5934 13.9073L24.8206 13.9461C25.0118 13.9778 25.203 14.0131 25.3905 14.0519C25.5781 14.0907 25.7513 14.126 25.8991 14.1648L26.0831 14.2072V17.0966L25.8234 17.0719L25.0334 17.0154L24.1317 16.9696C23.8178 16.9696 23.522 16.9484 23.2479 16.9413C22.9738 16.9343 22.7249 16.9343 22.4471 16.9343C22.2992 16.9343 22.1622 16.9343 22.0359 16.9343C21.915 16.9417 21.7945 16.9558 21.6752 16.9766C21.5869 16.992 21.5008 17.0181 21.4191 17.0542C21.3571 17.0815 21.3008 17.1198 21.2532 17.1671C21.212 17.2065 21.1811 17.2548 21.163 17.3082C21.1397 17.3885 21.1287 17.4718 21.1305 17.5552V17.714C21.1285 17.8017 21.1431 17.889 21.1738 17.9715C21.2008 18.0354 21.2443 18.0913 21.3001 18.1338C21.3695 18.1881 21.4511 18.2256 21.5381 18.2432C21.6702 18.2752 21.806 18.2907 21.9421 18.289H23.0243C23.388 18.2868 23.7508 18.3235 24.1064 18.3984C24.4278 18.4717 24.7364 18.5905 25.0226 18.7512C25.5491 19.0356 25.9772 19.4666 26.2526 19.9895C26.3926 20.2505 26.4981 20.5279 26.5665 20.815C26.6335 21.1188 26.6673 21.4286 26.6675 21.7394V22.265C26.6725 22.7262 26.6253 23.1864 26.5268 23.6374C26.4472 24.0129 26.2994 24.3714 26.0903 24.6958C25.8983 24.9799 25.6536 25.2264 25.3689 25.4225C25.081 25.6249 24.7585 25.7754 24.4166 25.8671L24.3264 25.8918C24.0003 25.995 23.6643 26.0659 23.3237 26.1034V27.4864H20.6147V26.1246V26.1387ZM39.415 21.503V24.096C39.416 24.2249 39.4687 24.3482 39.5619 24.4393C39.655 24.5304 39.7811 24.582 39.9128 24.5829H43.8265C43.9583 24.582 44.0843 24.5304 44.1775 24.4393C44.2706 24.3482 44.3234 24.2249 44.3243 24.096V21.4889C44.3243 21.3597 44.2719 21.2359 44.1785 21.1446C44.0852 21.0533 43.9586 21.002 43.8265 21.002H39.9128C39.7808 21.002 39.6542 21.0533 39.5608 21.1446C39.4675 21.2359 39.415 21.3597 39.415 21.4889V21.503ZM39.415 15.5231V18.1267C39.415 18.2559 39.4675 18.3797 39.5608 18.471C39.6542 18.5623 39.7808 18.6136 39.9128 18.6136H43.8265C43.9586 18.6136 44.0852 18.5623 44.1785 18.471C44.2719 18.3797 44.3243 18.2559 44.3243 18.1267V15.5231C44.3243 15.394 44.2719 15.2701 44.1785 15.1788C44.0852 15.0875 43.9586 15.0362 43.8265 15.0362H39.9128C39.7808 15.0362 39.6542 15.0875 39.5608 15.1788C39.4675 15.2701 39.415 15.394 39.415 15.5231ZM39.415 27.4864V30.09C39.415 30.2192 39.4675 30.343 39.5608 30.4343C39.6542 30.5256 39.7808 30.5769 39.9128 30.5769H43.8265C43.9586 30.5769 44.0852 30.5256 44.1785 30.4343C44.2719 30.343 44.3243 30.2192 44.3243 30.09V27.4723C44.3243 27.3432 44.2719 27.2193 44.1785 27.128C44.0852 27.0367 43.9586 26.9854 43.8265 26.9854H39.9128C39.7808 26.9854 39.6542 27.0367 39.5608 27.128C39.4675 27.2193 39.415 27.3432 39.415 27.4723V27.4864ZM39.415 9.53968V12.1468C39.415 12.276 39.4675 12.3998 39.5608 12.4911C39.6542 12.5824 39.7808 12.6337 39.9128 12.6337H43.8265C43.9586 12.6337 44.0852 12.5824 44.1785 12.4911C44.2719 12.3998 44.3243 12.276 44.3243 12.1468V9.52556C44.3234 9.39673 44.2706 9.27343 44.1775 9.18232C44.0843 9.09122 43.9583 9.03963 43.8265 9.03871H39.9128C39.7811 9.03963 39.655 9.09122 39.5619 9.18232C39.4687 9.27343 39.416 9.39673 39.415 9.52556V9.53968ZM4.90929 21.4889V24.096C4.90835 24.2249 4.8556 24.3482 4.76245 24.4393C4.6693 24.5304 4.54324 24.582 4.41151 24.5829H0.497783C0.366054 24.582 0.239989 24.5304 0.146841 24.4393C0.0536924 24.3482 0.000944327 24.2249 0 24.096L0 21.4889C0 21.3597 0.0524448 21.2359 0.145797 21.1446C0.23915 21.0533 0.365763 21.002 0.497783 21.002H4.41151C4.54353 21.002 4.67014 21.0533 4.7635 21.1446C4.85685 21.2359 4.90929 21.3597 4.90929 21.4889ZM4.90929 15.509V18.1126C4.90929 18.2417 4.85685 18.3656 4.7635 18.4569C4.67014 18.5482 4.54353 18.5995 4.41151 18.5995H0.497783C0.365763 18.5995 0.23915 18.5482 0.145797 18.4569C0.0524448 18.3656 0 18.2417 0 18.1126L0 15.5231C0 15.394 0.0524448 15.2701 0.145797 15.1788C0.23915 15.0875 0.365763 15.0362 0.497783 15.0362H4.41151C4.54353 15.0362 4.67014 15.0875 4.7635 15.1788C4.85685 15.2701 4.90929 15.394 4.90929 15.5231V15.509ZM4.90929 27.4723V30.0759C4.90929 30.205 4.85685 30.3289 4.7635 30.4202C4.67014 30.5115 4.54353 30.5628 4.41151 30.5628H0.497783C0.365763 30.5628 0.23915 30.5115 0.145797 30.4202C0.0524448 30.3289 0 30.205 0 30.0759L0 27.4723C0 27.3432 0.0524448 27.2193 0.145797 27.128C0.23915 27.0367 0.365763 26.9854 0.497783 26.9854H4.41151C4.54353 26.9854 4.67014 27.0367 4.7635 27.128C4.85685 27.2193 4.90929 27.3432 4.90929 27.4723ZM4.90929 9.52556V12.1327C4.90929 12.2618 4.85685 12.3857 4.7635 12.477C4.67014 12.5683 4.54353 12.6196 4.41151 12.6196H0.497783C0.365763 12.6196 0.23915 12.5683 0.145797 12.477C0.0524448 12.3857 0 12.2618 0 12.1327L0 9.52556C0.000944327 9.39673 0.0536924 9.27343 0.146841 9.18232C0.239989 9.09122 0.366054 9.03963 0.497783 9.03871H4.41151C4.54324 9.03963 4.6693 9.09122 4.76245 9.18232C4.8556 9.27343 4.90835 9.39673 4.90929 9.52556ZM30.004 35.1985H32.6661C32.7981 35.1985 32.9247 35.2498 33.0181 35.3411C33.1114 35.4324 33.1639 35.5563 33.1639 35.6854V39.5132C33.1639 39.6423 33.1114 39.7662 33.0181 39.8575C32.9247 39.9488 32.7981 40.0001 32.6661 40.0001H30.004C29.872 40.0001 29.7454 39.9488 29.6521 39.8575C29.5587 39.7662 29.5063 39.6423 29.5063 39.5132V35.6854C29.5063 35.5563 29.5587 35.4324 29.6521 35.3411C29.7454 35.2498 29.872 35.1985 30.004 35.1985ZM23.8719 35.1985H26.5376C26.6045 35.1961 26.6711 35.207 26.7336 35.2304C26.7961 35.2538 26.8532 35.2893 26.9013 35.3347C26.9495 35.3802 26.9877 35.4347 27.0139 35.4949C27.04 35.5551 27.0535 35.6199 27.0534 35.6854V39.5132C27.0534 39.6423 27.001 39.7662 26.9076 39.8575C26.8143 39.9488 26.6877 40.0001 26.5556 40.0001H23.8864C23.7546 39.9991 23.6286 39.9476 23.5354 39.8565C23.4423 39.7654 23.3895 39.6421 23.3886 39.5132V35.6854C23.3895 35.5565 23.4423 35.4332 23.5354 35.3421C23.6286 35.251 23.7546 35.1994 23.8864 35.1985H23.8719ZM17.7579 35.1985H20.4199C20.5523 35.1985 20.6793 35.2497 20.7732 35.3409C20.8671 35.4321 20.9204 35.5559 20.9213 35.6854V39.5132C20.9204 39.6427 20.8671 39.7665 20.7732 39.8577C20.6793 39.9489 20.5523 40.0001 20.4199 40.0001H17.7723C17.7069 40.0001 17.6422 39.9875 17.5818 39.963C17.5214 39.9385 17.4665 39.9027 17.4203 39.8575C17.3741 39.8123 17.3374 39.7586 17.3124 39.6995C17.2874 39.6405 17.2745 39.5771 17.2745 39.5132V35.6854C17.2745 35.6214 17.2874 35.5581 17.3124 35.4991C17.3374 35.44 17.3741 35.3863 17.4203 35.3411C17.4665 35.2959 17.5214 35.26 17.5818 35.2356C17.6422 35.2111 17.7069 35.1985 17.7723 35.1985H17.7579ZM11.6258 35.1985H14.3203C14.4523 35.1985 14.5789 35.2498 14.6723 35.3411C14.7656 35.4324 14.8181 35.5563 14.8181 35.6854V39.5132C14.8181 39.6423 14.7656 39.7662 14.6723 39.8575C14.5789 39.9488 14.4523 40.0001 14.3203 40.0001H11.6582C11.5262 40.0001 11.3996 39.9488 11.3062 39.8575C11.2129 39.7662 11.1604 39.6423 11.1604 39.5132V35.6854C11.1604 35.5563 11.2129 35.4324 11.3062 35.3411C11.3996 35.2498 11.5262 35.1985 11.6582 35.1985H11.6258ZM30.004 7.55477e-05H32.6661C32.7981 7.55477e-05 32.9247 0.0513694 33.0181 0.142673C33.1114 0.233977 33.1639 0.357811 33.1639 0.486934V4.31477C33.1639 4.44389 33.1114 4.56773 33.0181 4.65903C32.9247 4.75033 32.7981 4.80163 32.6661 4.80163H30.004C29.872 4.80163 29.7454 4.75033 29.6521 4.65903C29.5587 4.56773 29.5063 4.44389 29.5063 4.31477V0.486934C29.5063 0.357811 29.5587 0.233977 29.6521 0.142673C29.7454 0.0513694 29.872 7.55477e-05 30.004 7.55477e-05ZM23.8719 7.55477e-05H26.5376C26.6045 -0.00229573 26.6711 0.00854409 26.7336 0.0319471C26.7961 0.0553501 26.8532 0.0908358 26.9013 0.136283C26.9495 0.181731 26.9877 0.236206 27.0139 0.296455C27.04 0.356703 27.0535 0.421487 27.0534 0.486934V4.31477C27.0534 4.44389 27.001 4.56773 26.9076 4.65903C26.8143 4.75033 26.6877 4.80163 26.5556 4.80163H23.8864C23.7546 4.8007 23.6286 4.74911 23.5354 4.65801C23.4423 4.56691 23.3895 4.44361 23.3886 4.31477V0.486934C23.3895 0.358096 23.4423 0.234798 23.5354 0.143694C23.6286 0.0525896 23.7546 0.000999149 23.8864 7.55477e-05H23.8719ZM17.7723 7.55477e-05H20.4344C20.5642 0.0037285 20.6875 0.0565211 20.7783 0.147335C20.8692 0.238148 20.9204 0.359895 20.9213 0.486934V4.31477C20.9204 4.44421 20.8671 4.56804 20.7732 4.65925C20.6793 4.75045 20.5523 4.80163 20.4199 4.80163H17.7723C17.7069 4.80163 17.6422 4.78903 17.5818 4.76457C17.5214 4.7401 17.4665 4.70424 17.4203 4.65903C17.3741 4.61382 17.3374 4.56015 17.3124 4.50108C17.2874 4.44201 17.2745 4.3787 17.2745 4.31477V0.486934C17.2745 0.422999 17.2874 0.35969 17.3124 0.300621C17.3374 0.241553 17.3741 0.187882 17.4203 0.142673C17.4665 0.0974641 17.5214 0.0616023 17.5818 0.0371354C17.6422 0.0126685 17.7069 7.55477e-05 17.7723 7.55477e-05ZM11.6402 7.55477e-05H14.3203C14.4523 7.55477e-05 14.5789 0.0513694 14.6723 0.142673C14.7656 0.233977 14.8181 0.357811 14.8181 0.486934V4.31477C14.8181 4.44389 14.7656 4.56773 14.6723 4.65903C14.5789 4.75033 14.4523 4.80163 14.3203 4.80163H11.6582C11.5262 4.80163 11.3996 4.75033 11.3062 4.65903C11.2129 4.56773 11.1604 4.44389 11.1604 4.31477V0.486934C11.1604 0.357811 11.2129 0.233977 11.3062 0.142673C11.3996 0.0513694 11.5262 7.55477e-05 11.6582 7.55477e-05H11.6402ZM31.8293 9.52556H12.4951C12.1698 9.52451 11.8474 9.5863 11.5466 9.70739C11.2458 9.82847 10.9723 10.0065 10.742 10.2312C10.5123 10.4564 10.3303 10.7239 10.2065 11.0181C10.0827 11.3123 10.0195 11.6276 10.0206 11.9457V28.0332C10.0253 28.6762 10.2888 29.2914 10.754 29.7457C11.2191 30.2 11.8485 30.4568 12.5059 30.4605H31.8401C32.4974 30.4568 33.1268 30.2 33.592 29.7457C34.0572 29.2914 34.3207 28.6762 34.3254 28.0332V11.9669C34.3264 11.3245 34.0669 10.708 33.604 10.2523C33.3736 10.0276 33.1002 9.84964 32.7994 9.72855C32.4985 9.60747 32.1762 9.54568 31.8509 9.54673L31.8293 9.52556Z" fill="#1A3BFF"/>
</g>
<defs>
<clipPath id="clip0_111_91">
<rect width="44.3243" height="40" fill="white"/>
</clipPath>
</defs>
</svg>
