<svg width="35" height="35" viewBox="0 0 35 35" fill="none" xmlns="http://www.w3.org/2000/svg">
<path d="M17.5 0C7.83417 0 0 7.83563 0 17.5C0 27.1644 7.83417 35 17.5 35C27.1658 35 35 27.1644 35 17.5C35 7.83563 27.1658 0 17.5 0ZM31.9156 16.6848C28.1604 16.0694 24.7071 16.0358 21.5571 16.5783C21.2012 15.7573 20.8323 14.9377 20.4385 14.1283C23.8073 12.67 26.5125 10.6896 28.5294 8.17542C30.4981 10.5 31.7333 13.4531 31.9156 16.6848ZM26.3127 6.06521C24.5554 8.33146 22.1302 10.1238 19.0415 11.4319C17.5598 8.71792 15.8652 6.07104 13.9548 3.50146C15.0908 3.21417 16.275 3.04354 17.5 3.04354C20.8177 3.04354 23.87 4.17958 26.3127 6.06521ZM10.9769 4.61708C12.9179 7.1575 14.6388 9.77667 16.135 12.4644C12.5913 13.5071 8.36063 14.0423 3.47083 14.0758C4.48 9.94146 7.26396 6.50271 10.9769 4.61708ZM3.04354 17.5L3.0625 17.1267C8.67562 17.1194 13.5173 16.4733 17.5729 15.1987C17.9127 15.8915 18.2379 16.5871 18.55 17.2871C13.6208 18.8285 9.55937 21.9858 6.39187 26.7371C4.30354 24.2302 3.04354 21.0102 3.04354 17.5ZM8.6275 28.8896C11.499 24.3862 15.1637 21.455 19.7079 20.1002C21.0612 23.6294 22.0544 27.2606 22.6873 30.9794C17.8033 32.8621 12.5475 31.9506 8.6275 28.8896ZM25.5238 29.5167C24.885 26.0852 23.9487 22.731 22.7237 19.4585C25.4596 19.0721 28.4696 19.1727 31.764 19.7444C31.1267 23.8073 28.8065 27.316 25.5238 29.5167Z" fill="#1A3BFF"/>
</svg>
