<svg width="31" height="36" viewBox="0 0 31 36" fill="none" xmlns="http://www.w3.org/2000/svg">
<g clip-path="url(#clip0_2_137)">
<path d="M7.14874 30.0185C10.2174 32.8568 14.2729 34.4373 18.4872 34.4373C22.7016 34.4373 26.757 32.8568 29.8257 30.0185L31.1972 31.3846C27.7637 34.5788 23.2153 36.3588 18.4872 36.3588C13.7591 36.3588 9.2107 34.5788 5.77722 31.3846L7.14874 30.0185Z" fill="#1A3BFF"/>
<path d="M1.94455 18.7015C2.07294 22.6599 3.67 26.4354 6.43485 29.3169L5.05394 30.6646C1.91889 27.4189 0.118418 23.1472 0 18.6738H1.94455V18.7015Z" fill="#1A3BFF"/>
<path d="M6.43485 7.03382C3.66216 9.92145 2.06438 13.7086 1.94455 17.6769H0C0.117 13.2005 1.91751 8.92541 5.05394 5.6769L6.43485 7.03382Z" fill="#1A3BFF"/>
<path d="M7.14874 6.33231L5.77722 4.98462C9.21118 1.78782 13.7616 0.006073 18.4919 0.006073C23.2223 0.006073 27.7727 1.78782 31.2066 4.98462L29.8257 6.33231C26.757 3.49396 22.7016 1.91347 18.4872 1.91347C14.2729 1.91347 10.2174 3.49396 7.14874 6.33231Z" fill="#1A3BFF"/>
<path d="M9.2155 27.9969C11.7358 30.3003 15.0501 31.5807 18.492 31.5807C21.9339 31.5807 25.2482 30.3003 27.7685 27.9969L29.1213 29.3446C26.236 32.0035 22.4288 33.4833 18.4732 33.4833C14.5177 33.4833 10.7105 32.0035 7.8252 29.3446L9.2155 27.9969Z" fill="#1A3BFF"/>
<path d="M4.86605 18.6738C4.97204 21.8747 6.24567 24.9314 8.45454 27.2861L7.1206 28.6154C4.53837 25.9128 3.04573 22.3789 2.92151 18.6738H4.86605Z" fill="#1A3BFF"/>
<path d="M8.45454 9.0646C6.22784 11.4122 4.93711 14.4699 4.81908 17.6769H2.92151C3.04292 13.9658 4.53564 10.4252 7.1206 7.7169L8.45454 9.0646Z" fill="#1A3BFF"/>
<path d="M18.5155 2.87077C22.4562 2.8795 26.2467 4.35747 29.1213 7.00616L27.7591 8.35385C25.2398 6.04849 21.9252 4.76676 18.4826 4.76676C15.0401 4.76676 11.7254 6.04849 9.20611 8.35385L7.83459 7.00616C8.92995 5.99782 10.1669 5.14917 11.5076 4.48615C12.8758 3.81037 14.3384 3.33754 15.8476 3.08308C16.7292 2.9386 17.6217 2.86757 18.5155 2.87077Z" fill="#1A3BFF"/>
<path d="M11.2728 25.9661C13.2447 27.7304 15.8157 28.7082 18.4826 28.7082C21.1495 28.7082 23.7205 27.7304 25.6925 25.9661L27.0734 27.3138C24.7356 29.4358 21.6699 30.6143 18.4873 30.6143C15.3047 30.6143 12.239 29.4358 9.90125 27.3138L11.2728 25.9661Z" fill="#1A3BFF"/>
<path d="M7.78756 18.6738C7.91449 21.1241 8.91173 23.453 10.6057 25.2554L9.18726 26.6123C7.14514 24.4425 5.95912 21.6271 5.84302 18.6738H7.78756Z" fill="#1A3BFF"/>
<path d="M10.5588 11.0769C8.86476 12.8793 7.86751 15.2082 7.74059 17.6585H5.83362C5.94972 14.7052 7.13575 11.8899 9.17786 9.72002L10.5588 11.0769Z" fill="#1A3BFF"/>
<path d="M13.3393 23.9354C14.7648 25.1748 16.6025 25.859 18.506 25.859C20.4094 25.859 22.2471 25.1748 23.6726 23.9354L25.0536 25.2923C23.2639 26.8783 20.9394 27.7561 18.5295 27.7561C16.1195 27.7561 13.7951 26.8783 12.0054 25.2923L13.3393 23.9354Z" fill="#1A3BFF"/>
<path d="M10.7091 18.6738C10.8081 20.3527 11.4686 21.9524 12.5879 23.2246L11.2727 24.5815C9.77571 22.9525 8.89645 20.8659 8.78333 18.6738H10.7091Z" fill="#1A3BFF"/>
</g>
<defs>
<clipPath id="clip0_2_137">
<rect width="31" height="36" fill="white"/>
</clipPath>
</defs>
</svg>
