<svg width="47" height="40" viewBox="0 0 47 40" fill="none" xmlns="http://www.w3.org/2000/svg">
<g clip-path="url(#clip0_111_84)">
<path fill-rule="evenodd" clip-rule="evenodd" d="M23.208 3.52896C24.8372 1.81435 25.9766 0.333717 28.4831 0.0421942C33.1923 -0.506329 37.5217 4.36517 35.1443 9.15612C34.4683 10.5255 33.0897 12.1481 31.5668 13.7591C29.892 15.5082 28.0425 17.2114 26.7437 18.5194L23.208 22.0637L20.2875 19.2213C16.7746 15.8036 11.04 11.496 10.8502 6.17952C10.721 2.41274 13.6377 0.0191792 16.9949 0.0613733C19.9951 0.103567 21.256 1.5957 23.208 3.51362V3.52896ZM34.3886 35.9379H34.681C34.7898 35.9379 34.8941 35.9815 34.971 36.0592C35.0479 36.1369 35.0911 36.2423 35.0911 36.3521V39.6011C35.0911 39.7109 35.0479 39.8163 34.971 39.894C34.8941 39.9717 34.7898 40.0153 34.681 40.0153H25.2968C25.188 40.0153 25.0837 39.9717 25.0067 39.894C24.9298 39.8163 24.8866 39.7109 24.8866 39.6011V36.3368C24.8866 36.2269 24.9298 36.1215 25.0067 36.0439C25.0837 35.9662 25.188 35.9225 25.2968 35.9225C28.0463 35.9225 31.7529 35.7039 34.3886 35.9225V35.9379ZM34.0734 35.1017H25.3006C25.1941 35.0947 25.0946 35.0458 25.0235 34.9654C24.9525 34.885 24.9156 34.7797 24.9208 34.672C24.955 33.9049 25.0233 33.1646 25.0993 32.3974C25.1752 31.7568 25.2398 31.1968 25.3234 30.7096C25.3935 30.2482 25.5118 29.7956 25.6765 29.3594C25.8452 28.9339 26.077 28.5368 26.3639 28.1818C26.7174 27.7443 27.113 27.3434 27.545 26.985C27.8602 26.7204 28.1413 26.4941 28.4755 26.2562L28.8097 26.0529L30.1199 25.3165C30.9234 24.9129 31.7021 24.4607 32.4517 23.9624C33.4098 23.2759 34.3127 22.5141 35.1519 21.6839C35.8241 21.097 36.7735 20.3299 37.3698 19.7046C37.7156 19.2782 38.1196 18.9037 38.5699 18.5923C38.9219 18.3324 39.3492 18.1975 39.7852 18.2087C39.8833 18.2179 39.9794 18.2425 40.07 18.2816C40.1476 18.3166 40.2204 18.3617 40.2865 18.4158L40.3206 18.4503C40.397 18.5214 40.4601 18.6059 40.5067 18.6997C40.5487 18.7815 40.5818 18.8676 40.6055 18.9567C40.6741 19.3068 40.6343 19.6697 40.4915 19.9962C40.3519 20.3484 40.1426 20.6682 39.8763 20.9359L34.2898 27.2344C34.2358 27.2945 34.2008 27.3696 34.1893 27.45C34.1779 27.5304 34.1906 27.6124 34.2257 27.6854C34.2609 27.7585 34.3169 27.8192 34.3865 27.8598C34.4561 27.9005 34.5362 27.9191 34.6164 27.9133C34.7146 27.9079 34.8076 27.8671 34.8785 27.7982C36.7166 25.7064 38.5673 23.6223 40.4308 21.5458C40.5673 21.4133 40.6942 21.271 40.8105 21.1201C40.9159 20.9842 41.0111 20.8406 41.0954 20.6904C42.0676 19.1293 43.5032 14.9751 44.3045 13.0456L44.3804 12.9267C44.5275 12.766 44.6948 12.6255 44.8779 12.5086H44.9007C45.0799 12.3975 45.2807 12.3269 45.4894 12.3015C45.585 12.286 45.6824 12.286 45.778 12.3015C45.8628 12.3207 45.9446 12.3517 46.0211 12.3936L46.0628 12.4166C46.1663 12.4801 46.2577 12.562 46.3325 12.6582C46.4002 12.7602 46.4563 12.8696 46.4996 12.9843C46.6646 13.4974 46.7114 14.0419 46.6363 14.5761C46.5452 15.2782 46.381 15.9687 46.1464 16.636C45.6413 18.3813 45.1514 20.1419 44.6805 21.9026C44.4672 22.8601 44.158 23.7931 43.7576 24.6874C43.2207 25.7112 42.5543 26.6602 41.7752 27.5106C40.8827 28.5462 40.0054 29.4783 39.1509 30.3414C38.2964 31.2045 37.4495 32.0138 36.6292 32.7963L34.4076 34.9521C34.3691 34.9988 34.3209 35.0365 34.2664 35.0623C34.212 35.0882 34.1525 35.1016 34.0923 35.1017H34.0734ZM21.3471 35.1017H12.5933C12.5331 35.1016 12.4737 35.0882 12.4192 35.0623C12.3647 35.0365 12.3166 34.9988 12.2781 34.9521L11.2147 33.9049L10.0412 32.781C9.20573 31.9831 8.35503 31.1699 7.53472 30.3414C6.68023 29.4822 5.81055 28.5539 4.92567 27.5259C4.13875 26.6754 3.46469 25.725 2.92046 24.6989C2.52148 23.8045 2.21355 22.8714 2.00141 21.9141C1.5191 20.1458 1.04058 18.3698 0.52029 16.636C0.285046 15.9689 0.120817 15.2784 0.0303807 14.5761C-0.0482327 14.0438 -0.00404296 13.5003 0.159504 12.9881C0.201271 12.8715 0.257413 12.7607 0.326605 12.6582C0.395718 12.5546 0.483286 12.4649 0.584851 12.3936L0.630424 12.3705C0.706051 12.3261 0.788043 12.2937 0.87348 12.2746C0.969068 12.259 1.06652 12.259 1.16211 12.2746C1.37109 12.2988 1.57215 12.3696 1.75076 12.4818H1.77734C1.96285 12.6015 2.13148 12.746 2.27864 12.9114L2.3546 13.0341C3.15213 14.9521 4.60666 19.1484 5.56749 20.6789C5.65148 20.8265 5.74805 20.9664 5.85612 21.097C5.97229 21.2421 6.09925 21.3781 6.23589 21.5036C8.13476 23.4216 9.9273 25.7614 11.792 27.756C11.8674 27.825 11.9656 27.8633 12.0673 27.8633C12.1691 27.8633 12.2672 27.825 12.3427 27.756C12.3841 27.7212 12.4177 27.6779 12.4413 27.629C12.4648 27.58 12.4778 27.5266 12.4794 27.4722C12.4832 27.4188 12.4764 27.3652 12.4595 27.3145C12.4425 27.2638 12.4157 27.217 12.3806 27.1768L6.79036 20.9359C6.51809 20.6804 6.3009 20.3709 6.15234 20.0269C6.00584 19.7014 5.96592 19.3373 6.03841 18.9873C6.06038 18.8978 6.09356 18.8114 6.13715 18.7303C6.1828 18.6348 6.24595 18.5489 6.32324 18.4772C6.39794 18.4096 6.48248 18.3539 6.57389 18.3122C6.66379 18.2749 6.75836 18.2504 6.85493 18.2394H6.87771C7.31362 18.2282 7.74093 18.3631 8.09299 18.6229C8.54273 18.9336 8.94566 19.3083 9.28928 19.7353C9.9311 20.4143 10.8084 21.0664 11.5072 21.7261C12.3481 22.5544 13.2508 23.3162 14.2074 24.0046C14.9597 24.4878 15.7396 24.9259 16.543 25.3165L17.8494 26.0299L18.1798 26.2371C18.514 26.4749 18.7988 26.705 19.1102 26.9659C19.5443 27.3233 19.9413 27.7242 20.2951 28.1626C20.581 28.5178 20.8115 28.9149 20.9787 29.3402C21.1417 29.777 21.26 30.2294 21.3319 30.6905C21.4117 31.1776 21.48 31.7376 21.5522 32.3782C21.6319 33.1454 21.6927 33.8819 21.7345 34.649C21.7407 34.7573 21.7043 34.8637 21.6331 34.9449C21.562 35.0261 21.4619 35.0756 21.3547 35.0825L21.3471 35.1017ZM12.1983 35.9302C14.8074 36.1642 18.6241 35.9302 21.3661 35.9302C21.4749 35.9302 21.5792 35.9738 21.6561 36.0515C21.733 36.1292 21.7763 36.2346 21.7763 36.3445V39.5934C21.7763 39.7033 21.733 39.8086 21.6561 39.8863C21.5792 39.964 21.4749 40.0077 21.3661 40.0077H11.9819C11.9282 40.0077 11.875 39.9969 11.8255 39.9761C11.7759 39.9552 11.731 39.9246 11.6932 39.8861C11.6554 39.8476 11.6256 39.8019 11.6054 39.7516C11.5852 39.7014 11.575 39.6476 11.5755 39.5934V36.3368C11.575 36.2826 11.5852 36.2288 11.6054 36.1785C11.6256 36.1283 11.6554 36.0826 11.6932 36.0441C11.731 36.0056 11.7759 35.975 11.8255 35.9541C11.875 35.9333 11.9282 35.9225 11.9819 35.9225H12.1983V35.9302ZM22.4067 6.72037H24.2258C24.3893 6.72037 24.5462 6.78571 24.6622 6.90214C24.7782 7.01857 24.8438 7.17661 24.8448 7.34177V9.34024H26.8235C26.9063 9.33869 26.9887 9.35398 27.0656 9.38519C27.1426 9.4164 27.2125 9.4629 27.2713 9.52193C27.3301 9.58096 27.3766 9.65131 27.4079 9.72883C27.4393 9.80634 27.4549 9.88942 27.4539 9.97315V11.8067C27.4539 11.9718 27.3892 12.1303 27.2739 12.2474C27.1586 12.3646 27.0022 12.4309 26.8386 12.4319H24.86V14.3767C24.859 14.5422 24.7935 14.7006 24.6776 14.8177C24.5617 14.9347 24.4049 15.0009 24.241 15.0019H22.4067C22.2432 15.0009 22.0867 14.9346 21.9714 14.8174C21.8561 14.7003 21.7914 14.5418 21.7915 14.3767V12.4242H19.828C19.6641 12.4232 19.5073 12.357 19.3914 12.24C19.2755 12.123 19.21 11.9645 19.209 11.799V9.97315C19.21 9.80799 19.2756 9.64994 19.3916 9.53352C19.5076 9.41709 19.6645 9.35174 19.828 9.35175H21.8066V7.34177C21.8075 7.17988 21.8706 7.02466 21.9825 6.90876C22.0944 6.79287 22.2465 6.72533 22.4067 6.72037Z" fill="#1A3BFF"/>
</g>
<defs>
<clipPath id="clip0_111_84">
<rect width="46.6667" height="40" fill="white"/>
</clipPath>
</defs>
</svg>
