<svg width="13" height="13" viewBox="0 0 13 13" fill="none" xmlns="http://www.w3.org/2000/svg">
<path d="M1.76765 11.9689C1.76765 11.9689 1.75583 12.2595 2.04006 12.2595C2.39376 12.2595 5.31691 12.2556 5.31691 12.2556L5.32184 9.57036C5.32184 9.57036 5.27553 9.12799 5.70459 9.12799H7.06469C7.57257 9.12799 7.54154 9.57036 7.54154 9.57036L7.53563 12.2472C7.53563 12.2472 10.308 12.2472 10.7435 12.2472C11.1041 12.2472 11.0878 11.8856 11.0878 11.8856V6.9339L6.56666 2.91272L1.76765 6.93439V11.9689Z" fill="#1A3BFF"/>
<path d="M0 6.56006C0 6.56006 0.406897 7.3108 1.29606 6.56006L6.6069 2.06695L11.5857 6.53198C12.6143 7.27385 13 6.53198 13 6.53198L6.6069 0.740845L0 6.56006Z" fill="#1A3BFF"/>
<path d="M11.4649 2.05664H10.1846L10.19 3.60984L11.4649 4.69211V2.05664Z" fill="#1A3BFF"/>
</svg>
