<svg width="29" height="29" viewBox="0 0 29 29" fill="none" xmlns="http://www.w3.org/2000/svg">
<path d="M25.7665 9.82807C24.244 8.35197 22.9129 6.92807 20.1144 6.78307C17.8495 6.68447 16.82 8.05908 14.703 8.10838C12.7368 8.15478 12.8876 6.58588 8.8015 7.02668C5.2635 7.41818 2.1634 10.9591 2.4099 15.9239C2.6593 21.286 6.3945 28.71 9.8861 28.71C12.3453 28.6636 12.934 27.4833 14.9524 27.4833C17.458 27.4833 18.0467 28.9536 20.0187 28.6636C23.4117 28.1735 26.6046 22.8114 26.6046 21.0917C24.737 20.1057 22.8694 18.4353 22.6229 15.6339C22.4228 12.8296 24.1454 11.0606 25.7665 9.82807Z" fill="white"/>
<path d="M14.0157 7.17458C13.7692 5.20838 15.1003 0.930878 19.7693 0.289978C20.3087 3.58438 17.6059 7.36888 14.0157 7.17458Z" fill="white"/>
</svg>
