<svg width="139" height="99" viewBox="0 0 139 99" fill="none" xmlns="http://www.w3.org/2000/svg">
<g clip-path="url(#clip0_474_14)">
<path d="M54.071 62.7587C51.9993 61.013 50.6035 58.7948 49.8832 56.1065C49.2266 53.6561 49.3307 51.222 50.193 48.8065C50.6557 47.4972 51.5494 45.8868 52.8731 43.9746C51.3739 42.8892 49.9558 42.1071 48.6182 41.6286C46.2023 40.7654 43.7037 40.6796 41.1234 41.371C39.5841 41.7835 37.8066 42.6547 35.7929 43.985C33.8652 45.2917 32.4134 46.0763 31.438 46.3376C30.7003 46.5353 29.1172 46.6111 26.6876 46.5645C24.2363 46.5239 22.23 46.7132 20.6686 47.1315C16.9388 48.1309 14.2779 50.5175 12.6859 54.2907C11.0838 58.1134 10.9449 62.4968 12.2698 67.4411C13.6759 72.689 16.7314 77.7152 21.4355 82.5211C26.1713 87.2718 30.1876 89.2059 33.4837 88.3227C34.5896 88.0264 35.9221 87.2741 37.4808 86.0662C39.046 84.8805 40.4896 84.1096 41.8125 83.7552C43.2216 83.3776 44.9521 83.2857 47.0028 83.4797C49.1617 83.6442 50.773 83.5844 51.8354 83.2997C54.611 82.556 56.8285 79.684 58.4867 74.6844C59.5816 71.4859 60.1891 68.418 60.3084 65.4805C58.2214 65.4117 56.1426 64.5045 54.071 62.7587Z" fill="white"/>
<path d="M36.2742 40.5788C37.2746 38.8465 37.8819 37.0799 38.097 35.2794C38.2897 33.4846 38.2083 31.9257 37.8538 30.6027C37.8307 30.5163 37.7969 30.4089 37.7503 30.2819C37.7056 30.1544 37.6708 30.0478 37.6476 29.961C37.6082 29.9017 37.5494 29.7896 37.4706 29.625C37.3918 29.4604 37.3328 29.3483 37.2932 29.2891C33.715 31.2013 31.4344 33.5322 30.4513 36.2826C29.453 39.0604 29.3534 42.0734 30.154 45.3219C31.5721 44.8024 32.6499 44.3164 33.3887 43.8626C34.4559 43.1581 35.4163 42.0637 36.2742 40.5788Z" fill="white"/>
</g>
<g clip-path="url(#clip1_474_14)">
<path d="M108.585 43.7241L76.3329 35.0821C75.4427 34.8436 74.5266 35.3725 74.2881 36.2627L67.3745 62.0645C66.3306 65.9606 68.2324 69.958 71.7077 71.6947L69.504 79.919C68.7893 82.5863 70.3783 85.3384 73.0456 86.0531C75.7129 86.7678 78.465 85.1789 79.1797 82.5116L81.3402 74.4486L84.5653 75.3128L82.4049 83.3758C81.6902 86.0431 83.2791 88.7952 85.9464 89.5099C88.6137 90.2246 91.3658 88.6356 92.0805 85.9683L94.2842 77.744C98.1614 77.981 101.808 75.4667 102.852 71.5706L109.766 45.7688C110.005 44.8755 109.475 43.9626 108.585 43.7241Z" fill="white"/>
<path d="M106.376 21.2265L110.794 15.6109C111.365 14.8859 111.238 13.839 110.513 13.2679C109.799 12.6961 108.739 12.8201 108.17 13.5492L103.75 19.1679C102.175 18.1444 100.421 17.339 98.5114 16.8274C96.6021 16.3158 94.6799 16.136 92.804 16.2348L91.7796 9.15742C91.6517 8.24165 90.7966 7.60113 89.8911 7.74221C88.9777 7.87419 88.3463 8.72129 88.4793 9.63159L89.4982 16.7042C83.1551 18.2263 77.8194 23.0844 76.0167 29.8122C75.7781 30.7023 76.307 31.6184 77.1972 31.8569L109.449 40.4989C110.339 40.7374 111.256 40.2085 111.494 39.3183C113.297 32.5905 111.105 25.7154 106.376 21.2265ZM88.6011 27.999C87.7109 27.7605 87.182 26.8444 87.4206 25.9542C87.6591 25.0641 88.5752 24.5352 89.4653 24.7737C90.3555 25.0122 90.8844 25.9283 90.6459 26.8184C90.4074 27.7086 89.4913 28.2375 88.6011 27.999ZM101.502 31.4558C100.612 31.2173 100.083 30.3012 100.322 29.411C100.56 28.5209 101.476 27.992 102.366 28.2305C103.256 28.469 103.785 29.3851 103.547 30.2752C103.308 31.1654 102.392 31.6943 101.502 31.4558Z" fill="white"/>
<path d="M118.261 46.3167C115.594 45.602 112.842 47.1909 112.127 49.8582L107.806 65.9843C107.091 68.6516 108.68 71.4038 111.348 72.1185C114.015 72.8332 116.767 71.2442 117.482 68.5769L121.803 52.4508C122.517 49.7836 120.928 47.0314 118.261 46.3167Z" fill="white"/>
<path d="M66.6572 32.4896C63.9899 31.7749 61.2377 33.3638 60.523 36.0311L56.2021 52.1572C55.4874 54.8245 57.0763 57.5766 59.7436 58.2913C62.4109 59.006 65.163 57.4171 65.8777 54.7498L70.1987 38.6237C70.9134 35.9565 69.3245 33.2043 66.6572 32.4896Z" fill="white"/>
</g>
<defs>
<clipPath id="clip0_474_14">
<rect width="56.0364" height="56.0364" fill="white" transform="translate(0 39.2817) rotate(-15)"/>
</clipPath>
<clipPath id="clip1_474_14">
<rect width="80.1411" height="80.1411" fill="white" transform="translate(61.5332) rotate(15)"/>
</clipPath>
</defs>
</svg>
