<svg width="61" height="82" viewBox="0 0 61 82" fill="none" xmlns="http://www.w3.org/2000/svg">
<g filter="url(#filter0_i_111_186)">
<path d="M19.3875 63.1235C19.3875 63.1235 16.2684 64.9374 21.6073 65.5512C28.0753 66.2891 31.381 66.1833 38.5088 64.8343C38.5088 64.8343 40.3828 66.0093 42.9999 67.027C27.0213 73.8752 6.83717 66.6303 19.3875 63.1235Z" fill="#A91717"/>
<path d="M17.435 54.1871C17.435 54.1871 13.9366 56.7768 19.2795 57.3294C26.1888 58.0422 31.6453 58.1005 41.087 56.2824C41.087 56.2824 42.3929 57.6064 44.4464 58.3304C25.1273 63.9796 3.60934 58.7759 17.435 54.1871Z" fill="#A91717"/>
<path d="M33.8954 39.028C37.8325 43.5609 32.8609 47.6399 32.8609 47.6399C32.8609 47.6399 42.858 42.4791 38.2668 36.0166C33.9787 29.9899 30.6904 26.9955 48.4922 16.6711C48.4922 16.6711 20.5493 23.65 33.8954 39.028Z" fill="#4B648E"/>
<path d="M55.0283 69.7334C55.0283 69.7334 57.3366 71.6353 52.4862 73.1067C43.2632 75.9007 14.0989 76.7444 5.99715 73.218C3.08479 71.951 8.54629 70.1928 10.2643 69.8238C12.0559 69.4353 13.0798 69.5077 13.0798 69.5077C9.84099 67.226 -7.85471 73.9878 4.09129 75.9242C36.6698 81.2075 63.4787 73.5451 55.0283 69.7334Z" fill="#A91717"/>
<path d="M20.8873 44.928C20.8873 44.928 6.05247 48.4515 15.6339 49.731C19.6795 50.2726 27.7442 50.1501 35.2564 49.5207C41.3957 49.0028 47.5603 47.9017 47.5603 47.9017C47.5603 47.9017 45.3955 48.8288 43.8293 49.8982C28.7648 53.8602 -0.336991 52.017 8.04105 47.9644C15.1264 44.5394 20.8873 44.928 20.8873 44.928Z" fill="#A91717"/>
<path d="M47.4992 59.8031C62.813 51.8454 55.7325 44.1982 50.7904 45.2285C49.5791 45.4806 49.039 45.6991 49.039 45.6991C49.039 45.6991 49.4886 44.9946 50.3475 44.6897C60.1246 41.2524 67.6437 54.8275 47.1914 60.2041C47.1914 60.2043 47.4283 59.9925 47.4992 59.8031Z" fill="#A91717"/>
<path d="M38.2663 0C38.2663 0 46.7473 8.48386 30.2225 21.5296C16.9712 31.9946 27.2008 37.9614 30.217 44.7788C22.482 37.8 16.8056 31.6565 20.6138 25.9387C26.2033 17.5454 41.6882 13.4761 38.2663 0Z" fill="#4B648E"/>
<path d="M22.3922 81.3663C37.0915 82.3073 59.6639 80.8443 60.1985 73.889C60.1985 73.889 59.1709 76.5257 48.0504 78.6196C35.5042 80.9807 20.0303 80.705 10.8525 79.1918C10.8528 79.1916 12.7313 80.7468 22.3922 81.3663Z" fill="#A91717"/>
</g>
<defs>
<filter id="filter0_i_111_186" x="0" y="0" width="60.1985" height="85.6229" filterUnits="userSpaceOnUse" color-interpolation-filters="sRGB">
<feFlood flood-opacity="0" result="BackgroundImageFix"/>
<feBlend mode="normal" in="SourceGraphic" in2="BackgroundImageFix" result="shape"/>
<feColorMatrix in="SourceAlpha" type="matrix" values="0 0 0 0 0 0 0 0 0 0 0 0 0 0 0 0 0 0 127 0" result="hardAlpha"/>
<feOffset dy="4"/>
<feGaussianBlur stdDeviation="2"/>
<feComposite in2="hardAlpha" operator="arithmetic" k2="-1" k3="1"/>
<feColorMatrix type="matrix" values="0 0 0 0 0 0 0 0 0 0 0 0 0 0 0 0 0 0 0.25 0"/>
<feBlend mode="normal" in2="shape" result="effect1_innerShadow_111_186"/>
</filter>
</defs>
</svg>
