<svg width="35" height="35" viewBox="0 0 35 35" fill="none" xmlns="http://www.w3.org/2000/svg">
<path d="M0 10.9375H7.82688V35H0V10.9375ZM29.1463 11.2197C29.0631 11.1934 28.9844 11.165 28.8969 11.1409C28.7918 11.1172 28.686 11.0967 28.5797 11.0797C28.1175 10.9852 27.647 10.9376 27.1753 10.9375C22.6122 10.9375 19.7181 14.2559 18.7644 15.5378V10.9375H10.9375V35H18.7644V21.875C18.7644 21.875 24.6794 13.6369 27.1753 19.6875V35H35V18.7622C34.9968 17.0344 34.4203 15.3565 33.3609 13.9915C32.3016 12.6265 30.8192 11.6516 29.1463 11.2197Z" fill="#1A3BFF"/>
<path d="M3.82812 7.65625C5.94234 7.65625 7.65625 5.94234 7.65625 3.82812C7.65625 1.71391 5.94234 0 3.82812 0C1.71391 0 0 1.71391 0 3.82812C0 5.94234 1.71391 7.65625 3.82812 7.65625Z" fill="#1A3BFF"/>
</svg>
