<svg width="70" height="60" viewBox="0 0 70 60" fill="none" xmlns="http://www.w3.org/2000/svg">
<path d="M69.9999 2.20641L61.5885 23.4164L56.9551 22.1352L61.731 0L69.9999 2.20641Z" fill="white"/>
<path d="M53.5336 31.5982V58.3598H43.4114V54.0181L46.9043 47.6836H44.3381C43.3401 49.6053 42.1996 51.3135 40.9165 52.737C37.2098 56.9363 32.2912 59.0715 25.2342 59.0715C8.83911 59.0003 0 48.6089 0 33.3064C0 18.0751 10.6925 7.68359 25.1629 7.68359C37.7088 7.68359 47.4033 15.2993 48.9002 26.1889H37.5662C36.4257 20.2815 32.6477 17.5768 25.1629 17.5768C16.4664 17.5768 11.334 22.3455 11.334 33.3064C11.334 44.3384 17.8208 49.1071 26.0896 49.1071C32.6477 49.1071 38.9919 47.043 41.9145 39.7121H25.2342V31.5982H53.5336Z" fill="white"/>
</svg>
