<svg width="8" height="11" viewBox="0 0 8 11" fill="none" xmlns="http://www.w3.org/2000/svg">
<g clip-path="url(#clip0_502_680)">
<path d="M3.88152 -5.17243e-05C4.11663 0.0409652 4.35548 0.0707944 4.58686 0.126727C5.21992 0.279427 5.7969 0.607738 6.25132 1.07384C6.7742 1.5857 7.12721 2.24559 7.26269 2.96435C7.43351 3.81518 7.29315 4.699 6.8671 5.45519C5.8719 7.23757 4.88542 9.02118 3.90764 10.806C3.88213 10.8533 3.85079 10.8971 3.81434 10.9366C3.78707 10.9632 3.75355 10.9825 3.71685 10.9928C3.68016 11.0031 3.64146 11.004 3.60432 10.9954C3.56717 10.9869 3.53277 10.9692 3.50426 10.9439C3.47575 10.9186 3.45405 10.8866 3.44114 10.8508L2.75819 9.6091C2.01179 8.24435 1.2567 6.87712 0.492886 5.5074C0.175191 4.96124 0.00540398 4.34179 0.000262457 3.71011C-0.00980148 2.86879 0.269833 2.04957 0.792317 1.38972C1.3148 0.72987 2.04839 0.269483 2.87015 0.0857037C3.06048 0.0446868 3.24335 0.0260463 3.4486 -0.00378418L3.88152 -5.17243e-05ZM3.67626 1.8308C3.31377 1.8279 2.95853 1.93227 2.65531 2.13077C2.35209 2.32927 2.11446 2.613 1.97237 2.94621C1.83028 3.27942 1.79009 3.64721 1.85685 4.00321C1.92362 4.35921 2.09436 4.6875 2.34755 4.9467C2.60075 5.20591 2.92508 5.38442 3.27966 5.45976C3.63423 5.53509 4.00319 5.50389 4.34004 5.37005C4.67689 5.23622 4.96655 5.00575 5.17253 4.7077C5.3785 4.40965 5.49155 4.05735 5.49746 3.6952C5.50091 3.45317 5.45649 3.21283 5.36674 2.988C5.27699 2.76316 5.14368 2.55824 4.97447 2.38501C4.80525 2.21178 4.60346 2.07364 4.38068 1.97854C4.15789 1.88343 3.91852 1.83323 3.67626 1.8308Z" fill="black"/>
</g>
<defs>
<clipPath id="clip0_502_680">
<rect width="7.33333" height="11" fill="white"/>
</clipPath>
</defs>
</svg>
