<svg width="156" height="39" viewBox="0 0 156 39" fill="none" xmlns="http://www.w3.org/2000/svg">
<g clip-path="url(#clip0_321_184)">
<path d="M20.373 12.4542V12.5215C21.6417 12.7291 22.6143 13.8592 22.6143 15.2182C22.6143 16.5769 21.6417 17.707 20.373 17.9146V17.9994H16.1671V29.937L19.5386 33.3952L19.5359 21.4374L19.9566 21.4368C23.2975 21.4343 26.0155 18.6445 26.0155 15.2182C26.0155 11.8202 23.3204 9.03083 20.0076 8.99991L19.9265 8.99939H12.6064L15.9752 12.4542H20.373Z" fill="#AAAAAA"/>
<path d="M19.0135 2.65735C28.0682 2.65735 35.435 10.2126 35.435 19.4994C35.435 28.7863 28.0682 36.3418 19.0135 36.3418C9.95845 36.3418 2.59189 28.7863 2.59189 19.4994C2.59189 10.2126 9.95845 2.65735 19.0135 2.65735ZM19.0135 39C29.4975 39 38.0269 30.252 38.0269 19.4994C38.0269 8.74692 29.4975 -0.000976562 19.0135 -0.000976562C8.5294 -0.000976562 0 8.74692 0 19.4994C0 30.252 8.5294 39 19.0135 39Z" fill="#AAAAAA"/>
<path d="M64.4404 15.918C63.416 16.8335 61.9573 17.2906 60.0638 17.2906H54.9655V6.85679H59.7844C63.9125 6.85679 65.977 8.5679 65.977 11.9901C65.977 13.6936 65.4648 15.0026 64.4404 15.918ZM68.0256 5.18553C66.1786 3.46633 63.7031 2.60681 60.5994 2.60681H50.2861V36.0096H54.9655V21.5409H58.4108C61.4839 21.5409 63.8428 21.2028 65.4881 20.526C67.1331 19.8495 68.4289 18.7632 69.3759 17.267C70.3224 15.7709 70.7959 14.0516 70.7959 12.1097C70.7959 9.21264 69.8727 6.90452 68.0256 5.18553Z" fill="#AAAAAA"/>
<path d="M102.711 23.3576L101.198 22.4745C100.049 21.8224 99.2457 21.2657 98.7891 20.8034C98.3323 20.3417 98.1039 19.8554 98.1039 19.345C98.1039 18.7556 98.3559 18.2815 98.8605 17.9228C99.3646 17.5645 100.028 17.385 100.851 17.385C101.829 17.385 102.979 17.6786 104.3 18.2627L107.02 15.4735V15.4271C104.816 14.2177 102.667 13.6125 100.571 13.6125C98.5537 13.6125 96.9049 14.1458 95.6248 15.2122C94.3443 16.2788 93.704 17.6558 93.704 19.3429C93.704 20.648 94.1263 21.8539 94.9724 22.9601C95.8185 24.0666 97.6067 25.3997 100.339 26.9594C101.705 27.7556 102.593 28.3641 103.004 28.7859C103.415 29.2079 103.621 29.7373 103.621 30.3737C103.621 30.9943 103.303 31.5281 102.667 31.9735C102.03 32.4192 101.27 32.6419 100.385 32.6419C99.5316 32.6419 98.4798 32.3755 97.2308 31.842C96.8665 31.6869 96.5053 31.5161 96.146 31.3328L93.5645 33.981V34.4329C95.0692 35.1811 96.319 35.6945 97.3122 35.9728C98.3052 36.2509 99.4381 36.3906 100.711 36.3906C102.868 36.3906 104.634 35.8139 106.007 34.6602C107.381 33.5067 108.068 32.0304 108.068 30.2322C108.068 27.7181 106.282 25.4267 102.711 23.3576Z" fill="#AAAAAA"/>
<path d="M132.116 22.8058C132.411 21.071 133.044 19.7339 134.014 18.7944C134.983 17.8556 136.228 17.3858 137.75 17.3858C139.27 17.3858 140.482 17.8556 141.381 18.7944C142.282 19.7339 142.787 21.071 142.895 22.8058H132.116ZM137.75 13.6134C134.8 13.6134 132.404 14.6602 130.557 16.753C128.71 18.8464 127.787 21.5642 127.787 24.907C127.787 27.1358 128.224 29.097 129.101 30.7927C129.978 32.4876 131.146 33.8367 132.605 34.8392C134.063 35.8423 135.973 36.3439 138.332 36.3439C140.055 36.3439 141.556 36.1524 142.837 35.7707C144.118 35.3887 145.41 34.7519 146.713 33.8606V29.6104C144.354 31.3935 141.778 32.2846 138.985 32.2846C136.982 32.2846 135.348 31.6637 134.083 30.4224C132.818 29.1808 132.132 27.5094 132.023 25.4083H147.085V24.8591C147.085 21.4372 146.239 18.7072 144.548 16.6695C142.856 14.6322 140.59 13.6134 137.75 13.6134Z" fill="#AAAAAA"/>
<path d="M151.764 7.58309V36.0096H156.001V3.23755L151.764 7.58309Z" fill="#AAAAAA"/>
<path d="M117.915 28.7086V17.9579H124.69V14.0422H117.915V9.50586L112.276 15.1882L109.954 17.5284V17.9579H113.678V22.6495V27.6997C113.678 29.6895 113.767 31.0385 113.946 31.7464C114.124 32.455 114.346 33.0283 114.61 33.4657C114.873 33.9038 115.207 34.2975 115.611 34.6476C116.899 35.8095 118.513 36.3906 120.453 36.3906C122.377 36.3906 124.154 35.9211 125.784 34.9818V30.9228C124.092 31.9578 122.486 32.4747 120.965 32.4747C118.932 32.4747 117.915 31.2194 117.915 28.7086Z" fill="#AAAAAA"/>
<path d="M79.8058 33.3583C78.9053 33.3583 78.1721 33.0718 77.6058 32.4986C77.0389 31.9257 76.7561 31.1857 76.7561 30.2784C76.7561 29.3868 77.0545 28.6428 77.6522 28.0458C78.2496 27.449 79.2702 26.8559 80.7136 26.2672L83.5539 25.1449V30.2429V31.6628C83.1977 32.0136 82.8317 32.3093 82.4564 32.551C81.6208 33.0892 80.7376 33.3583 79.8058 33.3583ZM87.7212 32.1407V22.805C87.7212 20.9588 87.6703 19.705 87.5699 19.0442C87.4687 18.384 87.2323 17.7233 86.8598 17.0625C86.4871 16.4023 86.0681 15.8728 85.6027 15.4749C84.2056 14.2332 82.351 13.6125 80.0385 13.6125C76.9501 13.6125 74.5832 14.6073 72.9381 16.5971V21.3483C75.1264 18.8973 77.3767 17.6714 79.6893 17.6714C82.2654 17.6714 83.5539 18.9928 83.5539 21.6348V22.805L78.1297 24.7151C76.3447 25.3518 74.9671 26.2155 73.9976 27.3058C73.0273 28.3961 72.5425 29.6336 72.5425 31.0185C72.5425 32.5463 73.039 33.8161 74.0323 34.8267C75.0255 35.8375 76.2672 36.3429 77.757 36.3429C79.7901 36.3429 81.7068 35.6267 83.5075 34.194C83.799 35.5046 84.6895 36.2268 86.1746 36.3644C86.3489 36.3806 86.5291 36.3906 86.7201 36.3906C87.3562 36.3906 87.9652 36.2751 88.5475 36.0443C89.1294 35.8139 89.9014 35.3797 90.8639 34.7431V32.0929C89.7772 32.8729 88.9778 33.2626 88.4661 33.2626C87.9692 33.2626 87.7212 32.8887 87.7212 32.1407Z" fill="#AAAAAA"/>
</g>
<defs>
<clipPath id="clip0_321_184">
<rect width="156" height="39" fill="white"/>
</clipPath>
</defs>
</svg>
