<svg width="13" height="13" viewBox="0 0 13 13" fill="none" xmlns="http://www.w3.org/2000/svg">
<g clip-path="url(#clip0_502_699)">
<path d="M12.057 9.85894C11.6033 8.94411 10.0279 7.95216 9.95849 7.90878C9.75605 7.78587 9.5448 7.7208 9.34711 7.7208C9.05316 7.7208 8.81254 7.86443 8.66681 8.12568C8.43636 8.41969 8.15055 8.76336 8.08118 8.81662C7.54436 9.20511 7.12411 9.16101 6.65913 8.66503L4.06402 5.89667C3.60198 5.40383 3.5595 4.95003 3.92123 4.38054C3.97184 4.30607 4.29402 4.00097 4.56967 3.75491C4.74545 3.64333 4.8661 3.47752 4.91897 3.27411C4.98923 3.00347 4.93749 2.68511 4.77166 2.37494C4.73257 2.30361 3.80216 0.622877 2.94495 0.139191C2.78499 0.0488166 2.60469 0.00109863 2.42394 0.00109863C2.12616 0.00109863 1.846 0.124972 1.63542 0.349343L1.06199 0.960759C0.155082 1.92789 -0.173204 3.0242 0.0857194 4.21907C0.301715 5.21488 0.931176 6.27456 1.95693 7.36846L5.27934 10.9124C6.57757 12.2971 7.81525 12.9994 8.95804 12.9994C8.95804 12.9994 8.95804 12.9994 8.95827 12.9994C9.79876 12.9994 10.5823 12.6184 11.2866 11.8672L11.8598 11.2558C12.2081 10.8844 12.2872 10.3229 12.057 9.85894Z" fill="#1A3BFF"/>
</g>
<defs>
<clipPath id="clip0_502_699">
<rect width="12.1875" height="13" fill="white"/>
</clipPath>
</defs>
</svg>
