<svg width="20" height="15" viewBox="0 0 20 15" fill="none" xmlns="http://www.w3.org/2000/svg">
<g clip-path="url(#clip0_321_146)">
<path d="M15.24 4.61648C14.8049 4.61648 14.5891 4.39406 14.5891 3.94615C14.5886 2.69722 14.5861 1.44777 14.5925 0.198839C14.5935 0.04253 14.5618 -0.000518924 14.404 0.000506051C12.649 0.00716839 10.8936 0.00716839 9.1386 0.000506051C8.97288 -6.43614e-06 8.92822 0.0384301 8.92822 0.214726C8.93368 5.07055 8.93318 9.92637 8.92872 14.7822C8.92872 14.9544 8.96643 14.9995 9.13662 14.999C12.194 14.9928 15.252 14.9908 18.3094 15C18.6547 15.001 18.9063 14.9016 19.0541 14.5721C19.0541 11.2537 19.0541 7.93535 19.0541 4.61699C17.7829 4.61648 16.5117 4.61699 15.24 4.61648ZM10.6544 3.4639C11.3917 3.46236 12.1285 3.46236 12.8659 3.4639C13.2231 3.46492 13.4747 3.70784 13.4722 4.04403C13.4697 4.37971 13.2191 4.61494 12.8579 4.61648C12.4922 4.61802 12.1271 4.61699 11.7614 4.61699C11.3897 4.61699 11.0181 4.61904 10.6465 4.61648C10.3031 4.61443 10.0526 4.37254 10.0496 4.04608C10.0461 3.70989 10.2987 3.46492 10.6544 3.4639ZM16.1952 11.5351C14.3544 11.5356 12.5136 11.5356 10.6733 11.5351C10.3016 11.5351 10.0461 11.2942 10.0496 10.9524C10.053 10.6182 10.3051 10.383 10.6663 10.3825C11.5961 10.3815 12.5255 10.382 13.4553 10.382C14.3663 10.382 15.2773 10.3815 16.1887 10.382C16.5668 10.3825 16.8194 10.6126 16.8213 10.9549C16.8228 11.2983 16.5698 11.5351 16.1952 11.5351ZM16.1867 9.22887C15.2634 9.22938 14.34 9.22887 13.4166 9.22887C12.5056 9.22887 11.5947 9.22938 10.6832 9.22887C10.3071 9.22836 10.0521 8.99722 10.0491 8.65693C10.0466 8.3151 10.3011 8.07628 10.6743 8.07628C12.5151 8.07577 14.3559 8.07577 16.1962 8.07628C16.5698 8.07628 16.8238 8.31408 16.8209 8.65744C16.8179 8.99979 16.5653 9.22836 16.1867 9.22887ZM16.216 6.92216C14.3569 6.92319 12.4972 6.92319 10.638 6.92216C10.3508 6.92216 10.1463 6.76278 10.0704 6.49321C10.0059 6.26362 10.0962 6.01199 10.2947 5.87208C10.4058 5.79367 10.5299 5.76855 10.6638 5.76855C11.5872 5.7706 12.5106 5.76958 13.434 5.76958C14.3574 5.76958 15.2807 5.76907 16.2041 5.77009C16.5663 5.7706 16.8174 6.00481 16.8204 6.34049C16.8243 6.67719 16.5733 6.92216 16.216 6.92216Z" fill="#1A3BFF"/>
<path d="M7.66958 11.5064C7.32325 11.5627 6.97494 11.5463 6.63258 11.4828C4.41667 11.0738 3.02291 8.9962 3.42531 6.7105C3.77859 4.70411 5.70324 3.24096 7.66313 3.49208C7.77923 3.50694 7.82141 3.49054 7.81942 3.35422C7.81099 2.82277 7.81595 2.29081 7.81595 1.75936C7.81595 1.22125 7.81397 0.683135 7.81794 0.145023C7.81893 0.0450881 7.80603 -0.000523331 7.69141 0.00101413C7.17688 0.00767647 6.66185 0.000501645 6.14732 0.00562652C5.82233 0.00921393 5.59061 0.254183 5.58466 0.591912C5.58069 0.81587 5.5792 1.04034 5.58565 1.2643C5.58863 1.36321 5.56134 1.40779 5.46409 1.43803C5.08452 1.55539 4.71784 1.70914 4.37251 1.91157C4.2961 1.95667 4.24598 1.95052 4.18396 1.88184C4.0361 1.71785 3.8808 1.56103 3.725 1.40523C3.47195 1.15257 3.14795 1.15052 2.89837 1.40626C2.38235 1.93361 1.86931 2.46352 1.35875 2.99599C1.11165 3.25377 1.11314 3.58997 1.35825 3.8498C1.50958 4.01072 1.66191 4.17061 1.82069 4.32334C1.88816 4.38791 1.89015 4.43916 1.84748 4.51808C1.65298 4.8758 1.50214 5.2535 1.39001 5.64607C1.36073 5.74805 1.31707 5.77419 1.2223 5.77163C1.01143 5.76496 0.800552 5.76753 0.589679 5.77009C0.240869 5.7747 0.00518615 6.01301 0.00369762 6.37175C0.000720583 7.12101 0.000720583 7.87077 0.00369762 8.62003C0.00518615 8.98902 0.240372 9.22477 0.602579 9.22835C0.813453 9.2304 1.02433 9.23297 1.2352 9.22682C1.32501 9.22425 1.36222 9.25398 1.38852 9.34571C1.50165 9.73828 1.65099 10.117 1.84599 10.4737C1.89511 10.5639 1.88271 10.6157 1.81275 10.6833C1.65844 10.8314 1.51107 10.9877 1.36371 11.1435C1.11116 11.411 1.11215 11.7442 1.36867 12.0112C1.8713 12.5339 2.3759 13.0546 2.8815 13.5743C3.15539 13.8561 3.46897 13.8536 3.74832 13.5707C3.89419 13.4226 4.04255 13.2765 4.18098 13.1207C4.24896 13.0443 4.30056 13.0449 4.38392 13.0925C4.71983 13.2852 5.07211 13.4425 5.44226 13.5497C5.56332 13.5845 5.59309 13.6445 5.58764 13.7654C5.57821 13.9766 5.58218 14.1882 5.58565 14.3994C5.59111 14.7468 5.82431 14.9897 6.16072 14.9928C6.66929 14.9969 7.17787 14.9908 7.68645 14.9964C7.79065 14.9974 7.82042 14.9692 7.81992 14.8601C7.81595 13.7839 7.81496 12.7076 7.82091 11.6314C7.82042 11.4971 7.77328 11.4895 7.66958 11.5064Z" fill="#1A3BFF"/>
<path d="M7.81912 5.70758C7.80919 5.49694 7.81663 5.28477 7.81663 5.07363C7.81663 4.63391 7.81664 4.63391 7.39241 4.61854C5.58882 4.55448 4.22781 6.14524 4.50716 7.99122C4.73837 9.51997 6.26262 10.6372 7.71591 10.3446C7.77843 10.3318 7.81763 10.32 7.81713 10.2416C7.81465 9.87769 7.81614 9.51434 7.81614 9.13971C7.75858 9.15406 7.7169 9.16379 7.67523 9.17404C6.61242 9.44566 5.58634 8.62619 5.58385 7.50333C5.58187 6.37893 6.59903 5.55485 7.6658 5.82442C7.79332 5.85722 7.82507 5.84441 7.81912 5.70758Z" fill="#1A3BFF"/>
<path d="M15.855 3.4634C16.6042 3.46392 17.3534 3.46392 18.1021 3.46392C18.2976 3.46392 18.4931 3.46392 18.6767 3.46392C17.6854 2.43945 16.6965 1.41807 15.7116 0.400778C15.7151 0.393091 15.7061 0.403341 15.7061 0.414103C15.7051 1.39244 15.7081 2.37078 15.7017 3.34912C15.7012 3.4921 15.7801 3.46289 15.855 3.4634Z" fill="#1A3BFF"/>
<path d="M7.27825 6.92371C6.97757 6.91243 6.7141 7.16355 6.70071 7.47412C6.68731 7.79288 6.93887 8.06963 7.24749 8.07578C7.54867 8.08193 7.80767 7.82671 7.81611 7.51563C7.82405 7.20455 7.57893 6.93447 7.27825 6.92371Z" fill="#1A3BFF"/>
</g>
<defs>
<clipPath id="clip0_321_146">
<rect width="19.0541" height="15" fill="white"/>
</clipPath>
</defs>
</svg>
