<svg width="183" height="52" viewBox="0 0 183 52" fill="none" xmlns="http://www.w3.org/2000/svg">
<path d="M65.0337 18.2485V18.5922C65.8934 17.9135 66.8194 17.3935 67.8208 17.0322C68.8178 16.6664 69.8901 16.4857 71.0244 16.4857C71.5296 16.4857 72.0702 16.521 72.6418 16.5915C73.2178 16.6576 73.7495 16.7766 74.2325 16.9573C74.7155 17.1335 75.1187 17.3759 75.4333 17.68C75.7523 17.9885 75.9118 18.3851 75.9118 18.8698C75.9118 19.1254 75.8631 19.359 75.7656 19.5705C75.6726 19.7864 75.5441 19.9759 75.3801 20.139C75.225 20.3064 75.0345 20.4342 74.8218 20.5224C74.6047 20.6149 74.3743 20.659 74.1217 20.659C73.9046 20.659 73.6565 20.5973 73.3684 20.4695C72.6506 20.1786 71.8708 20.0332 71.0244 20.0332C70.2003 20.0332 69.4204 20.1918 68.6893 20.5047C67.9626 20.8132 67.3246 21.2407 66.784 21.7739C66.2478 22.3115 65.8136 22.9461 65.5079 23.6688C65.1933 24.3959 65.0337 25.1715 65.0337 26V33.7427C65.0337 34.2318 64.8609 34.6461 64.5153 34.9942C64.1653 35.3379 63.7488 35.5142 63.2614 35.5142C62.7606 35.5142 62.3353 35.3379 61.9852 34.9942C61.644 34.6461 61.4668 34.2318 61.4668 33.7427V18.2573C61.4668 17.7681 61.644 17.3495 61.9852 17.0013C62.3353 16.662 62.7606 16.4857 63.2614 16.4857C63.7488 16.4857 64.1653 16.662 64.5153 17.0013C64.8609 17.3495 65.0337 17.7681 65.0337 18.2485ZM93.2503 24.2417C93.0598 23.6159 92.7718 23.0474 92.3863 22.5318C92.0096 22.0118 91.5665 21.5712 91.0614 21.201C90.5518 20.8352 89.9935 20.5444 89.3865 20.3417C88.775 20.139 88.1458 20.0332 87.4989 20.0332C86.852 20.0332 86.2139 20.139 85.6024 20.3417C84.9865 20.5444 84.4282 20.8352 83.9142 21.201C83.4002 21.5712 82.9571 22.0118 82.5805 22.5318C82.2038 23.0474 81.9247 23.6159 81.7475 24.2417H93.2503ZM92.4793 30.1556C92.9933 30.1556 93.4187 30.323 93.7599 30.6624C94.0922 30.9885 94.2606 31.4115 94.2606 31.9227C94.2606 32.4207 94.0922 32.8437 93.7466 33.2007C91.9875 34.743 89.9005 35.5142 87.4989 35.5142C84.858 35.5142 82.6026 34.5844 80.7372 32.7247C78.8717 30.8695 77.9324 28.6264 77.9324 26C77.9324 23.3735 78.8717 21.1305 80.7372 19.2752C82.6026 17.4156 84.858 16.4857 87.4989 16.4857C90.1132 16.4857 92.3685 17.42 94.2606 19.2796C95.1911 20.1963 95.8912 21.223 96.3653 22.3556C96.8305 23.4793 97.061 24.7 97.061 26.022C97.061 26.5332 96.8882 26.9563 96.5381 27.2868C96.1925 27.6217 95.7671 27.7891 95.2664 27.7891H81.7475C81.938 28.4105 82.2216 28.979 82.5982 29.4902C82.9748 30.0013 83.4135 30.442 83.9186 30.8034C84.4282 31.1779 84.9865 31.46 85.5936 31.6627C86.205 31.8654 86.8387 31.9624 87.4989 31.9624C88.2521 31.9624 88.939 31.8478 89.5682 31.623C90.1929 31.3983 90.7734 31.0546 91.3051 30.5963C91.6463 30.3142 92.0406 30.1688 92.4793 30.1556ZM115.352 26C115.352 25.1847 115.197 24.4179 114.878 23.6996C114.572 22.9813 114.142 22.3468 113.597 21.8047C113.061 21.2583 112.428 20.8308 111.697 20.5091C110.97 20.1918 110.19 20.0332 109.353 20.0332C108.511 20.0332 107.726 20.1918 106.995 20.5091C106.264 20.8308 105.635 21.2583 105.099 21.7915C104.563 22.3291 104.137 22.9637 103.832 23.6864C103.517 24.4135 103.357 25.1847 103.357 26C103.357 26.8152 103.517 27.5864 103.832 28.3135C104.137 29.0363 104.563 29.6708 105.099 30.2085C105.635 30.7417 106.264 31.1691 106.995 31.4908C107.726 31.8081 108.511 31.9624 109.353 31.9624C110.19 31.9624 110.97 31.8081 111.697 31.4908C112.428 31.1691 113.061 30.7417 113.597 30.1952C114.142 29.6532 114.572 29.0186 114.878 28.3003C115.197 27.582 115.352 26.8152 115.352 26ZM109.353 16.4857C111.621 16.4857 113.62 17.182 115.352 18.5746V10.1135C115.352 9.60236 115.52 9.18371 115.853 8.8488C116.19 8.51829 116.615 8.35083 117.129 8.35083C117.625 8.35083 118.051 8.51829 118.401 8.8488C118.746 9.18371 118.919 9.60676 118.919 10.1179V26.0044C118.919 28.6529 117.989 30.8915 116.114 32.7291C114.227 34.5844 111.971 35.5142 109.353 35.5142C106.716 35.5142 104.461 34.5844 102.595 32.7247C100.721 30.8695 99.7905 28.6264 99.7905 26C99.7905 23.3735 100.721 21.1305 102.595 19.2752C104.461 17.4156 106.716 16.4857 109.353 16.4857ZM140.777 26C140.777 28.6485 139.842 30.8915 137.972 32.7247C136.085 34.5844 133.829 35.5142 131.211 35.5142C128.57 35.5142 126.314 34.5844 124.449 32.7247C122.579 30.8695 121.649 28.6264 121.649 26C121.649 23.3735 122.579 21.1305 124.449 19.2752C126.314 17.4156 128.57 16.4857 131.211 16.4857C133.829 16.4857 136.085 17.4156 137.972 19.2752C138.912 20.2051 139.603 21.2274 140.064 22.3468C140.529 23.4661 140.764 24.6824 140.777 26ZM131.211 20.0332C130.369 20.0332 129.584 20.1918 128.853 20.5091C128.122 20.8308 127.493 21.2583 126.957 21.7915C126.421 22.3291 125.995 22.9637 125.685 23.6864C125.371 24.4135 125.215 25.1847 125.215 26C125.215 26.8152 125.371 27.5864 125.685 28.3135C125.995 29.0363 126.421 29.6708 126.957 30.2085C127.493 30.7417 128.122 31.1691 128.853 31.4908C129.584 31.8081 130.369 31.9624 131.211 31.9624C132.044 31.9624 132.828 31.8081 133.555 31.4908C134.281 31.1691 134.919 30.7417 135.456 30.1952C135.996 29.6532 136.43 29.0186 136.736 28.3003C137.051 27.582 137.21 26.8152 137.21 26C137.21 25.1847 137.051 24.4179 136.736 23.6996C136.43 22.9813 135.996 22.3468 135.456 21.8047C134.919 21.2583 134.281 20.8308 133.555 20.5091C132.828 20.1918 132.044 20.0332 131.211 20.0332ZM147.069 26C147.069 26.8152 147.229 27.5864 147.543 28.3135C147.853 29.0363 148.279 29.6708 148.815 30.2085C149.351 30.7417 149.98 31.1691 150.707 31.4908C151.443 31.8081 152.222 31.9624 153.069 31.9624C153.902 31.9624 154.682 31.8081 155.413 31.4908C156.139 31.1691 156.773 30.7417 157.314 30.1952C157.854 29.6532 158.284 29.0186 158.594 28.3003C158.909 27.582 159.064 26.8152 159.064 26C159.064 25.1847 158.909 24.4179 158.594 23.6996C158.284 22.9813 157.854 22.3468 157.314 21.8047C156.773 21.2583 156.139 20.8308 155.413 20.5091C154.682 20.1918 153.902 20.0332 153.069 20.0332C152.222 20.0332 151.443 20.1918 150.707 20.5091C149.98 20.8308 149.351 21.2583 148.815 21.7915C148.279 22.3291 147.853 22.9637 147.543 23.6864C147.229 24.4135 147.069 25.1847 147.069 26ZM153.069 35.5142C150.778 35.5142 148.78 34.8179 147.069 33.4254V41.8864C147.069 42.3932 146.896 42.8163 146.551 43.1512C146.201 43.4817 145.775 43.6491 145.283 43.6491C144.769 43.6491 144.344 43.4817 144.007 43.1512C143.675 42.8163 143.502 42.3932 143.502 41.882V25.9956C143.502 23.3691 144.437 21.1305 146.307 19.2708C148.172 17.4156 150.428 16.4857 153.069 16.4857C155.687 16.4857 157.943 17.4156 159.83 19.2752C160.77 20.1918 161.465 21.2098 161.935 22.3379C162.4 23.4661 162.631 24.6824 162.631 26C162.631 28.6485 161.7 30.8915 159.83 32.7247C158.873 33.6678 157.836 34.364 156.711 34.8224C155.594 35.2807 154.376 35.5142 153.069 35.5142ZM168.847 26.4583C167.775 26.0529 167.026 25.6342 166.592 25.2068H166.61C165.746 24.3298 165.316 23.303 165.316 22.1264C165.316 21.2715 165.542 20.4871 166.003 19.7908C166.464 19.0946 167.062 18.504 167.802 18.0193C168.542 17.5302 169.375 17.1556 170.31 16.8868C171.236 16.6224 172.162 16.4857 173.101 16.4857C175.946 16.4857 178.387 17.6315 180.421 19.9098C180.66 20.2051 180.785 20.5576 180.785 20.9807C180.785 21.4918 180.612 21.9149 180.275 22.2454C179.943 22.5803 179.517 22.7478 179.003 22.7478C178.644 22.7478 178.334 22.642 178.077 22.4393C177.82 22.2366 177.572 22.0118 177.333 21.7739C176.172 20.6149 174.763 20.0332 173.101 20.0332C171.457 20.0332 170.15 20.5356 169.171 21.5315C168.985 21.7122 168.901 21.959 168.901 22.2763C168.901 22.5979 169.042 22.8139 169.339 22.924L177.333 25.5417C178.449 25.9691 179.198 26.3878 179.588 26.7932H179.57C180.435 27.6702 180.869 28.6969 180.869 29.8735C180.869 30.7417 180.638 31.5261 180.178 32.2135C179.717 32.9098 179.114 33.5003 178.374 33.9939C177.634 34.4874 176.801 34.862 175.879 35.122C174.962 35.3864 174.032 35.5142 173.101 35.5142C170.226 35.5142 167.784 34.3817 165.772 32.1254C165.524 31.7949 165.396 31.4335 165.396 31.0193C165.396 30.5081 165.564 30.0851 165.901 29.7546C166.233 29.4196 166.659 29.2522 167.173 29.2522C167.545 29.2522 167.868 29.3624 168.13 29.5827C168.391 29.8074 168.63 30.019 168.847 30.2261C170.004 31.3851 171.422 31.9624 173.101 31.9624C174.727 31.9624 176.035 31.4556 177.023 30.4332C177.2 30.2437 177.28 30.0102 177.28 29.7369C177.28 29.4196 177.129 29.1993 176.819 29.0759L168.847 26.4583Z" fill="#757575"/>
<path d="M50.828 28.9393C50.828 28.0183 50.3051 27.2207 49.543 26.8152C49.5563 26.5464 49.5607 26.2776 49.5607 26.0044C49.5607 13.0793 39.0238 2.59998 26.0321 2.59998C18.6811 2.59998 12.1188 5.95354 7.80302 11.2064C7.63464 11.1888 7.46183 11.1844 7.28016 11.1844C4.43546 11.1844 2.13135 13.4759 2.13135 16.3051C2.13135 19.1342 4.43546 21.4301 7.28016 21.4301C9.20764 21.4301 10.8781 20.3857 11.7688 18.8346H23.4356C27.0778 18.8346 30.0377 21.7783 30.0377 25.4007C30.0377 29.0186 27.0778 31.9668 23.4356 31.9668H6.32307C6.85922 33.7691 7.64793 35.4701 8.65377 37.0169C12.1675 42.4417 18.2956 46.0332 25.2478 46.0332C27.1665 46.0332 29.0275 45.7644 30.7777 45.2488C25.0174 44.9095 17.6088 42.3888 15.2161 37.0169H23.4356C29.8782 37.0169 35.1201 31.8081 35.1201 25.4007C35.1201 18.9888 29.8782 13.78 23.4356 13.78H11.7688C11.4364 13.2071 11.0022 12.7003 10.4838 12.2949C14.3919 8.03354 20.0193 5.36303 26.2714 5.36303C38.0711 5.36303 47.6376 14.8773 47.6376 26.6169C47.6376 26.6301 47.6376 26.6478 47.6376 26.6654C46.6894 26.9915 46.0026 27.8817 46.0026 28.9393C46.0026 29.8118 46.4812 30.583 47.1901 31.0017C45.1607 40.7318 36.5646 48.3071 26.2714 48.3071C18.4285 48.3071 11.5383 45.2356 5.92428 38.1627C6.76173 39.5288 7.74098 40.8068 8.83544 41.9701C8.91963 42.0627 9.00825 42.1508 9.09244 42.2478C13.3728 46.6546 19.3812 49.4 26.0321 49.4C37.2027 49.4 46.552 41.6617 48.9581 31.2749C50.0304 31.0281 50.828 30.0762 50.828 28.9393Z" fill="#D9D9D9"/>
</svg>
