<svg width="18" height="26" viewBox="0 0 18 26" fill="none" xmlns="http://www.w3.org/2000/svg">
<path d="M15.3867 3.25144C14.6305 2.20967 13.6391 1.3696 12.4966 0.802615C11.4037 0.274139 10.2094 0 9 0C7.7906 0 6.5963 0.274139 5.50336 0.802615C4.36011 1.3695 3.36778 2.20955 2.61061 3.25144C1.73631 4.47445 1.08845 5.85026 0.698988 7.31105C0.204009 9.17264 -0.0302694 11.0964 0.00312666 13.025C-0.0291876 14.9481 0.205085 16.8663 0.698988 18.7226C1.0876 20.1825 1.73654 21.5568 2.61327 22.7767C3.37089 23.8141 4.36344 24.6487 5.50603 25.2092C6.60012 25.7301 7.79273 26 9 26C10.2073 26 11.3999 25.7301 12.494 25.2092C13.6356 24.6473 14.6279 23.8129 15.3867 22.7767C16.2619 21.5559 16.9107 20.1819 17.301 18.7226C17.7946 16.8663 18.0289 14.9481 17.9969 13.025C18.0303 11.0964 17.796 9.17264 17.301 7.31105C16.9107 5.85009 16.2619 4.47427 15.3867 3.25144ZM8.988 24.5508C7.99249 24.5547 7.00901 24.3286 6.11124 23.8896C5.26234 23.463 4.51592 22.8508 3.92501 22.0965L14.7149 4.9248C15.2105 5.81171 15.5948 6.75878 15.8586 7.74367C16.3 9.46241 16.5082 11.2349 16.4772 13.0114C16.5084 14.787 16.3002 16.5586 15.8586 18.2763C15.5314 19.5626 14.9766 20.777 14.2216 21.8598C13.6082 22.7207 12.7995 23.4172 11.8648 23.8896C10.971 24.3294 9.99085 24.5555 8.99867 24.5508H8.988ZM2.09871 18.2763C1.65628 16.5587 1.44725 14.7871 1.4775 13.0114C1.44728 11.2347 1.6563 9.46226 2.09871 7.74367C2.43042 6.45359 2.99065 5.23634 3.75171 4.15206C4.65508 2.89608 5.96144 2.00319 7.44337 1.62882C8.9253 1.25446 10.4889 1.42233 11.8621 2.10321C12.6403 2.49948 13.3301 3.05524 13.8884 3.73576L3.12517 20.8775C2.68673 20.0534 2.34232 19.1806 2.09871 18.2763Z" fill="#222020"/>
</svg>
