<svg width="52" height="43" viewBox="0 0 52 43" fill="none" xmlns="http://www.w3.org/2000/svg">
<g clip-path="url(#clip0_136_272)">
<path fill-rule="evenodd" clip-rule="evenodd" d="M1.39837 0H50.0481C50.4186 0.00111315 50.7736 0.149963 51.0356 0.41404C51.2976 0.678116 51.4453 1.03596 51.4464 1.40942V33.9021C51.4453 34.2755 51.2976 34.6334 51.0356 34.8974C50.7736 35.1615 50.4186 35.3104 50.0481 35.3115H1.39837C1.21419 35.3109 1.03191 35.2738 0.861956 35.2023C0.692 35.1307 0.537692 35.0261 0.407842 34.8945C0.277991 34.7628 0.175142 34.6066 0.105165 34.4349C0.0351887 34.2632 -0.000544361 34.0793 6.26802e-06 33.8936V1.40098C0.00330995 1.02899 0.151962 0.673301 0.413731 0.411042C0.675499 0.148784 1.02928 0.00109557 1.39837 0V0ZM5.64789 26.9689C5.50011 26.9782 5.352 26.9568 5.21271 26.9062C5.07342 26.8556 4.94589 26.7767 4.83798 26.6745C4.73007 26.5723 4.64408 26.4489 4.5853 26.312C4.52651 26.175 4.49619 26.0273 4.49619 25.8781C4.49619 25.7288 4.52651 25.5812 4.5853 25.4442C4.64408 25.3072 4.73007 25.1838 4.83798 25.0816C4.94589 24.9794 5.07342 24.9006 5.21271 24.8499C5.352 24.7993 5.50011 24.778 5.64789 24.7872H22.1645C22.3123 24.778 22.4604 24.7993 22.5997 24.8499C22.739 24.9006 22.8665 24.9794 22.9744 25.0816C23.0823 25.1838 23.1683 25.3072 23.2271 25.4442C23.2859 25.5812 23.3162 25.7288 23.3162 25.8781C23.3162 26.0273 23.2859 26.175 23.2271 26.312C23.1683 26.4489 23.0823 26.5723 22.9744 26.6745C22.8665 26.7767 22.739 26.8556 22.5997 26.9062C22.4604 26.9568 22.3123 26.9782 22.1645 26.9689H5.64789ZM5.71069 21.365C5.43529 21.3477 5.17679 21.2252 4.98783 21.0226C4.79887 20.8199 4.69368 20.5523 4.69368 20.2741C4.69368 19.996 4.79887 19.7284 4.98783 19.5257C5.17679 19.323 5.43529 19.2006 5.71069 19.1833H17.7517C18.0271 19.2006 18.2856 19.323 18.4746 19.5257C18.6635 19.7284 18.7687 19.996 18.7687 20.2741C18.7687 20.5523 18.6635 20.8199 18.4746 21.0226C18.2856 21.2252 18.0271 21.3477 17.7517 21.365H5.71069ZM5.64789 15.7821C5.50011 15.7914 5.352 15.7701 5.21271 15.7194C5.07342 15.6688 4.94589 15.59 4.83798 15.4878C4.73007 15.3856 4.64408 15.2622 4.5853 15.1252C4.52651 14.9882 4.49619 14.8406 4.49619 14.6913C4.49619 14.5421 4.52651 14.3944 4.5853 14.2574C4.64408 14.1205 4.73007 13.9971 4.83798 13.8949C4.94589 13.7927 5.07342 13.7138 5.21271 13.6632C5.352 13.6126 5.50011 13.5912 5.64789 13.6005H14.1721C14.4475 13.6178 14.706 13.7402 14.8949 13.9429C15.0839 14.1455 15.1891 14.4132 15.1891 14.6913C15.1891 14.9694 15.0839 15.2371 14.8949 15.4398C14.706 15.6424 14.4475 15.7649 14.1721 15.7821H5.64789ZM5.64789 10.1867C5.50011 10.1959 5.352 10.1746 5.21271 10.124C5.07342 10.0733 4.94589 9.99449 4.83798 9.89229C4.73007 9.79009 4.64408 9.66669 4.5853 9.52971C4.52651 9.39273 4.49619 9.24507 4.49619 9.09583C4.49619 8.94659 4.52651 8.79892 4.5853 8.66194C4.64408 8.52497 4.73007 8.40157 4.83798 8.29937C4.94589 8.19717 5.07342 8.11833 5.21271 8.0677C5.352 8.01707 5.50011 7.99574 5.64789 8.005H10.5924C10.8678 8.02228 11.1263 8.14472 11.3153 8.34739C11.5042 8.55006 11.6094 8.81772 11.6094 9.09583C11.6094 9.37394 11.5042 9.64159 11.3153 9.84427C11.1263 10.0469 10.8678 10.1694 10.5924 10.1867H5.64789ZM46.2591 21.2384V23.9559L40.7201 27.1208V23.9559L44.2871 22.5887L40.7201 21.2384V18.0735L46.2591 21.2384ZM36.6631 27.9901H34.3311L37.2618 16.5501H39.6189L36.6882 27.9901H36.6631ZM32.7234 21.2384L29.1521 22.5887L32.7234 23.9559V27.1208L27.2137 23.9559V21.2384L32.7569 18.0735V21.2384H32.7234ZM35.0973 4.91609V6.46477C35.0973 6.66958 35.0166 6.866 34.8729 7.01082C34.7292 7.15564 34.5343 7.237 34.3311 7.237H33.0751C32.9182 7.75725 32.6929 8.25397 32.4052 8.71393L33.2426 9.5579C33.3852 9.70258 33.4653 9.89828 33.4653 10.1023C33.4653 10.3062 33.3852 10.5019 33.2426 10.6466L32.108 11.7902C31.9644 11.934 31.7703 12.0147 31.5679 12.0147C31.3655 12.0147 31.1713 11.934 31.0278 11.7902L30.1151 10.8703C29.6401 11.1271 29.1332 11.3187 28.6079 11.4399V12.6299C28.6068 12.8344 28.5257 13.0302 28.3822 13.1748C28.2388 13.3193 28.0446 13.4011 27.8417 13.4022H26.2214C26.0186 13.4011 25.8243 13.3193 25.6809 13.1748C25.5374 13.0302 25.4564 12.8344 25.4553 12.6299V11.3302C24.9389 11.1746 24.4459 10.9488 23.9899 10.6593L23.1526 11.5032C23.0817 11.5756 22.9973 11.633 22.9042 11.6722C22.8111 11.7114 22.7113 11.7316 22.6104 11.7316C22.5095 11.7316 22.4097 11.7114 22.3166 11.6722C22.2235 11.633 22.1391 11.5756 22.0682 11.5032L20.9336 10.3597C20.7957 10.215 20.7187 10.0222 20.7187 9.82164C20.7187 9.62105 20.7957 9.42824 20.9336 9.28361L21.8463 8.36791C21.5915 7.88774 21.4014 7.37543 21.2811 6.84455H20.0963C19.8931 6.84455 19.6982 6.76319 19.5545 6.61837C19.4108 6.47355 19.3301 6.27713 19.3301 6.07233V4.93297H1.2937V29.8932C1.2937 30.229 1.42603 30.551 1.66158 30.7884C1.89713 31.0258 2.2166 31.1592 2.54972 31.1592H48.9218C49.255 31.1592 49.5744 31.0258 49.81 30.7884C50.0455 30.551 50.1779 30.229 50.1779 29.8932V4.91609H35.0973ZM30.3161 4.91609H24.1239C24.0937 5.09453 24.0783 5.27521 24.0778 5.45623C24.1358 6.25568 24.4918 7.00339 25.0743 7.54915C25.6568 8.0949 26.4226 8.39826 27.2179 8.39826C28.0132 8.39826 28.779 8.0949 29.3615 7.54915C29.944 7.00339 30.3 6.25568 30.3579 5.45623C30.3589 5.27533 30.3449 5.09465 30.3161 4.91609ZM47.8124 2.07615C47.978 2.07615 48.1399 2.12565 48.2776 2.21839C48.4153 2.31112 48.5226 2.44293 48.586 2.59715C48.6493 2.75136 48.6659 2.92105 48.6336 3.08477C48.6013 3.24848 48.5216 3.39886 48.4044 3.51689C48.2873 3.63492 48.1381 3.7153 47.9757 3.74787C47.8133 3.78043 47.6449 3.76372 47.4919 3.69984C47.3389 3.63596 47.2081 3.52779 47.1161 3.389C47.0241 3.25021 46.975 3.08704 46.975 2.92012C46.975 2.69628 47.0632 2.48162 47.2203 2.32334C47.3773 2.16507 47.5903 2.07615 47.8124 2.07615ZM42.1854 2.07615C42.351 2.07615 42.5129 2.12565 42.6506 2.21839C42.7883 2.31112 42.8956 2.44293 42.959 2.59715C43.0224 2.75136 43.039 2.92105 43.0067 3.08477C42.9744 3.24848 42.8946 3.39886 42.7775 3.51689C42.6604 3.63492 42.5112 3.7153 42.3488 3.74787C42.1863 3.78043 42.018 3.76372 41.865 3.69984C41.712 3.63596 41.5812 3.52779 41.4892 3.389C41.3972 3.25021 41.3481 3.08704 41.3481 2.92012C41.3481 2.69628 41.4363 2.48162 41.5933 2.32334C41.7503 2.16507 41.9633 2.07615 42.1854 2.07615ZM44.9989 2.07615C45.1645 2.07615 45.3264 2.12565 45.4641 2.21839C45.6018 2.31112 45.7091 2.44293 45.7725 2.59715C45.8359 2.75136 45.8524 2.92105 45.8201 3.08477C45.7878 3.24848 45.7081 3.39886 45.591 3.51689C45.4739 3.63492 45.3247 3.7153 45.1622 3.74787C44.9998 3.78043 44.8314 3.76372 44.6784 3.69984C44.5254 3.63596 44.3947 3.52779 44.3027 3.389C44.2106 3.25021 44.1615 3.08704 44.1615 2.92012C44.1615 2.69628 44.2498 2.48162 44.4068 2.32334C44.5638 2.16507 44.7768 2.07615 44.9989 2.07615ZM19.3803 37.2484H32.0661C32.0996 39.4596 33.0039 41.4429 35.4532 43H15.9933C17.9652 41.561 19.3887 39.8182 19.3803 37.2484Z" fill="#1A3BFF"/>
</g>
<defs>
<clipPath id="clip0_136_272">
<rect width="51.4464" height="43" fill="white"/>
</clipPath>
</defs>
</svg>
