<svg width="74" height="74" viewBox="0 0 74 74" fill="none" xmlns="http://www.w3.org/2000/svg">
<g clip-path="url(#clip0_321_93)">
<path d="M38.3004 73.6429C43.9263 72.829 48.8451 66.9426 51.9276 58.26C47.4371 57.2663 42.8559 56.7384 38.2573 56.6859L38.3004 73.6429Z" fill="white"/>
<path d="M47.2886 72.2406C47.621 72.1435 47.9522 72.0456 48.2807 71.9382C48.558 71.8482 48.8313 71.7512 49.1046 71.6548C49.4281 71.5422 49.7502 71.4264 50.071 71.3036C50.3443 71.1989 50.615 71.0877 50.8864 70.9765C51.1995 70.8441 51.5119 70.7123 51.8212 70.5798C52.0913 70.4603 52.3594 70.3351 52.6275 70.2091C52.9309 70.0651 53.2331 69.9186 53.5326 69.7663C53.7956 69.6314 54.0579 69.4939 54.3209 69.3526C54.6153 69.1938 54.9077 69.0319 55.1982 68.8655C55.4612 68.7158 55.7145 68.5655 55.9703 68.4107C56.255 68.2347 56.5385 68.0586 56.82 67.8826C57.0719 67.7214 57.3233 67.5576 57.5714 67.3887C57.8484 67.2011 58.1215 67.0058 58.3933 66.8105C58.6375 66.6346 58.8805 66.4592 59.119 66.2827C59.3818 66.0791 59.651 65.8684 59.9144 65.657C60.1483 65.4695 60.3816 65.2833 60.6117 65.0907C60.8738 64.8717 61.125 64.645 61.3794 64.4183C61.6024 64.2193 61.8267 64.0222 62.0445 63.818C62.2951 63.583 62.5391 63.3396 62.7832 63.0981C62.9946 62.8882 63.2086 62.6815 63.4155 62.4665C63.4539 62.4265 63.4904 62.3834 63.5301 62.3422C60.6575 60.8679 57.6328 59.7125 54.5088 58.8971C52.8984 64.0789 50.0209 68.7784 46.1372 72.5685C46.2438 72.5406 46.3503 72.5179 46.4569 72.49C46.738 72.4103 47.0139 72.3229 47.2886 72.2406Z" fill="white"/>
<path d="M73.6936 38.1436L57.9227 38.1836C57.8787 44.3416 57.0009 50.465 55.3134 56.3876C58.7877 57.3061 62.1416 58.6309 65.3058 60.3344C70.4779 54.0684 73.4278 46.2647 73.6936 38.1436Z" fill="white"/>
<path d="M38.2038 35.6033L55.2854 35.5599C55.2035 29.62 54.317 23.7188 52.6513 18.0167C47.8976 19.1135 43.0412 19.7052 38.1636 19.7818L38.2038 35.6033Z" fill="white"/>
<path d="M38.1138 0.194031L38.1569 17.151C42.7551 17.0745 47.3336 16.524 51.819 15.5075C48.6924 6.84067 43.7437 0.979308 38.1138 0.194031Z" fill="white"/>
<path d="M38.2507 54.0553C43.1286 54.1078 47.988 54.6747 52.7472 55.7474C54.3839 50.0369 55.2404 44.1306 55.2921 38.1903L38.2104 38.2338L38.2507 54.0553Z" fill="white"/>
<path d="M65.1864 13.3651C62.031 15.0847 58.6838 16.4265 55.2142 17.3627C56.9318 23.2766 57.8407 29.3955 57.9161 35.5531L73.6869 35.513C73.3792 27.3939 70.3897 19.6053 65.1864 13.3651Z" fill="white"/>
<path d="M63.4042 11.3742C63.3655 11.3351 63.3288 11.2928 63.2908 11.2524C63.0822 11.0385 62.8659 10.8322 62.6534 10.624C62.4087 10.3838 62.1647 10.141 61.9124 9.90789C61.6941 9.70549 61.4682 9.51404 61.2442 9.3123C60.9886 9.08688 60.7331 8.85954 60.4705 8.64184C60.2427 8.45039 60.0091 8.2673 59.7774 8.08357C59.5135 7.87101 59.2433 7.65976 58.9717 7.45686C58.7336 7.27828 58.4924 7.10549 58.2498 6.9327C57.9744 6.73559 57.6977 6.53913 57.4172 6.35166C57.1709 6.18659 56.9206 6.02538 56.6704 5.86738C56.3854 5.68507 56.1011 5.50661 55.811 5.33394C55.5569 5.18237 55.3003 5.03274 55.043 4.88761C54.7484 4.72009 54.4532 4.55771 54.1555 4.39919C53.8918 4.2682 53.6288 4.12565 53.3651 3.99466C53.0622 3.84258 52.7568 3.69628 52.4437 3.55257C52.18 3.428 51.9126 3.30666 51.6412 3.18853C51.3294 3.05124 51.0144 2.92745 50.7 2.79659C50.4287 2.68681 50.1587 2.57832 49.8848 2.47497C49.5653 2.35376 49.2413 2.24026 48.9174 2.12934C48.6435 2.0337 48.3697 1.9387 48.092 1.84949C47.7629 1.74371 47.4338 1.64757 47.0958 1.55081C46.822 1.47123 46.5469 1.39036 46.2699 1.31785C46.1639 1.28922 46.0559 1.26702 45.9492 1.23967C49.8521 5.00998 52.7528 9.69419 54.3902 14.8684C57.5132 14.0371 60.5365 12.8657 63.4042 11.3742Z" fill="white"/>
<path d="M0.090055 35.7001L15.8608 35.66C15.9049 29.5021 16.7827 23.3787 18.4696 17.4561C14.9959 16.5382 11.642 15.2134 8.47784 13.5092C3.30573 19.7753 0.355849 27.5796 0.090055 35.7001Z" fill="white"/>
<path d="M35.6702 73.6496L35.6271 56.6926C31.0289 56.7691 26.4504 57.3196 21.965 58.3361C25.091 67.0029 30.0403 72.8643 35.6702 73.6496Z" fill="white"/>
<path d="M35.5801 38.2404L18.4985 38.2839C18.5804 44.2238 19.4663 50.1256 21.1327 55.8277C25.8863 54.7303 30.7421 54.1386 35.6204 54.062L35.5801 38.2404Z" fill="white"/>
<path d="M35.4831 0.200713C29.8572 1.01461 24.9378 6.90106 21.8559 15.5837C26.3464 16.578 30.9276 17.1052 35.5262 17.1577L35.4831 0.200713Z" fill="white"/>
<path d="M35.5333 19.7885C30.6553 19.7366 25.7959 19.1697 21.0368 18.0971C19.3994 23.8075 18.5436 29.7132 18.4919 35.6534L35.5735 35.61L35.5333 19.7885Z" fill="white"/>
<path d="M27.643 1.28495C27.5364 1.31284 27.4299 1.33558 27.3233 1.36347C27.0448 1.43868 26.7701 1.52223 26.4929 1.60321C26.163 1.70039 25.8357 1.7982 25.5046 1.90437C25.2254 1.99563 24.9508 2.09267 24.6762 2.18906C24.3547 2.30355 24.0326 2.41741 23.7143 2.53896C23.4397 2.64498 23.169 2.75485 22.897 2.8673C22.5845 2.99975 22.2714 3.13221 21.9629 3.26401C21.6921 3.38351 21.4246 3.50879 21.1565 3.6347C20.8531 3.7787 20.551 3.92525 20.2514 4.07758C19.9884 4.21248 19.7255 4.35059 19.4632 4.49126C19.1688 4.65 18.877 4.81259 18.5871 4.97903C18.3242 5.12677 18.0657 5.27835 17.8124 5.43313C17.5271 5.60598 17.2449 5.7846 16.9641 5.96129C16.7114 6.12378 16.4607 6.28754 16.2126 6.45644C15.9357 6.64404 15.6626 6.83933 15.3907 7.03462C15.1465 7.21057 14.9035 7.38588 14.6644 7.56311C14.3958 7.76609 14.1395 7.9774 13.869 8.1881C13.6357 8.37559 13.4005 8.56179 13.1723 8.75569C12.9096 8.97344 12.6603 9.19885 12.4072 9.42428C12.1829 9.62523 11.9567 9.82041 11.7376 10.0284C11.4883 10.2622 11.2455 10.5049 11.0021 10.7457C10.7907 10.9556 10.5754 11.163 10.3679 11.3787C10.3301 11.4186 10.2936 11.4624 10.2539 11.5029C13.1259 12.9779 16.1512 14.1333 19.2752 14.9487C20.8857 9.76945 23.7612 5.07313 27.643 1.28495Z" fill="white"/>
<path d="M11.1295 63.2197C11.3748 63.4599 11.6189 63.7027 11.8706 63.9365C12.0894 64.1382 12.3147 64.3297 12.5394 64.5314C12.7949 64.7575 13.0505 64.9842 13.313 65.2019C13.5409 65.3921 13.7732 65.5758 14.0062 65.7602C14.27 65.9727 14.5332 66.184 14.8125 66.3882C15.0499 66.5654 15.2912 66.737 15.5325 66.913C15.8079 67.1094 16.0858 67.3059 16.3663 67.4946C16.6127 67.6597 16.863 67.8209 17.1132 67.9796C17.3982 68.1612 17.6825 68.3397 17.9726 68.5124C18.2266 68.6646 18.4833 68.8136 18.7405 68.9593C19.0351 69.1269 19.3303 69.2892 19.6281 69.4471C19.8911 69.5781 20.1548 69.7206 20.4184 69.8516C20.7213 70.0037 21.0267 70.15 21.3399 70.2944C21.6035 70.4177 21.871 70.539 22.1423 70.6578C22.4542 70.7951 22.7685 70.9189 23.0836 71.0497C23.3549 71.1595 23.6249 71.268 23.8987 71.3713C24.2182 71.4932 24.5422 71.6067 24.8662 71.7176C25.14 71.8126 25.4139 71.9082 25.6915 71.9968C26.0206 72.1026 26.3497 72.1994 26.6878 72.2955C26.9616 72.3751 27.2367 72.4559 27.513 72.5291C27.6197 72.5577 27.7277 72.5799 27.8343 72.6073C23.9315 68.8363 21.0308 64.1521 19.3934 58.9779C16.2736 59.8098 13.2541 60.9806 10.3897 62.4708C10.4283 62.5099 10.465 62.5522 10.5037 62.5925C10.7014 62.8053 10.9145 63.0115 11.1295 63.2197Z" fill="white"/>
<path d="M8.59768 60.4786C11.7531 58.759 15.1003 57.4172 18.5692 56.481C16.8523 50.5671 15.9433 44.4482 15.868 38.2906L0.097168 38.3307C0.404892 46.4497 3.39378 54.2383 8.59768 60.4786Z" fill="white"/>
</g>
<defs>
<clipPath id="clip0_321_93">
<rect width="73.5967" height="73.5967" fill="white" transform="translate(0 0.187012) rotate(-0.145669)"/>
</clipPath>
</defs>
</svg>
