<svg width="56" height="50" viewBox="0 0 56 50" fill="none" xmlns="http://www.w3.org/2000/svg">
<g clip-path="url(#clip0_644_3)">
<path d="M26.2437 15.6559C26.2561 15.8747 26.2795 16.087 26.2795 16.3029C26.2853 23.358 26.2921 30.4126 26.2999 37.4668C26.2999 37.9774 26.1307 38.2918 25.6697 38.5354C24.9454 38.9216 24.3638 39.5296 24.0101 40.2703C23.6563 41.011 23.549 41.8455 23.7038 42.6516C24.0263 44.3293 25.4027 45.6306 27.0746 45.8312C28.8092 46.0406 30.43 45.147 31.1543 43.5765C31.5072 42.829 31.6098 41.9876 31.4469 41.1772C31.284 40.3668 30.8642 39.6304 30.2498 39.0774C30.0293 38.8686 29.7797 38.6929 29.5087 38.5558C29.0054 38.318 28.8522 37.9343 28.858 37.4091C28.8748 35.7088 28.8712 34.0092 28.8712 32.3097C28.8712 27.1856 28.8712 22.0616 28.8712 16.9375V15.6391L28.9864 15.6027C29.0674 15.707 29.1571 15.8062 29.2293 15.917C31.5387 19.4402 33.8469 22.9644 36.1539 26.4895C37.531 28.5917 38.9101 30.6925 40.2912 32.7918C40.6712 33.3666 40.7602 33.9589 40.5896 34.6278C39.5435 38.7199 38.506 42.814 37.4771 46.91C37.445 47.0362 37.4245 47.1653 37.3881 47.3477C37.9512 47.3477 38.4822 47.3346 39.0089 47.3528C39.2992 47.3532 39.5882 47.3925 39.8681 47.4695C40.4517 47.6526 40.7435 48.1326 40.7187 48.7621C40.7154 49.0323 40.6208 49.2934 40.4502 49.5029C40.2796 49.7125 40.0431 49.8581 39.7792 49.9161C39.5434 49.9728 39.3016 50.0002 39.0592 49.9977C33.425 50.0021 27.7906 50.0036 22.156 50.0021C20.1646 50.0021 18.1733 50.0021 16.1826 49.9817C15.8443 49.9709 15.5105 49.8997 15.1972 49.7716C14.5691 49.5251 14.3401 49.1115 14.4349 48.5316C14.5429 47.8751 14.9776 47.4119 15.602 47.3718C16.195 47.3338 16.791 47.355 17.3862 47.3506C17.5029 47.3506 17.6196 47.3506 17.7867 47.3506C17.5226 46.2995 17.2717 45.3031 17.0215 44.3067C16.2128 41.0777 15.4024 37.8514 14.5903 34.6278C14.5028 34.3186 14.4851 33.9939 14.5383 33.6771C14.5915 33.3602 14.7144 33.0591 14.8981 32.7955C18.2603 27.668 21.6135 22.5352 24.9577 17.3971C25.2831 16.8991 25.6091 16.4016 25.9359 15.9046C26.0001 15.8076 26.0745 15.7179 26.1445 15.6253L26.2437 15.6559Z" fill="#1A3BFF"/>
<path d="M12.8949 7.90711C11.6111 7.90711 10.3273 7.90711 9.04345 7.90711C8.81294 7.90711 8.57879 7.94504 8.35194 7.91732C7.89166 7.86115 7.63782 8.09019 7.42701 8.46367C6.74937 9.66651 5.71867 10.3602 4.34295 10.5214C1.71187 10.8336 -0.787907 8.1077 0.234034 5.33438C0.789136 3.82809 1.81035 2.88566 3.4472 2.69674C5.16795 2.49906 6.49625 3.11325 7.35261 4.63777C7.6101 5.09586 7.94419 5.28259 8.46792 5.2804C12.5477 5.26363 16.6281 5.26508 20.7086 5.26071C20.7816 5.26071 20.8545 5.25268 20.9676 5.24612C20.9727 5.12649 20.9829 5.01124 20.9829 4.89526C20.9829 3.79016 20.977 2.68507 20.9894 1.5807C21.0018 0.492377 21.5 0.00292554 22.5884 0.00146667C25.8548 -0.00290995 29.1212 -0.00290995 32.3876 0.00146667C32.4606 0.00146667 32.5335 0.00146667 32.6065 0.00146667C33.67 0.0277264 34.1448 0.49019 34.158 1.54714C34.1718 2.6413 34.1784 3.73545 34.158 4.82523C34.1521 5.16515 34.2696 5.2629 34.5905 5.25852C37.2501 5.25268 39.9096 5.25852 42.5691 5.25852C44.0017 5.25852 45.4351 5.24758 46.867 5.27457C47.3542 5.28405 47.6438 5.12066 47.878 4.68518C48.7044 3.14899 50.3223 2.38818 52.0131 2.69455C53.6398 2.98632 54.9622 4.34599 55.2124 5.97702C55.3358 6.79404 55.2016 7.6292 54.8283 8.36639C54.4551 9.10357 53.8614 9.70614 53.1299 10.0903C51.6958 10.8416 49.2704 10.8701 47.9195 8.57235C47.6278 8.07779 47.3083 7.87866 46.7342 7.90419C45.4132 7.96327 44.0885 7.95744 42.7653 7.97713C42.6377 7.97713 42.51 7.9961 42.2679 8.01506C42.4816 8.1522 42.599 8.23389 42.7186 8.30684C47.1609 11.0561 50.6104 14.6909 52.6813 19.5402C53.9943 22.6213 54.7172 25.8381 54.7522 29.1972C54.7609 30.0725 54.3291 30.6597 53.6325 30.7545C52.8024 30.8669 52.1897 30.3081 52.1269 29.3686C52.0875 28.7748 52.0868 28.1789 52.0336 27.5866C51.4719 21.4141 48.7431 16.3751 44.0221 12.415C41.3283 10.1538 38.1866 8.77951 34.7678 8.01579C34.5927 7.97713 34.4104 7.96619 34.1842 7.93628C34.1762 8.09165 34.1645 8.2193 34.1645 8.34623C34.1645 9.39078 34.1645 10.4353 34.1645 11.4792C34.1671 11.6499 34.1571 11.8205 34.1346 11.9898C34.0274 12.7061 33.6641 13.0876 32.9391 13.1379C32.2016 13.189 31.4591 13.1751 30.7187 13.1758C28.0591 13.1758 25.3999 13.1746 22.7408 13.1722C22.6438 13.1722 22.5461 13.1722 22.449 13.1663C21.4548 13.108 21.0179 12.6813 20.9975 11.679C20.9741 10.5747 20.9894 9.46883 20.988 8.36373V7.90565C20.3585 8.04132 19.7771 8.14636 19.206 8.29225C16.5691 8.96771 14.2071 10.2216 12.0086 11.7935C7.38616 15.0877 4.62743 19.5934 3.51942 25.1233C3.26995 26.367 3.20357 27.6471 3.05623 28.9105C3.02705 29.1636 3.0358 29.4211 2.98328 29.6706C2.8374 30.3811 2.28959 30.8071 1.60611 30.7647C1.28555 30.7495 0.98339 30.6105 0.763156 30.3771C0.542922 30.1437 0.421762 29.8339 0.425146 29.513C0.412112 28.7 0.444013 27.8869 0.520703 27.0774C1.06194 21.425 3.34289 16.5714 7.21329 12.453C8.73562 10.8292 10.4775 9.47758 12.3872 8.3382C12.5717 8.22806 12.7519 8.10551 12.9306 7.98953L12.8949 7.90711Z" fill="#1A3BFF"/>
<path d="M27.6049 40.7748C28.4467 40.7784 28.8895 41.176 28.8873 41.9244C28.8858 42.2705 28.7469 42.6018 28.5012 42.8456C28.2554 43.0893 27.9229 43.2254 27.5768 43.2239C27.2307 43.2225 26.8994 43.0836 26.6557 42.8378C26.412 42.5921 26.2759 42.2596 26.2774 41.9135C26.2832 41.1514 26.7257 40.7719 27.6049 40.7748Z" fill="#1A3BFF"/>
</g>
<defs>
<clipPath id="clip0_644_3">
<rect width="55.2592" height="50" fill="white"/>
</clipPath>
</defs>
</svg>
