<svg width="48" height="48" viewBox="0 0 48 48" fill="none" xmlns="http://www.w3.org/2000/svg">
<g clip-path="url(#clip0_136_316)">
<path d="M34.1174 40.8216C34.104 39.8527 34.111 38.8837 34.111 37.886C33.9673 37.872 33.8439 37.8489 33.7206 37.8489C29.4719 37.8489 25.2235 37.8489 20.9752 37.8489C20.5567 37.8489 20.5388 37.8662 20.5382 38.28C20.5382 39.9642 20.5382 41.6483 20.5382 43.3325V43.7674C19.6284 43.7674 18.7569 43.7719 17.8855 43.7603C17.8371 43.7524 17.7913 43.7331 17.7519 43.7039C17.7125 43.6748 17.6805 43.6367 17.6587 43.5928C17.1967 42.3086 16.7527 41.0186 16.2857 39.7363C16.2198 39.5774 16.0976 39.4485 15.9426 39.3743C14.7485 38.8626 13.5467 38.3746 12.3424 37.8892C12.22 37.8393 12.0835 37.8363 11.959 37.8809C10.7074 38.468 9.46731 39.073 8.21315 39.6608C8.1269 39.7017 7.9512 39.6845 7.88795 39.6224C6.6208 38.3689 5.36067 37.1092 4.10758 35.8433C4.08367 35.8145 4.06229 35.7837 4.04369 35.7512C4.63978 34.5015 5.23268 33.2422 5.84219 31.9912C5.89866 31.8849 5.9291 31.7666 5.93099 31.6462C5.93288 31.5258 5.90616 31.4067 5.85305 31.2986C5.3579 30.1308 4.88448 28.9527 4.38678 27.7855C4.31931 27.647 4.20301 27.5383 4.06029 27.4804C2.76844 27.0136 1.46955 26.5665 0.177055 26.1016C0.130916 26.0779 0.0910812 26.0436 0.0608568 26.0014C0.0306325 25.9593 0.0108892 25.9105 0.00327228 25.8592C-0.00695014 24.111 -0.00695014 22.3629 0.00327228 20.6148C0.012533 20.5596 0.0347302 20.5073 0.0680437 20.4623C0.101357 20.4172 0.144841 20.3808 0.194943 20.3558C1.4868 19.8895 2.78569 19.4431 4.07691 18.9743C4.21693 18.91 4.32823 18.7961 4.38933 18.6546C4.88192 17.4982 5.35151 16.3311 5.84538 15.1747C5.90111 15.0622 5.92909 14.9379 5.92698 14.8122C5.92487 14.6866 5.89272 14.5633 5.83324 14.4527C5.22693 13.2107 4.6385 11.9584 4.04432 10.7132L6.48876 8.29311L7.41516 7.34145L8.0464 6.74091L8.39779 6.88993L9.81616 7.56594C10.5311 7.9081 11.2441 8.25474 11.9641 8.58923C12.0681 8.63169 12.1841 8.63442 12.29 8.5969C13.5224 8.09677 14.7478 7.57873 15.9822 7.08307C16.354 6.93342 16.3451 6.57526 16.4473 6.29898C16.8658 5.16888 17.2415 4.0228 17.6452 2.88694C17.6686 2.83887 17.703 2.79704 17.7456 2.7649C17.7883 2.73277 17.838 2.71124 17.8906 2.70211C18.7525 2.68868 19.6156 2.6938 20.5318 2.6938V3.10887C20.5318 5.29359 20.5318 7.47874 20.5318 9.66432C20.5318 10.112 20.5318 10.112 20.9707 10.112H33.6849C33.8126 10.112 33.9366 10.1011 34.0829 10.0941C34.0912 9.9937 34.104 9.91247 34.104 9.83125C34.1097 8.12619 34.1097 6.42113 34.1225 4.7148C34.1225 4.49223 34.0586 4.39502 33.8465 4.29717C33.0262 3.92494 32.5131 3.30457 32.4633 2.37402C32.4134 1.44346 32.8243 0.739955 33.6197 0.269881C34.3417 -0.157343 35.3888 -0.0665256 36.0424 0.461748C36.7835 1.05973 37.0896 1.99668 36.8359 2.84665C36.6328 3.52906 36.2117 4.01896 35.5581 4.28757C35.3262 4.38286 35.2495 4.5031 35.2514 4.75765C35.2636 6.67632 35.2585 8.59499 35.2578 10.5137C35.2578 11.1008 35.077 11.2811 34.4707 11.2811H21.1177C21.0116 11.2811 20.8909 11.2504 20.8021 11.2907C20.6992 11.3368 20.5465 11.4429 20.5465 11.5254C20.5286 12.5916 20.5344 13.6571 20.5318 14.7232C20.5318 14.9682 20.6851 14.979 20.8749 14.979C22.7597 14.9752 24.6442 14.9752 26.5285 14.979C29.063 14.979 31.5976 14.979 34.1315 14.9854C34.2298 14.9899 34.3279 14.9729 34.419 14.9357C34.5101 14.8985 34.592 14.8419 34.6592 14.7699C37.6505 11.7708 40.6427 8.77342 43.6357 5.77774C43.7635 5.64983 43.7859 5.55325 43.7099 5.36523C43.2224 4.16414 43.6274 2.99887 44.7525 2.4271C46.0795 1.75301 47.671 2.5774 47.924 3.9857C48.0787 4.84718 47.8435 5.57436 47.1931 6.1295C46.498 6.72236 45.693 6.80615 44.8356 6.48573C44.734 6.448 44.5417 6.50619 44.4599 6.58806C42.5304 8.50673 40.6067 10.4318 38.6887 12.3632C37.5268 13.5285 36.3644 14.6936 35.2016 15.8584C35.0016 16.0599 34.7742 16.1354 34.4886 16.1347C29.9735 16.129 25.459 16.1347 20.9439 16.1232C20.6244 16.1232 20.519 16.2063 20.5254 16.5312C20.5437 17.4906 20.5437 18.4499 20.5254 19.4092C20.5197 19.7226 20.6251 19.8013 20.9279 19.8013C26.2947 19.793 31.6615 19.7827 37.0282 19.8102C37.7067 19.8134 38.384 19.7725 39.0619 19.7911C39.7646 19.8102 40.4674 19.7949 41.1702 19.7949C41.8628 19.7949 42.5547 19.7853 43.2467 19.8C43.4945 19.8051 43.6147 19.7361 43.7035 19.486C44.0229 18.5785 45.1761 17.9696 46.1313 18.1698C47.0149 18.3546 47.6346 18.8733 47.88 19.7341C48.1502 20.6807 47.9042 21.5332 47.1133 22.1517C45.8674 23.1257 44.2088 22.5405 43.6869 21.2307C43.6038 21.0228 43.5041 20.941 43.2722 20.941C35.8184 20.9474 28.3645 20.9474 20.9107 20.941C20.6053 20.941 20.5273 21.0491 20.5273 21.3292C20.5341 23.1097 20.5341 24.8898 20.5273 26.6695C20.5273 26.9573 20.6213 27.059 20.9171 27.059C28.3603 27.0526 35.8032 27.0526 43.246 27.059C43.4856 27.059 43.598 26.9771 43.6932 26.7539C44.0421 25.9174 44.6976 25.4383 45.5869 25.3693C46.5108 25.2976 47.2481 25.7102 47.6953 26.5205C48.3674 27.7439 47.8404 29.2066 46.5408 29.708C45.4017 30.148 44.182 29.6249 43.7015 28.4839C43.6096 28.2658 43.5016 28.2031 43.2812 28.2031C35.8162 28.2078 28.3517 28.2078 20.8877 28.2031C20.5995 28.2031 20.5254 28.3016 20.5286 28.5722C20.5405 29.5528 20.5405 30.5335 20.5286 31.5141C20.5286 31.7815 20.6002 31.8979 20.8909 31.8812C21.3464 31.8582 22.2894 31.8755 22.2894 31.8755L23.2912 31.8704C23.2912 31.8704 30.7881 31.8761 34.5359 31.8704C34.6621 31.866 34.7877 31.8886 34.9045 31.9367C35.0213 31.9848 35.1265 32.0572 35.2131 32.1492C38.2926 35.2378 41.373 38.3256 44.4542 41.4125C44.5692 41.5283 44.6612 41.5903 44.8624 41.5098C46.0923 41.0186 47.3407 41.5475 47.8301 42.7889C48.1496 43.6043 47.9969 44.3878 47.4212 45.0459C46.8456 45.704 46.0987 45.9093 45.24 45.7327C43.9667 45.4673 43.0837 44.0059 43.7137 42.6277C43.8057 42.425 43.7565 42.3329 43.6198 42.1966C42.198 40.7832 40.7813 39.3649 39.3698 37.9417L38.3591 36.9344C37.1358 35.7111 35.9151 34.4849 34.6969 33.2556C34.625 33.1748 34.5362 33.1108 34.4369 33.0682C34.3375 33.0257 34.2299 33.0056 34.1219 33.0094C30.7037 33.0192 27.2856 33.0228 23.8675 33.0203C23.7314 33.0203 23.1251 33.0152 23.1251 33.0152C23.1251 33.0152 21.8013 33.0088 21.1445 33.0152C20.5056 33.0228 20.5363 32.8757 20.5363 33.6304C20.5363 34.5041 20.5363 35.3781 20.5363 36.2526C20.5363 36.6798 20.5363 36.6805 20.9541 36.6805C25.4473 36.6805 29.9409 36.682 34.4349 36.6849C34.6196 36.6849 34.8285 36.7105 34.9818 36.7994C35.1096 36.873 35.2438 37.0552 35.247 37.1947C35.2693 38.1841 35.2591 39.1773 35.2591 40.2505V41.3748C35.2591 41.9613 35.2808 42.5484 35.2502 43.1329C35.2336 43.447 35.3339 43.5953 35.6175 43.7233C36.5759 44.1518 37.0493 45.0746 36.8896 46.1139C36.7043 47.324 35.4316 48.2193 34.2778 47.952C32.9706 47.6514 32.1898 46.3966 32.5336 45.1693C32.6163 44.8453 32.7716 44.5445 32.9879 44.2896C33.2041 44.0348 33.4754 43.8325 33.7813 43.6983C33.8868 43.6484 33.9935 43.6005 34.1366 43.5346V41.339L34.1174 40.8216ZM19.5217 34.4861V12.0198C16.7744 12.133 12.7493 13.8342 10.641 17.8398C8.56966 21.7846 8.73513 25.7325 11.1521 29.465C13.0905 32.4588 15.9483 34.0813 19.5217 34.4861Z" fill="#1A3BFF"/>
</g>
<defs>
<clipPath id="clip0_136_316">
<rect width="48" height="48" fill="white"/>
</clipPath>
</defs>
</svg>
