<svg width="60" height="37" viewBox="0 0 60 37" fill="none" xmlns="http://www.w3.org/2000/svg">
<g clip-path="url(#clip0_136_276)">
<path fill-rule="evenodd" clip-rule="evenodd" d="M1.23047 34.2461H7.37793C7.15117 34.1874 6.95042 34.0573 6.8066 33.8759C6.66278 33.6945 6.58387 33.4718 6.58203 33.2421V8.60574C6.58332 8.33014 6.69604 8.06627 6.89552 7.87184C7.09501 7.67741 7.36502 7.56826 7.64648 7.56826H14.3848L13.9502 9.27985H8.48145V32.9457H51.3818V9.27507H46.0107L45.5225 7.56348H52.0947C52.3732 7.56851 52.6384 7.68068 52.8331 7.87573C53.0277 8.07079 53.1361 8.33304 53.1348 8.60574V33.2373C53.1346 33.4674 53.0563 33.6909 52.9122 33.8726C52.7681 34.0544 52.5664 34.1841 52.3389 34.2413H58.7695C60.4102 34.2413 60.4102 37 58.7695 37H1.23047C-0.410156 37 -0.410156 34.2461 1.23047 34.2461ZM28.1787 -2.4619e-05H32.3682C32.5171 -2.4619e-05 32.6599 0.0579019 32.7652 0.161012C32.8705 0.264122 32.9297 0.403969 32.9297 0.549788V1.91237H39.5508C39.6622 1.59697 39.8459 1.31076 40.0879 1.0757C40.2984 0.868405 40.5487 0.703906 40.8244 0.591657C41.1001 0.479408 41.3958 0.421622 41.6943 0.421622C41.9929 0.421622 42.2885 0.479408 42.5642 0.591657C42.8399 0.703906 43.0902 0.868405 43.3008 1.0757C43.5125 1.28185 43.6805 1.52694 43.7951 1.79688C43.9098 2.06682 43.9688 2.35629 43.9688 2.64864C43.9688 2.94099 43.9098 3.23045 43.7951 3.50039C43.6805 3.77034 43.5125 4.01543 43.3008 4.22158C43.0902 4.42887 42.8399 4.59337 42.5642 4.70562C42.2885 4.81787 41.9929 4.87565 41.6943 4.87565C41.3958 4.87565 41.1001 4.81787 40.8244 4.70562C40.5487 4.59337 40.2984 4.42887 40.0879 4.22158C39.8414 3.97511 39.6574 3.67544 39.5508 3.34666H36.1328C37.2368 3.97133 38.235 4.76002 39.0918 5.68456C40.8013 7.53363 41.9304 9.82596 42.3438 12.2871H43.2617C43.3512 12.2852 43.4402 12.3008 43.5234 12.3332C43.6065 12.3656 43.6822 12.4139 43.746 12.4755C43.8097 12.537 43.8602 12.6104 43.8945 12.6914C43.9287 12.7723 43.946 12.8592 43.9453 12.9469V15.9541C43.946 16.0405 43.9291 16.1262 43.8958 16.2062C43.8625 16.2862 43.8133 16.359 43.7511 16.4203C43.6889 16.4817 43.615 16.5303 43.5335 16.5636C43.452 16.5968 43.3646 16.6139 43.2764 16.6139H40.2246C40.1361 16.6139 40.0485 16.5968 39.9667 16.5637C39.885 16.5305 39.8107 16.4819 39.7481 16.4206C39.6856 16.3594 39.6359 16.2866 39.6021 16.2066C39.5682 16.1265 39.5508 16.0407 39.5508 15.9541V12.9469C39.5508 12.7719 39.6218 12.6041 39.7481 12.4803C39.8745 12.3566 40.0459 12.2871 40.2246 12.2871H40.9277C40.5252 10.1746 39.5312 8.21323 38.0566 6.62163C36.6821 5.13504 34.9038 4.06216 32.9297 3.52834V4.69968C32.931 4.77268 32.9174 4.8452 32.8898 4.91302C32.8621 4.98083 32.821 5.04258 32.7687 5.09465C32.7164 5.14672 32.6541 5.18808 32.5853 5.2163C32.5166 5.24453 32.4427 5.25906 32.3682 5.25905H28.1787C28.1048 5.25969 28.0315 5.2459 27.9631 5.2185C27.8946 5.19109 27.8325 5.15062 27.7802 5.09944C27.7279 5.04825 27.6866 4.98739 27.6586 4.9204C27.6306 4.8534 27.6165 4.78162 27.6172 4.70924V3.52834C25.5911 4.07867 23.7745 5.19909 22.3926 6.75072C20.9864 8.32302 20.034 10.2342 19.6338 12.2871H20.3223C20.4108 12.2871 20.4984 12.3042 20.5801 12.3373C20.6619 12.3705 20.7362 12.4191 20.7987 12.4803C20.8613 12.5416 20.9109 12.6143 20.9448 12.6944C20.9787 12.7744 20.9961 12.8602 20.9961 12.9469V15.9541C20.9961 16.0407 20.9787 16.1265 20.9448 16.2066C20.9109 16.2866 20.8613 16.3594 20.7987 16.4206C20.7362 16.4819 20.6619 16.5305 20.5801 16.5637C20.4984 16.5968 20.4108 16.6139 20.3223 16.6139H17.2852C17.1959 16.6151 17.1072 16.599 17.0243 16.5664C16.9414 16.5338 16.866 16.4854 16.8024 16.424C16.7388 16.3627 16.6882 16.2895 16.6538 16.2088C16.6193 16.1281 16.6016 16.0416 16.6016 15.9541V12.9469C16.6016 12.8594 16.6193 12.7728 16.6538 12.6922C16.6882 12.6115 16.7388 12.5383 16.8024 12.4769C16.866 12.4155 16.9414 12.3671 17.0243 12.3345C17.1072 12.302 17.1959 12.2858 17.2852 12.2871H18.2178C18.6346 9.89796 19.7197 7.66875 21.3525 5.84711C22.227 4.85579 23.2612 4.01116 24.4141 3.34666H20.4639C20.3524 3.66064 20.1686 3.94529 19.9268 4.17855C19.7165 4.38622 19.4662 4.55103 19.1905 4.66345C18.9147 4.77588 18.619 4.83369 18.3203 4.83354C17.7161 4.83143 17.1371 4.59607 16.709 4.17855C16.4973 3.9724 16.3293 3.72731 16.2146 3.45737C16.1 3.18742 16.041 2.89796 16.041 2.60561C16.041 2.31326 16.1 2.02379 16.2146 1.75385C16.3293 1.48391 16.4973 1.23882 16.709 1.03267C16.9195 0.825376 17.1698 0.660877 17.4455 0.548628C17.7212 0.436379 18.0169 0.378593 18.3154 0.378593C18.614 0.378593 18.9096 0.436379 19.1853 0.548628C19.461 0.660877 19.7113 0.825376 19.9219 1.03267C20.1714 1.27955 20.3572 1.58112 20.4639 1.91237H27.6172V0.549788C27.6165 0.477408 27.6306 0.405626 27.6586 0.338632C27.6866 0.271637 27.7279 0.210773 27.7802 0.15959C27.8325 0.108408 27.8946 0.0679331 27.9631 0.0405283C28.0315 0.0131235 28.1048 -0.000662365 28.1787 -2.4619e-05ZM36.4551 19.4777L34.2822 24.9184L26.2695 24.818L24.0527 19.4777C25.957 16.131 27.8955 12.0719 28.8916 8.48143L29.9463 8.59617L29.9072 18.2155C29.6751 18.298 29.4808 18.459 29.3593 18.6694C29.2377 18.8798 29.197 19.1259 29.2445 19.3631C29.292 19.6003 29.4245 19.8132 29.6181 19.9632C29.8117 20.1132 30.0537 20.1904 30.3004 20.1811C30.5472 20.1717 30.7823 20.0763 30.9635 19.9121C31.1447 19.7479 31.26 19.5257 31.2886 19.2855C31.3171 19.0454 31.2571 18.8032 31.1193 18.6026C30.9815 18.402 30.775 18.2562 30.5371 18.1916L30.5664 8.67267L31.7773 8.60574C32.6611 12.1963 34.5801 16.2553 36.4551 19.4633V19.4777ZM34.0918 27.2516H26.3086V25.7312H34.0918V27.2516ZM28.2568 34.7003H31.7383C32.5244 34.7003 32.5244 36.1968 31.7383 36.1968H28.2568C27.4707 36.1968 27.4658 34.7003 28.2568 34.7003Z" fill="#1A3BFF"/>
</g>
<defs>
<clipPath id="clip0_136_276">
<rect width="60" height="37" fill="white"/>
</clipPath>
</defs>
</svg>
