<svg width="43" height="40" viewBox="0 0 43 40" fill="none" xmlns="http://www.w3.org/2000/svg">
<g clip-path="url(#clip0_111_88)">
<path d="M12.3197 23.822C12.3197 24.0991 12.0973 24.3207 11.8269 24.3207C11.5532 24.3207 11.3341 24.0956 11.3341 23.822V11.6062H0.985577V36.2248H2.69323C2.967 36.2248 3.18601 36.4499 3.18601 36.7235C3.18601 37.0006 2.96357 37.2223 2.69323 37.2223H0.492788C0.219017 37.2223 0 36.9971 0 36.7235V11.3395C0 11.1386 0.0821314 10.9551 0.212173 10.82C0.342214 10.6884 0.523588 10.6052 0.725494 10.6052H11.3341V0.876266C11.3341 0.637285 11.43 0.41562 11.5874 0.259763V0.256299C11.7448 0.0969781 11.9604 0 12.1999 0H29.7726C30.0122 0 30.2278 0.0969781 30.3852 0.256299L30.4228 0.297861C30.5563 0.453719 30.6419 0.654602 30.6419 0.876266V10.6052H41.3258C41.5243 10.6052 41.7056 10.6884 41.8357 10.82L41.8391 10.8234C41.9692 10.9551 42.0513 11.1386 42.0513 11.3395V36.7235C42.0513 37.0006 41.8288 37.2223 41.5585 37.2223H38.4307C38.1569 37.2223 37.9379 36.9971 37.9379 36.7235C37.9379 36.4464 38.1603 36.2248 38.4307 36.2248H41.0657V11.6062H30.6384V23.6765C30.6384 23.9536 30.416 24.1753 30.1456 24.1753C29.8719 24.1753 29.6529 23.9501 29.6529 23.6765V0.997489H12.3197V23.822ZM33.2461 23.7389H38.6873C38.7318 23.7389 38.7694 23.7666 38.7694 23.7977V25.4256C38.7694 25.4602 38.7318 25.4879 38.6873 25.4879H33.2461C33.2016 25.4879 33.164 25.4602 33.164 25.4256V23.7977C33.164 23.7666 33.2016 23.7389 33.2461 23.7389ZM3.3229 23.7389H8.76411C8.80859 23.7389 8.84624 23.7666 8.84624 23.7977V25.4256C8.84624 25.4602 8.80859 25.4879 8.76411 25.4879H3.3229C3.27841 25.4879 3.24077 25.4602 3.24077 25.4256V23.7977C3.24077 23.7666 3.27841 23.7389 3.3229 23.7389ZM14.5304 2.93359H27.4456C27.6612 2.93359 27.8391 3.11369 27.8391 3.33189V7.59546C27.8391 7.81366 27.6612 7.99377 27.4456 7.99377H14.5304C14.3148 7.99377 14.1369 7.81366 14.1369 7.59546V3.33189C14.1334 3.11369 14.3114 2.93359 14.5304 2.93359ZM33.3317 36.3737C32.9723 35.6429 32.5172 35.0229 31.9833 34.4411C32.9826 34.8325 34.0058 35.2204 34.7621 35.7018C36.1378 36.5746 36.2405 37.631 36.3534 39.148H29.5331C29.5331 39.1376 29.5331 39.1237 29.5331 39.1133L29.4065 38.0293L29.8958 38.4587L32.2913 36.3495L33.3317 36.3737ZM8.92495 34.6627L9.79075 37.2396L10.2254 35.7087L10.0132 35.4732C9.91737 35.3312 9.89683 35.2065 9.94817 35.0991C10.0645 34.8671 10.3041 34.9121 10.5265 34.9121C10.7592 34.9121 11.0501 34.8671 11.122 35.165C11.1459 35.2654 11.1151 35.3693 11.0467 35.4767L10.8345 35.7122L11.2691 37.2431L12.0528 34.6662C12.1657 34.7701 12.3266 34.8567 12.5114 34.9329C12.4463 35.0714 12.3882 35.2134 12.3368 35.3658C12.2034 35.7572 12.1178 36.1901 12.0802 36.6716H12.0836C12.0836 36.682 12.0836 36.6958 12.0802 36.7062L11.8919 39.1514H5.626C5.24957 39.1237 5.05793 38.9263 5.02713 38.5869L5.15717 37.2361C5.19481 36.7547 5.32828 36.3772 5.54387 36.0862C5.6876 35.8958 5.86555 35.7537 6.06061 35.6429C6.68344 35.2792 8.36029 35.1788 8.92495 34.6627ZM8.5006 31.0087C8.41505 31.0157 8.35345 31.0365 8.30554 31.0642C8.27816 31.0815 8.26105 31.1057 8.24736 31.1334C8.23367 31.1646 8.22683 31.2062 8.22683 31.2512C8.23025 31.3932 8.30554 31.5837 8.45269 31.8019L8.45611 31.8054L8.93863 32.5846C9.13027 32.8964 9.3356 33.2115 9.582 33.4436C9.81813 33.6618 10.109 33.8107 10.4889 33.8142C10.9029 33.8142 11.2041 33.6618 11.4505 33.4297C11.7071 33.1873 11.9125 32.8479 12.1144 32.5119L12.6585 31.6045C12.768 31.3516 12.8022 31.1992 12.768 31.1265C12.7475 31.0815 12.6551 31.0711 12.5079 31.0815C12.4121 31.1023 12.3163 31.0849 12.2102 31.0295L12.4806 30.2052C11.4847 30.1914 10.8003 30.0182 9.99608 29.4952C9.73257 29.3255 9.65044 29.1281 9.38694 29.1454C9.18503 29.1835 9.01734 29.277 8.88388 29.4225C8.75384 29.561 8.65802 29.7515 8.59642 29.9974L8.75726 30.988C8.67171 31.0399 8.58615 31.0434 8.5006 31.0087ZM12.8159 30.7628C12.9323 30.7975 13.0178 30.8667 13.0726 30.9706C13.1547 31.1404 13.1239 31.3897 12.9699 31.743C12.9665 31.7499 12.9631 31.7569 12.9597 31.7638L12.4087 32.6816C12.1965 33.0384 11.9775 33.3951 11.6866 33.6722C11.382 33.9597 11.009 34.1501 10.4957 34.1501C10.0166 34.1501 9.65728 33.9631 9.36298 33.6895C9.07894 33.4263 8.86335 33.0903 8.66144 32.7613L8.17892 31.982C7.99755 31.7084 7.90515 31.459 7.8983 31.2547C7.89488 31.1542 7.91199 31.0642 7.94964 30.9845C7.98728 30.9014 8.04888 30.8286 8.12759 30.7767C8.16523 30.749 8.20972 30.7282 8.26105 30.7109C8.23025 30.2953 8.21999 29.7792 8.24052 29.3428C8.25078 29.2354 8.27132 29.1315 8.29869 29.0242C8.42189 28.5774 8.73331 28.2172 9.11659 27.9713C9.25347 27.8847 9.40062 27.8119 9.55804 27.7531C10.4889 27.4136 11.7208 27.5972 12.3813 28.3211C12.6517 28.6155 12.8193 29.0068 12.8536 29.5229L12.8159 30.7628ZM17.6856 27.3132C17.5761 27.327 17.494 27.3547 17.4324 27.3928C17.3913 27.4206 17.3639 27.4552 17.3468 27.4933C17.3263 27.5418 17.316 27.6007 17.316 27.6665C17.3229 27.8777 17.4358 28.1617 17.6514 28.4873L17.6548 28.4942L18.3769 29.658C18.6644 30.1221 18.9655 30.5931 19.3385 30.9395C19.6944 31.2685 20.1222 31.4902 20.6903 31.4902C21.3063 31.4902 21.758 31.2616 22.1207 30.9152C22.504 30.5516 22.812 30.0494 23.1097 29.5471L23.9208 28.1964C24.085 27.8189 24.1329 27.5903 24.0816 27.4864C24.0474 27.4171 23.9071 27.3998 23.6675 27.424C23.6504 27.424 23.6299 27.424 23.6128 27.424C23.5135 27.424 23.4075 27.3998 23.2877 27.3444L23.6538 26.1114C22.1652 26.094 21.1488 25.8308 19.9442 25.0515C19.5473 24.7952 19.4309 24.5043 19.034 24.532C18.7362 24.5909 18.483 24.726 18.2845 24.9442C18.0929 25.152 17.9491 25.436 17.8533 25.8031L18.11 27.2959C17.9628 27.3651 17.8191 27.3721 17.6856 27.3132ZM18.3564 32.7613L19.6499 36.6092L20.3001 34.3268L19.9819 33.9735C19.8382 33.7622 19.8074 33.5752 19.8861 33.4159C20.0572 33.0695 20.4165 33.1353 20.7484 33.1353C21.0975 33.1353 21.5287 33.0695 21.6382 33.5094C21.6758 33.6583 21.6279 33.8107 21.5253 33.9735L21.207 34.3268L21.8572 36.6092L23.0276 32.7613C23.8729 33.5302 26.0459 33.686 26.9767 34.209C27.23 34.351 27.4593 34.5277 27.6543 34.7528C27.6578 34.7285 27.6646 34.7008 27.6783 34.6801C27.7809 34.4757 27.9931 34.5138 28.1916 34.5138C28.4004 34.5138 28.657 34.4757 28.722 34.7389C28.7426 34.8255 28.7152 34.919 28.657 35.016L28.4688 35.2273L28.8555 36.585L28.3593 36.9833L28.5236 39.1618C28.4756 39.671 28.1916 39.9619 27.6304 40.0069H13.757C13.1958 39.9619 12.9117 39.671 12.8638 39.1618L13.0589 36.5954C13.1136 35.8784 13.3121 35.3104 13.6372 34.8775C13.8494 34.5935 14.1163 34.3822 14.4106 34.216C15.338 33.686 17.5111 33.5302 18.3564 32.7613ZM24.1603 26.9426C24.3349 26.9945 24.4649 27.095 24.5436 27.2543C24.6668 27.5071 24.6189 27.8777 24.3896 28.4077C24.3862 28.418 24.3793 28.4284 24.3759 28.4388L23.5512 29.8104C23.2329 30.3438 22.9078 30.8737 22.4732 31.2858C22.0181 31.7153 21.4603 32.0028 20.6971 31.9993C19.9819 31.9993 19.4446 31.7222 19.0032 31.3135C18.5788 30.9222 18.2605 30.42 17.9526 29.9281L17.2305 28.7644C16.9601 28.3592 16.8232 27.9851 16.813 27.6769C16.8096 27.5279 16.8335 27.3928 16.8883 27.2751C16.9464 27.1504 17.0354 27.043 17.1552 26.9634C17.2134 26.9218 17.2818 26.8906 17.3537 26.8629C17.3092 26.2395 17.2955 25.4706 17.3229 24.8229C17.34 24.6636 17.3674 24.5078 17.4119 24.3484C17.5967 23.68 18.0586 23.1431 18.6336 22.776C18.8355 22.6444 19.0579 22.537 19.2906 22.4539C20.6766 21.9448 22.5177 22.2218 23.5033 23.3025C23.9037 23.7423 24.1569 24.3242 24.2117 25.0931L24.1603 26.9426ZM26.6688 33.2947L27.3053 33.2773L27.8357 33.2635C27.2197 31.3412 27.425 29.5749 28.9103 28.0717C29.1635 28.896 29.7281 29.5783 30.6898 30.0805C31.1483 30.4269 31.5932 30.8425 32.0244 31.3239C32.0997 31.0053 31.8088 30.6208 31.4563 30.2225C31.7814 30.3853 32.0826 30.6139 32.2948 31.0538C32.5411 31.5629 32.5377 31.9924 32.4556 32.5465C32.4179 32.8028 32.3564 33.0453 32.2674 33.2635H33.1469C34.0743 31.2547 33.4857 28.2726 31.5898 27.0084C31.008 26.6205 30.5905 26.6343 29.9061 26.6343C29.1259 26.6343 28.7255 26.6586 28.0547 27.1088C27.0691 27.7704 26.46 28.9133 26.2068 30.4996C26.1554 31.2928 26.1212 32.6608 26.6688 33.2947ZM33.2461 20.1818H38.6873C38.7318 20.1818 38.7694 20.2095 38.7694 20.2442V21.872C38.7694 21.9067 38.7318 21.9344 38.6873 21.9344H33.2461C33.2016 21.9344 33.164 21.9067 33.164 21.872V20.2442C33.164 20.2095 33.2016 20.1818 33.2461 20.1818ZM33.2461 16.6214H38.6873C38.7318 16.6214 38.7694 16.6491 38.7694 16.6837V18.3115C38.7694 18.3462 38.7318 18.3739 38.6873 18.3739H33.2461C33.2016 18.3739 33.164 18.3462 33.164 18.3115V16.6837C33.164 16.6491 33.2016 16.6214 33.2461 16.6214ZM3.3229 20.1818H8.76411C8.80859 20.1818 8.84624 20.2095 8.84624 20.2442V21.872C8.84624 21.9067 8.80859 21.9344 8.76411 21.9344H3.3229C3.27841 21.9344 3.24077 21.9067 3.24077 21.872V20.2442C3.24077 20.2095 3.27841 20.1818 3.3229 20.1818ZM3.3229 16.6214H8.76411C8.80859 16.6214 8.84624 16.6491 8.84624 16.6837V18.3115C8.84624 18.3462 8.80859 18.3739 8.76411 18.3739H3.3229C3.27841 18.3739 3.24077 18.3462 3.24077 18.3115V16.6837C3.24077 16.6491 3.27841 16.6214 3.3229 16.6214ZM24.5265 16.9989H27.4319C27.4764 16.9989 27.514 17.037 27.514 17.082V20.0225C27.514 20.0675 27.4764 20.1056 27.4319 20.1056H24.5265C24.482 20.1056 24.4444 20.0675 24.4444 20.0225V17.082C24.4444 17.037 24.482 16.9989 24.5265 16.9989ZM19.5336 16.9989H22.439C22.4835 16.9989 22.5211 17.037 22.5211 17.082V20.0225C22.5211 20.0675 22.4835 20.1056 22.439 20.1056H19.5336C19.4891 20.1056 19.4515 20.0675 19.4515 20.0225V17.082C19.4515 17.037 19.4891 16.9989 19.5336 16.9989ZM14.5407 16.9989H17.4461C17.4906 16.9989 17.5282 17.037 17.5282 17.082V20.0225C17.5282 20.0675 17.4906 20.1056 17.4461 20.1056H14.5407C14.4962 20.1056 14.4585 20.0675 14.4585 20.0225V17.082C14.4585 17.037 14.4962 16.9989 14.5407 16.9989ZM24.5265 11.2945H27.4319C27.4764 11.2945 27.514 11.3326 27.514 11.3776V14.3181C27.514 14.3631 27.4764 14.4012 27.4319 14.4012H24.5265C24.482 14.4012 24.4444 14.3631 24.4444 14.3181V11.3776C24.4444 11.3291 24.482 11.2945 24.5265 11.2945ZM19.5336 11.2945H22.439C22.4835 11.2945 22.5211 11.3326 22.5211 11.3776V14.3181C22.5211 14.3631 22.4835 14.4012 22.439 14.4012H19.5336C19.4891 14.4012 19.4515 14.3631 19.4515 14.3181V11.3776C19.4515 11.3291 19.4891 11.2945 19.5336 11.2945ZM14.5407 11.2945H17.4461C17.4906 11.2945 17.5282 11.3326 17.5282 11.3776V14.3181C17.5282 14.3631 17.4906 14.4012 17.4461 14.4012H14.5407C14.4962 14.4012 14.4585 14.3631 14.4585 14.3181V11.3776C14.4585 11.3291 14.4962 11.2945 14.5407 11.2945Z" fill="#1A3BFF"/>
</g>
<defs>
<clipPath id="clip0_111_88">
<rect width="42.0513" height="40" fill="white"/>
</clipPath>
</defs>
</svg>
