<svg width="53" height="50" viewBox="0 0 53 50" fill="none" xmlns="http://www.w3.org/2000/svg">
<g clip-path="url(#clip0_648_12)">
<path d="M0 49.3659V48.6165C0.38224 48.1308 0.873906 47.9599 1.49898 47.9914C2.31143 48.0334 3.12687 48.0019 4.00227 48.0019V44.2095C4.00227 36.9614 4.00227 29.7163 4.00227 22.4742C4.00227 22.0635 3.93632 21.8327 3.48513 21.6483C1.11974 20.6755 0.0374745 17.1513 1.38656 14.9568C2.15553 13.7067 2.941 12.4655 3.677 11.1959C3.86578 10.8566 3.9687 10.4763 3.9768 10.0881C4.00528 8.17095 3.9768 6.25376 3.99329 4.33506C3.99329 3.31425 4.31557 3.01596 5.34237 3.00846C6.11435 3.00846 6.88781 3.03994 7.65679 3.00097C7.86814 2.99047 8.17993 2.82259 8.25638 2.64571C9.04634 0.795966 10.4554 -0.0134833 12.4325 0.00450443C15.0468 0.0299871 17.6625 0.0149961 20.2767 0.0149961C26.7723 0.0149961 33.2709 0.0149961 39.7725 0.0149961C41.6642 0.0149961 42.9878 0.861922 43.7762 2.59025C43.8478 2.70081 43.9433 2.7939 44.0556 2.86266C44.1679 2.93141 44.2943 2.97406 44.4253 2.98748C45.1943 3.03544 45.9677 2.98748 46.7397 3.00097C47.6766 3.01596 48.0049 3.33524 48.0198 4.25711C48.0318 5.05307 48.0843 5.85802 47.9989 6.64649C47.6991 9.37763 48.2297 11.8629 50.0435 13.9915C51.1392 15.2806 51.1722 16.7901 50.9968 18.358C50.8304 19.848 50.0974 20.9663 48.7289 21.5269C48.0558 21.8042 48.0109 22.1819 48.0124 22.759C48.0214 29.1837 48.0214 35.6083 48.0124 42.0329C48.0124 43.9936 48.0124 45.9543 48.0124 47.9914C48.9013 47.9914 49.7152 47.9914 50.5291 47.9914C51.4975 47.9914 52.0011 48.3287 52.0116 48.9687C52.0221 49.6373 51.5455 49.976 50.5696 49.9775C48.6529 49.9775 46.7357 49.9775 44.818 49.9775C30.3499 49.9775 15.8827 49.9805 1.41653 49.9865C0.813939 50 0.355258 49.8441 0 49.3659ZM38.0396 20.6755C35.8481 22.5417 33.7795 22.2209 31.9898 20.653C31.1653 21.4594 30.191 21.9616 29.0053 21.9466C28.4488 21.9424 27.8991 21.824 27.3902 21.599C26.8812 21.3739 26.4238 21.0468 26.0463 20.638C23.7049 22.3843 22.5597 22.3843 19.9319 20.6515C19.5603 21.0713 19.1019 21.4052 18.5883 21.6301C18.0748 21.855 17.5185 21.9656 16.958 21.9541C15.8038 21.9541 14.8024 21.4669 14.0125 20.629C12.2916 22.2104 10.1151 22.5372 8.01655 20.6934C7.55336 20.9932 7.12915 21.3815 6.63149 21.5628C6.07537 21.7637 5.96894 22.059 5.97043 22.6031C5.99142 30.7976 5.99792 38.992 5.98992 47.1864V47.9629H29.9122V47.0395C29.9122 40.2152 29.9122 33.3908 29.9122 26.5664C29.9122 25.3283 30.2255 25.009 31.4471 25.0075C35.1076 25.0075 38.7691 25.0075 42.4316 25.0075C43.7507 25.0075 44.058 25.3178 44.0565 26.6294C44.0565 32.7542 44.053 38.8796 44.046 45.0054V47.9569H46.0322V47.0875V37.0743C46.0322 32.1936 46.0292 27.3119 46.0232 22.4293C46.0232 22.1999 45.9228 21.8716 45.7549 21.7592C45.1883 21.3755 44.5707 21.0697 43.9561 20.7234C41.7841 22.4053 40.2821 22.4038 38.0396 20.6755ZM31.9748 27.0656V47.9569H41.967V27.0686L31.9748 27.0656ZM25.9968 1.99065H16.3674C14.9238 1.99065 13.4803 1.96967 12.0383 2.00115C11.535 2.00816 11.052 2.20088 10.6821 2.54229C10.3122 2.8837 10.0814 3.34973 10.0342 3.85089C9.94423 4.83872 10.6892 5.78307 11.734 5.98244C11.9823 6.01711 12.2332 6.02815 12.4835 6.01542H24.7272C29.7298 6.01542 34.7314 6.01542 39.732 6.01542C40.5879 6.01542 41.3014 5.76659 41.7511 4.99611C42.5681 3.59756 41.5472 1.99815 39.8144 1.99815C35.2051 1.98616 30.6017 1.99365 25.9968 1.99365V1.99065ZM6.00791 9.91726H45.9842V4.99611C45.3846 4.99611 44.845 4.96313 44.3069 5.0141C44.1984 5.03622 44.0962 5.08211 44.0075 5.14846C43.9189 5.21481 43.846 5.29998 43.7942 5.39784C42.9998 7.19661 41.6267 8.01206 39.672 8.00906C30.5612 7.99407 21.4504 7.99407 12.3396 8.00906C10.4134 8.00906 9.06584 7.18162 8.28337 5.41882C8.20842 5.24794 8.01056 5.02759 7.85616 5.0156C7.25657 4.96913 6.63598 4.99761 6.00791 4.99761V9.91726ZM27.0911 14.9164H30.9794C30.9015 13.912 30.8295 12.9677 30.7576 12.0338H27.0911V14.9164ZM25.0195 14.9314V12.0413H21.332C21.2615 13.0037 21.1926 13.9555 21.1206 14.9314H25.0195ZM16.0676 12.0188L15.3286 14.9239H19.1015C19.169 13.936 19.2334 12.9887 19.3009 12.0188H16.0676ZM36.788 14.9404C36.5152 13.9076 36.2649 12.9617 36.0205 12.0338H32.7887C32.8637 13.0262 32.9386 13.9735 33.0091 14.9404H36.788ZM9.01337 16.988C8.89945 18.1242 8.97439 19.1285 10.0522 19.7011C10.7597 20.0789 11.4942 20.0549 12.1507 19.5512C13.0171 18.8992 13.0681 17.9878 12.9422 16.982L9.01337 16.988ZM39.0619 16.976C38.945 18.1092 39.023 19.1045 40.0798 19.6921C40.8128 20.0998 41.5607 20.0309 42.2413 19.5242C42.9668 18.9846 43.2066 18.0492 42.9038 16.976H39.0619ZM3.02793 16.976C2.91251 18.1137 2.95899 19.124 4.04725 19.7041C4.37382 19.8942 4.75038 19.9809 5.1272 19.9525C5.50403 19.9241 5.86338 19.7821 6.15781 19.5452C7.02871 18.8932 7.0572 17.9728 6.92979 16.976H3.02793ZM18.9441 16.9895H15.0288C14.8984 18.0103 14.9583 18.9381 15.8382 19.5662C16.1352 19.7948 16.494 19.9291 16.8682 19.9515C17.2423 19.974 17.6146 19.8836 17.9368 19.6921C19.0161 19.106 19.073 18.1047 18.9426 16.994L18.9441 16.9895ZM36.9993 16.9895H33.0765C32.9536 18.0477 32.9686 19.0206 33.9759 19.6427C34.2869 19.8509 34.6533 19.9608 35.0275 19.9581C35.4017 19.9554 35.7665 19.8403 36.0745 19.6277C37.0488 19.0131 37.0998 18.0642 36.9993 16.9865V16.9895ZM45.1103 16.9895C44.887 18.2381 45.1673 19.1045 45.9333 19.6157C46.2648 19.8371 46.655 19.9542 47.0536 19.9518C47.4522 19.9494 47.841 19.8276 48.1697 19.6022C49.0916 18.9456 49.1021 18.0073 48.9747 16.9895H45.1103ZM21.0622 16.997C20.9603 18.0822 20.9603 19.0685 21.999 19.6711C22.3159 19.8734 22.6863 19.9758 23.062 19.9651C23.4378 19.9544 23.8017 19.8311 24.1066 19.6112C25.054 18.9771 25.0675 18.0282 24.9266 16.997H21.0622ZM30.942 17.0059H27.0671C26.9532 18.0792 26.9682 19.061 28.0025 19.6666C28.3295 19.8778 28.714 19.9825 29.103 19.9661C29.492 19.9497 29.8663 19.8131 30.1745 19.5752C31.0754 18.9246 31.0619 17.9908 30.942 16.997V17.0059ZM8.75705 12.0083C7.71826 12.0083 6.82337 11.9993 5.92848 12.0083C5.77858 12.0083 5.54774 12.0638 5.47878 12.1732C4.91067 13.0576 4.37252 13.96 3.75644 14.9718C4.95562 14.9718 5.96445 14.9868 6.97776 14.9583C7.07915 14.9483 7.17712 14.9162 7.26488 14.8645C7.35263 14.8127 7.42805 14.7424 7.4859 14.6585C7.91011 13.8176 8.29986 12.9632 8.74955 11.9993L8.75705 12.0083ZM9.57999 14.9778C10.7942 14.9778 11.8509 14.9898 12.9077 14.9643C12.9931 14.9473 13.0731 14.9102 13.1412 14.8559C13.2092 14.8017 13.2633 14.732 13.299 14.6525C13.5493 13.8011 13.7607 12.9377 14.0035 12.0083C13.0666 12.0083 12.2047 11.9904 11.3383 12.0233C11.2385 12.0378 11.1431 12.074 11.0589 12.1294C10.9747 12.1849 10.9038 12.2582 10.8511 12.3441C10.4284 13.1446 10.0492 13.975 9.57549 14.9688L9.57999 14.9778ZM42.5051 14.9418C42.0554 13.9825 41.6387 13.0906 41.195 12.2137C41.138 12.1013 40.9147 12.0203 40.7663 12.0173C39.8999 11.9979 39.035 12.0083 38.1011 12.0083C38.3709 13.0291 38.6227 13.9825 38.8776 14.9418H42.5051ZM43.349 12.0083C43.7987 12.9662 44.2064 13.8326 44.6277 14.6915C44.6831 14.8054 44.8255 14.9493 44.9274 14.9523C45.9962 14.9703 47.065 14.9628 48.2552 14.9628C47.6556 13.978 47.1519 13.1281 46.6213 12.2976C46.5683 12.2221 46.5002 12.1584 46.4212 12.1107C46.3422 12.0629 46.2541 12.0321 46.1626 12.0203C45.2542 11.9814 44.3474 11.9993 43.3445 11.9993L43.349 12.0083Z" fill="#1A3BFF"/>
<path d="M18.0132 25.006H26.451C27.6787 25.006 27.9665 25.2833 27.968 26.472C27.968 31.5475 27.968 36.6241 27.968 41.7016C27.968 42.6835 27.6172 43.0507 26.6189 43.0507C20.8708 43.0587 15.1217 43.0587 9.37162 43.0507C8.30584 43.0507 7.99106 42.7374 7.98506 41.5757C7.96408 37.8433 7.98506 34.1108 7.98506 30.3783C7.98506 29.0607 7.96707 27.7416 7.97756 26.4225C7.98655 25.3388 8.33432 25.006 9.42708 25.0045C12.2881 25.0035 15.1502 25.004 18.0132 25.006ZM10.0536 27.0566V40.9776H25.9264V27.0566H10.0536Z" fill="#1A3BFF"/>
<path d="M35.0057 36.9859C35.013 37.1163 34.9938 37.2468 34.9492 37.3696C34.9047 37.4924 34.8357 37.6049 34.7465 37.7003C34.6572 37.7957 34.5496 37.8721 34.43 37.9247C34.3105 37.9774 34.1815 38.0052 34.0509 38.0067C33.5067 38.0231 33.0121 37.5735 33.045 37.0368C33.078 36.5002 33.3823 36.1075 33.9714 36.055C34.1016 36.0428 34.2329 36.0576 34.357 36.0987C34.4812 36.1398 34.5954 36.2062 34.6926 36.2936C34.7898 36.3811 34.8679 36.4878 34.9217 36.6069C34.9756 36.7261 35.0042 36.8551 35.0057 36.9859Z" fill="#1A3BFF"/>
</g>
<defs>
<clipPath id="clip0_648_12">
<rect width="52.0056" height="50" fill="white"/>
</clipPath>
</defs>
</svg>
