<svg width="44" height="40" viewBox="0 0 44 40" fill="none" xmlns="http://www.w3.org/2000/svg">
<g clip-path="url(#clip0_111_93)">
<path d="M24.3009 31.1139C24.422 31.1139 24.5404 31.1503 24.6413 31.2184C24.7421 31.2865 24.8209 31.3834 24.8677 31.4969C24.9145 31.6103 24.9273 31.7353 24.9044 31.8561C24.8815 31.9769 24.824 32.0881 24.7391 32.1758C24.6542 32.2635 24.5457 32.3238 24.4271 32.3491C24.3086 32.3744 24.1854 32.3635 24.0729 32.3179C23.9604 32.2723 23.8637 32.194 23.7949 32.0927C23.7262 31.9915 23.6883 31.8719 23.6863 31.7489C23.6863 31.5833 23.751 31.4245 23.8663 31.3074C23.9816 31.1904 24.1379 31.1246 24.3009 31.1246V31.1139ZM40.2357 18.7782V37.6848C40.2348 38.3005 39.9936 38.8906 39.565 39.3259C39.1365 39.7612 38.5554 40.0062 37.9493 40.0071H5.2086C4.90818 40.0066 4.61082 39.9458 4.33358 39.8282C4.05634 39.7107 3.80467 39.5387 3.59299 39.3222C3.38029 39.107 3.21154 38.8513 3.09642 38.5697C2.9813 38.2881 2.92208 37.9862 2.92216 37.6813V18.7996C3.5442 18.9132 4.1769 18.9551 4.80821 18.9245V37.6777C4.80858 37.7309 4.81932 37.7835 4.83982 37.8325C4.86031 37.8815 4.89016 37.9259 4.92762 37.9631C4.96472 38 5.00865 38.0291 5.05687 38.0487C5.1051 38.0683 5.15666 38.078 5.2086 38.0772H21.0135V23.6797C21.0163 22.7593 21.3777 21.8776 22.0187 21.2272C22.6598 20.5767 23.5283 20.2106 24.4344 20.2087H30.0785C30.984 20.2115 31.8516 20.5781 32.4918 21.2284C33.1321 21.8787 33.4931 22.76 33.4958 23.6797V38.0808H37.9493C38.0546 38.0808 38.1555 38.0383 38.2299 37.9627C38.3044 37.8871 38.3462 37.7846 38.3462 37.6777V18.8353C38.976 18.8929 39.6104 18.8738 40.2357 18.7782ZM22.594 38.0808H31.9083V23.6797C31.9047 23.1869 31.7103 22.7155 31.3673 22.3671C31.0243 22.0187 30.5601 21.8213 30.075 21.8175H24.4273C23.9422 21.8213 23.4781 22.0187 23.135 22.3671C22.792 22.7155 22.5977 23.1869 22.594 23.6797V38.0808ZM10.5366 22.8627H16.1912C16.4021 22.8627 16.6043 22.9476 16.7538 23.0987C16.9032 23.2498 16.9876 23.4548 16.9885 23.669V32.2055C16.9876 32.4196 16.9032 32.6247 16.7538 32.7758C16.6043 32.9269 16.4021 33.0117 16.1912 33.0117H10.5366C10.3258 33.0117 10.1235 32.9269 9.97409 32.7758C9.82467 32.6247 9.74026 32.4196 9.73933 32.2055V23.669C9.74026 23.4548 9.82467 23.2498 9.97409 23.0987C10.1235 22.9476 10.3258 22.8627 10.5366 22.8627ZM15.3975 24.4752H11.3268V31.3921H15.3975V24.4752ZM37.2609 16.5522C36.8219 16.3417 35.7401 16.0564 35.3995 15.7139C35.1031 15.4103 34.8522 15.0641 34.6549 14.6865C34.4575 15.0641 34.2066 15.4103 33.9103 15.7139C33.1587 16.4737 31.4517 16.9482 30.2962 16.9482C29.1407 16.9482 27.4338 16.4737 26.6927 15.7139C26.3964 15.4103 26.1455 15.0641 25.9481 14.6865C25.7507 15.0641 25.4999 15.4103 25.2035 15.7139C24.4519 16.4737 22.745 16.9482 21.5895 16.9482C20.434 16.9482 18.727 16.4737 17.9754 15.7139C17.6716 15.4118 17.4136 15.0655 17.2098 14.6865C17.0124 15.0641 16.7615 15.4103 16.4652 15.7139C15.7136 16.4737 14.0067 16.9482 12.8511 16.9482C11.6956 16.9482 9.9887 16.4737 9.23709 15.7139C8.94075 15.4103 8.68988 15.0641 8.4925 14.6865C8.29513 15.0641 8.04426 15.4103 7.74792 15.7139C7.2527 16.2133 5.94967 16.5915 5.26128 16.7841C3.87396 16.9553 2.23728 16.752 1.20821 15.7139C0.824081 15.3231 0.519641 14.8591 0.31232 14.3486C0.104998 13.8381 -0.00113131 13.291 9.09382e-06 12.7388V11.0836C0.00107609 11.0014 0.021552 10.9206 0.0597165 10.8481L2.98187 1.3413C3.22069 0.560064 3.80723 0.0570766 4.94167 0H37.9879C39.0065 0.110586 39.6703 0.545795 39.9442 1.33417L43.1052 10.8303C43.1454 10.8985 43.1683 10.9757 43.1719 11.055C43.1736 11.0716 43.1736 11.0884 43.1719 11.105V12.7388C43.1717 13.2918 43.0639 13.8393 42.8548 14.3498C42.6456 14.8604 42.3392 15.3239 41.9532 15.7139C40.731 16.9553 38.8695 16.9232 37.275 16.5522H37.2609Z" fill="#1A3BFF"/>
</g>
<defs>
<clipPath id="clip0_111_93">
<rect width="43.1579" height="40" fill="white"/>
</clipPath>
</defs>
</svg>
