<svg width="46" height="40" viewBox="0 0 46 40" fill="none" xmlns="http://www.w3.org/2000/svg">
<g clip-path="url(#clip0_111_95)">
<path d="M33.0999 25.5719C32.6827 27.0158 32.0867 28.4026 31.3255 29.7006H35.0278C35.1879 29.7974 35.3572 29.8783 35.5332 29.9423C35.9478 30.095 36.3944 30.1409 36.8317 30.0759C37.2689 30.0108 37.6825 29.837 38.0339 29.5704L39.0521 28.8823C38.6013 29.8738 38.0692 30.8267 37.4611 31.7315C36.108 33.7268 34.3792 35.4433 32.37 36.7863C31.3542 37.4646 30.2763 38.0462 29.1506 38.5233C27.9977 39.0154 26.7973 39.3892 25.568 39.6392C23.0628 40.1302 20.4852 40.1302 17.98 39.6392C16.7722 39.3969 15.592 39.0343 14.4574 38.5568L14.3975 38.5345C13.2722 38.0565 12.1943 37.475 11.1781 36.7975C10.1749 36.1279 9.23962 35.3631 8.38542 34.5137C8.01107 34.1417 7.65918 33.7698 7.31853 33.3606C7.85916 32.8989 8.42665 32.4692 9.01807 32.0736C9.30008 32.3985 9.59207 32.7109 9.89405 33.011C10.6475 33.7633 11.4738 34.4398 12.361 35.0307C13.2707 35.6333 14.2343 36.1513 15.2397 36.578L15.2884 36.6003C16.2892 37.0201 17.3302 37.3379 18.3955 37.5488C18.6613 37.6009 18.9346 37.6492 19.2078 37.6864C16.9383 35.8177 14.9247 33.6619 13.2183 31.2739H10.2235C11.3465 30.5672 12.5968 29.8791 13.8359 29.2319C13.9295 29.3919 14.0269 29.5481 14.1279 29.7043H20.9635V25.8955L21.4876 25.676C21.7356 26.1489 22.1291 26.5307 22.6107 26.7659V29.7006H29.4126C31.0373 27.1676 31.9132 24.616 32.033 22.0495L33.1112 25.5719H33.0999ZM19.2228 19.509C19.4774 18.7019 20.1849 18.0547 21.2106 17.4L17.7067 13.3309C17.4709 13.1263 17.5308 12.9589 17.7516 12.8138L18.9159 12.3191C19.0096 12.2897 19.1087 12.2807 19.2063 12.2929C19.3039 12.3051 19.3976 12.3382 19.4811 12.3898L24.5685 14.9377L30.5581 11.4971L22.2775 1.26837C22.0641 1.03403 22.0941 0.851776 22.4272 0.732751L24.299 -0.0111585L36.7424 7.98215L41.2345 5.81365C42.9453 5.06974 44.4202 4.95072 45.3524 5.50493C45.5703 5.59391 45.7531 5.7509 45.8733 5.95218C45.9935 6.15347 46.0445 6.38815 46.0187 6.62079C46.0374 7.73666 45.0978 8.94179 43.4395 9.96839L38.7713 11.7761L38.397 26.4795L36.7274 27.5953C36.4391 27.7999 36.2707 27.7255 36.1958 27.4168L32.3325 14.8782L26.1034 17.8538L25.3547 23.4331C25.3495 23.5333 25.3224 23.6312 25.2752 23.7198C25.228 23.8085 25.1618 23.8858 25.0814 23.9464L24.022 24.6234C23.7786 24.7201 23.6064 24.6755 23.5728 24.3668L22.1652 19.1966C21.0422 19.6727 20.0988 19.8884 19.2827 19.6355C19.2078 19.6132 19.2004 19.5797 19.2228 19.509ZM17.6506 16.9314C12.7017 19.5351 6.08317 23.7642 3.64991 26.2302C-4.30875 34.3723 1.9017 40.7179 11.2005 37.9394C8.28809 37.5116 6.00831 36.9277 4.74301 36.1019C-0.65885 32.5758 16.7222 24.9656 20.7876 23.2992L20.4694 22.1276C19.8299 22.1852 19.1852 22.1183 18.5715 21.9304L18.3431 21.83C18.0409 21.7189 17.766 21.5449 17.5368 21.3198C17.3076 21.0946 17.1294 20.8235 17.0142 20.5245L16.9655 20.3943C16.7647 19.8865 16.7554 19.3238 16.9393 18.8097C17.128 18.2024 17.4345 17.6375 17.8415 17.1471L17.658 16.9314H17.6506ZM2.9948 23.4741C2.90861 22.7196 2.86611 21.9608 2.86752 21.2014C2.86634 19.935 2.99174 18.6716 3.24187 17.4298C3.48271 16.2294 3.84648 15.0566 4.32748 13.9297L4.34994 13.8739C4.83375 12.7552 5.42021 11.6832 6.10189 10.6714C6.77354 9.67518 7.54216 8.74703 8.39665 7.90032C9.25085 7.05093 10.1861 6.28607 11.1893 5.61652C12.2056 4.93901 13.2834 4.35746 14.4087 3.87949C15.5618 3.388 16.7621 3.01413 17.9912 2.76362C18.7172 2.62013 19.4509 2.51829 20.1886 2.45862C20.2725 2.58865 20.365 2.71291 20.4657 2.83058L22.6069 5.48261V11.1066H26.4328L24.4899 12.2224L20.9635 10.4594V5.47145C18.9758 7.16468 17.1648 9.05258 15.5579 11.1066H16.0558C15.6571 11.4475 15.3735 11.9019 15.2435 12.4084C15.2148 12.5059 15.1935 12.6053 15.1799 12.706V12.7394H14.405C13.5055 14.1001 12.7835 15.5686 12.2562 17.1099C11.5786 17.5153 10.8973 17.9282 10.2235 18.3522C10.6621 16.3683 11.4206 14.4679 12.4696 12.7246H7.31478C6.9415 13.3634 6.60771 14.0242 6.31527 14.7034L6.29281 14.7517C5.86742 15.7501 5.5475 16.7897 5.33822 17.8538C5.17065 18.6903 5.06803 19.5384 5.03125 20.3906H7.11263C5.68621 21.3468 4.31168 22.3773 2.9948 23.4778V23.4741ZM32.0106 22.0234H27.9639L28.1847 20.3868H31.5164L32.0143 22.0234H32.0106ZM30.3223 31.2702C28.6141 33.6579 26.6007 35.8148 24.3327 37.6864C24.606 37.6455 24.8755 37.5972 25.145 37.5451C26.2261 37.3284 27.2822 37.0031 28.297 36.5743C29.3028 36.1483 30.2666 35.6303 31.1758 35.027C32.063 34.4361 32.8893 33.7595 33.6427 33.0073C34.2 32.4664 34.7167 31.8859 35.1888 31.2702H30.3223ZM22.6032 37.0095C24.7218 35.3219 26.6362 33.396 28.3083 31.2702H22.6032V37.0095ZM20.9635 31.2702H15.2547C16.9289 33.3953 18.8446 35.3212 20.9635 37.0095V31.2702ZM13.5365 11.1066C15.2231 8.75668 17.1777 6.60861 19.3613 4.70523C19.0394 4.74986 18.7212 4.80193 18.4067 4.86517C17.3234 5.07776 16.2657 5.40316 15.251 5.83597C14.2456 6.26273 13.2819 6.7807 12.3722 7.3833C11.485 7.97421 10.6587 8.65073 9.90528 9.40301C9.36666 9.93405 8.8663 10.5021 8.40788 11.1028L13.5365 11.1066Z" fill="#1A3BFF"/>
</g>
<defs>
<clipPath id="clip0_111_95">
<rect width="46" height="40" fill="white"/>
</clipPath>
</defs>
</svg>
